roboto-mono_medium.sfdir
StartChar: exclam
Encoding: 33 33 1040
Width: 1229
Flags: W
LayerCount: 2
Back
Fore
SplineSet
716 493 m 1,0,-1
 490 493 l 1,1,-1
 482 1456 l 1,2,-1
 724 1456 l 1,3,-1
 716 493 l 1,0,-1
463 119 m 0,4,5
 463 177 463 177 499.5 215.5 c 128,-1,6
 536 254 536 254 604 254 c 256,7,8
 672 254 672 254 709 215.5 c 128,-1,9
 746 177 746 177 746 119 c 0,10,11
 746 62 746 62 709 24.5 c 128,-1,12
 672 -13 672 -13 604 -13 c 256,13,14
 536 -13 536 -13 499.5 24.5 c 128,-1,15
 463 62 463 62 463 119 c 0,4,5
EndSplineSet
EndChar
StartChar: quotedbl
Encoding: 34 34 4
Width: 1229
Flags: W
LayerCount: 2
Back
Fore
SplineSet
495 1429 m 1,0,-1
 470 1030 l 1,1,-1
 312 1030 l 1,2,-1
 312 1536 l 1,3,-1
 495 1536 l 1,4,-1
 495 1429 l 1,0,-1
886 1429 m 1,5,-1
 861 1030 l 1,6,-1
 703 1030 l 1,7,-1
 703 1536 l 1,8,-1
 886 1536 l 1,9,-1
 886 1429 l 1,5,-1
EndSplineSet
EndChar
StartChar: numbersign
Encoding: 35 35 5
Width: 1229
Flags: W
LayerCount: 2
Back
Fore
SplineSet
675 410 m 1,0,-1
 448 410 l 1,1,-1
 372 0 l 1,2,-1
 206 0 l 1,3,-1
 283 410 l 1,4,-1
 51 410 l 1,5,-1
 51 567 l 1,6,-1
 312 567 l 1,7,-1
 371 881 l 1,8,-1
 126 881 l 1,9,-1
 126 1040 l 1,10,-1
 401 1040 l 1,11,-1
 479 1456 l 1,12,-1
 644 1456 l 1,13,-1
 566 1040 l 1,14,-1
 793 1040 l 1,15,-1
 871 1456 l 1,16,-1
 1038 1456 l 1,17,-1
 960 1040 l 1,18,-1
 1167 1040 l 1,19,-1
 1167 881 l 1,20,-1
 930 881 l 1,21,-1
 871 567 l 1,22,-1
 1091 567 l 1,23,-1
 1091 410 l 1,24,-1
 842 410 l 1,25,-1
 765 0 l 1,26,-1
 599 0 l 1,27,-1
 675 410 l 1,0,-1
478 567 m 1,28,-1
 705 567 l 1,29,-1
 763 881 l 1,30,-1
 536 881 l 1,31,-1
 478 567 l 1,28,-1
EndSplineSet
EndChar
StartChar: dollar
Encoding: 36 36 6
Width: 1229
Flags: W
LayerCount: 2
Back
Fore
SplineSet
879 380 m 0,0,1
 879 422 879 422 865.5 457 c 128,-1,2
 852 492 852 492 822 521.5 c 128,-1,3
 792 551 792 551 744 576.5 c 128,-1,4
 696 602 696 602 627 625 c 0,5,6
 529 657 529 657 450 696.5 c 128,-1,7
 371 736 371 736 315 788.5 c 128,-1,8
 259 841 259 841 229 910.5 c 128,-1,9
 199 980 199 980 199 1073 c 0,10,11
 199 1157 199 1157 226 1226.5 c 128,-1,12
 253 1296 253 1296 302.5 1347.5 c 128,-1,13
 352 1399 352 1399 422.5 1431 c 128,-1,14
 493 1463 493 1463 580 1473 c 1,15,-1
 580 1691 l 1,16,-1
 740 1691 l 1,17,-1
 740 1471 l 1,18,19
 827 1459 827 1459 895.5 1422.5 c 128,-1,20
 964 1386 964 1386 1012 1327 c 128,-1,21
 1060 1268 1060 1268 1085.5 1187 c 128,-1,22
 1111 1106 1111 1106 1111 1005 c 1,23,-1
 872 1005 l 1,24,25
 872 1068 872 1068 857 1118.5 c 128,-1,26
 842 1169 842 1169 814 1204.5 c 128,-1,27
 786 1240 786 1240 745.5 1259 c 128,-1,28
 705 1278 705 1278 653 1278 c 0,29,30
 597 1278 597 1278 556.5 1263 c 128,-1,31
 516 1248 516 1248 490 1221.5 c 128,-1,32
 464 1195 464 1195 451 1157.5 c 128,-1,33
 438 1120 438 1120 438 1075 c 0,34,35
 438 1032 438 1032 450.5 998 c 128,-1,36
 463 964 463 964 493 935 c 128,-1,37
 523 906 523 906 572 880.5 c 128,-1,38
 621 855 621 855 694 830 c 0,39,40
 793 796 793 796 871.5 756.5 c 128,-1,41
 950 717 950 717 1005 664.5 c 128,-1,42
 1060 612 1060 612 1089 543 c 128,-1,43
 1118 474 1118 474 1118 382 c 0,44,45
 1118 294 1118 294 1090 224.5 c 128,-1,46
 1062 155 1062 155 1010 104.5 c 128,-1,47
 958 54 958 54 884 23.5 c 128,-1,48
 810 -7 810 -7 719 -16 c 1,49,-1
 719 -210 l 1,50,-1
 560 -210 l 1,51,-1
 560 -17 l 1,52,53
 479 -9 479 -9 404 20 c 128,-1,54
 329 49 329 49 271 103.5 c 128,-1,55
 213 158 213 158 178 241.5 c 128,-1,56
 143 325 143 325 143 442 c 1,57,-1
 382 442 l 1,58,59
 382 364 382 364 404.5 313 c 128,-1,60
 427 262 427 262 463 231.5 c 128,-1,61
 499 201 499 201 544 188.5 c 128,-1,62
 589 176 589 176 635 176 c 0,63,64
 753 176 753 176 816 231.5 c 128,-1,65
 879 287 879 287 879 380 c 0,0,1
EndSplineSet
EndChar
StartChar: percent
Encoding: 37 37 7
Width: 1229
Flags: W
LayerCount: 2
Back
Fore
SplineSet
39 1196 m 2,0,1
 39 1254 39 1254 56.5 1305 c 128,-1,2
 74 1356 74 1356 109 1394 c 128,-1,3
 144 1432 144 1432 196 1454.5 c 128,-1,4
 248 1477 248 1477 317 1477 c 256,5,6
 386 1477 386 1477 438.5 1454.5 c 128,-1,7
 491 1432 491 1432 525.5 1394 c 128,-1,8
 560 1356 560 1356 577.5 1305 c 128,-1,9
 595 1254 595 1254 595 1196 c 2,10,-1
 595 1119 l 2,11,12
 595 1062 595 1062 577.5 1011.5 c 128,-1,13
 560 961 560 961 525.5 922.5 c 128,-1,14
 491 884 491 884 439 862 c 128,-1,15
 387 840 387 840 319 840 c 0,16,17
 250 840 250 840 197.5 862 c 128,-1,18
 145 884 145 884 110 922.5 c 128,-1,19
 75 961 75 961 57 1011.5 c 128,-1,20
 39 1062 39 1062 39 1119 c 2,21,-1
 39 1196 l 2,0,1
207 1119 m 2,22,23
 207 1092 207 1092 213 1067.5 c 128,-1,24
 219 1043 219 1043 232.5 1024.5 c 128,-1,25
 246 1006 246 1006 267 994.5 c 128,-1,26
 288 983 288 983 319 983 c 0,27,28
 349 983 349 983 370 994.5 c 128,-1,29
 391 1006 391 1006 403.5 1024.5 c 128,-1,30
 416 1043 416 1043 422 1067.5 c 128,-1,31
 428 1092 428 1092 428 1119 c 2,32,-1
 428 1196 l 2,33,34
 428 1223 428 1223 422 1247.5 c 128,-1,35
 416 1272 416 1272 403 1290.5 c 128,-1,36
 390 1309 390 1309 369 1320.5 c 128,-1,37
 348 1332 348 1332 317 1332 c 0,38,39
 287 1332 287 1332 266 1320.5 c 128,-1,40
 245 1309 245 1309 232 1290.5 c 128,-1,41
 219 1272 219 1272 213 1247.5 c 128,-1,42
 207 1223 207 1223 207 1196 c 2,43,-1
 207 1119 l 2,22,23
631 337 m 2,44,45
 631 394 631 394 648.5 445 c 128,-1,46
 666 496 666 496 701 534.5 c 128,-1,47
 736 573 736 573 788 595 c 128,-1,48
 840 617 840 617 909 617 c 256,49,50
 978 617 978 617 1030.5 595 c 128,-1,51
 1083 573 1083 573 1117.5 534.5 c 128,-1,52
 1152 496 1152 496 1169.5 445 c 128,-1,53
 1187 394 1187 394 1187 337 c 2,54,-1
 1187 259 l 2,55,56
 1187 202 1187 202 1169.5 151 c 128,-1,57
 1152 100 1152 100 1117.5 62 c 128,-1,58
 1083 24 1083 24 1031.5 2 c 128,-1,59
 980 -20 980 -20 911 -20 c 256,60,61
 842 -20 842 -20 789.5 2 c 128,-1,62
 737 24 737 24 701.5 62 c 128,-1,63
 666 100 666 100 648.5 151 c 128,-1,64
 631 202 631 202 631 259 c 2,65,-1
 631 337 l 2,44,45
799 259 m 2,66,67
 799 232 799 232 805 207.5 c 128,-1,68
 811 183 811 183 824.5 164.5 c 128,-1,69
 838 146 838 146 859.5 134.5 c 128,-1,70
 881 123 881 123 911 123 c 0,71,72
 943 123 943 123 964 134 c 128,-1,73
 985 145 985 145 997 164 c 128,-1,74
 1009 183 1009 183 1014 207.5 c 128,-1,75
 1019 232 1019 232 1019 259 c 2,76,-1
 1019 337 l 2,77,78
 1019 363 1019 363 1013 387.5 c 128,-1,79
 1007 412 1007 412 994 430.5 c 128,-1,80
 981 449 981 449 960 460.5 c 128,-1,81
 939 472 939 472 909 472 c 0,82,83
 878 472 878 472 857 460.5 c 128,-1,84
 836 449 836 449 823 430.5 c 128,-1,85
 810 412 810 412 804.5 387.5 c 128,-1,86
 799 363 799 363 799 337 c 2,87,-1
 799 259 l 2,66,67
411 196 m 1,88,-1
 284 260 l 1,89,-1
 845 1288 l 1,90,-1
 972 1224 l 1,91,-1
 411 196 l 1,88,-1
EndSplineSet
EndChar
StartChar: ampersand
Encoding: 38 38 8
Width: 1229
Flags: W
LayerCount: 2
Back
Fore
SplineSet
88 373 m 0,0,1
 88 440 88 440 107 495.5 c 128,-1,2
 126 551 126 551 160.5 599 c 128,-1,3
 195 647 195 647 244 690 c 128,-1,4
 293 733 293 733 353 775 c 1,5,6
 290 865 290 865 254.5 945 c 128,-1,7
 219 1025 219 1025 219 1111 c 0,8,9
 219 1198 219 1198 245.5 1266 c 128,-1,10
 272 1334 272 1334 321.5 1381 c 128,-1,11
 371 1428 371 1428 441 1452.5 c 128,-1,12
 511 1477 511 1477 597 1477 c 0,13,14
 671 1477 671 1477 731.5 1450.5 c 128,-1,15
 792 1424 792 1424 834.5 1379.5 c 128,-1,16
 877 1335 877 1335 900 1276 c 128,-1,17
 923 1217 923 1217 923 1152 c 0,18,19
 923 1100 923 1100 907 1055.5 c 128,-1,20
 891 1011 891 1011 863 972 c 128,-1,21
 835 933 835 933 797 898.5 c 128,-1,22
 759 864 759 864 715 832 c 2,23,-1
 630 761 l 1,24,-1
 901 409 l 1,25,26
 933 469 933 469 951.5 540 c 128,-1,27
 970 611 970 611 970 692 c 1,28,-1
 1179 692 l 1,29,30
 1179 558 1179 558 1142.5 444.5 c 128,-1,31
 1106 331 1106 331 1031 240 c 1,32,-1
 1216 0 l 1,33,-1
 937 0 l 1,34,-1
 867 92 l 1,35,36
 792 37 792 37 707.5 8 c 128,-1,37
 623 -21 623 -21 523 -21 c 0,38,39
 422 -21 422 -21 341.5 8.5 c 128,-1,40
 261 38 261 38 204.5 90.5 c 128,-1,41
 148 143 148 143 118 215 c 128,-1,42
 88 287 88 287 88 373 c 0,0,1
529 170 m 0,43,44
 589 170 589 170 646 189 c 128,-1,45
 703 208 703 208 754 243 c 1,46,-1
 466 624 l 1,47,-1
 450 611 l 2,48,49
 409 576 409 576 384.5 542.5 c 128,-1,50
 360 509 360 509 347.5 479 c 128,-1,51
 335 449 335 449 331 424 c 128,-1,52
 327 399 327 399 327 381 c 0,53,54
 327 337 327 337 340.5 298.5 c 128,-1,55
 354 260 354 260 379.5 231.5 c 128,-1,56
 405 203 405 203 442.5 186.5 c 128,-1,57
 480 170 480 170 529 170 c 0,43,44
445 1112 m 0,58,59
 445 1063 445 1063 466 1012 c 128,-1,60
 487 961 487 961 525 904 c 1,61,-1
 628 984 l 2,62,63
 659 1005 659 1005 676.5 1026.5 c 128,-1,64
 694 1048 694 1048 702 1069 c 128,-1,65
 710 1090 710 1090 712 1109.5 c 128,-1,66
 714 1129 714 1129 714 1144 c 0,67,68
 714 1170 714 1170 706 1195.5 c 128,-1,69
 698 1221 698 1221 683 1240.5 c 128,-1,70
 668 1260 668 1260 646 1272 c 128,-1,71
 624 1284 624 1284 597 1284 c 0,72,73
 559 1284 559 1284 530.5 1270 c 128,-1,74
 502 1256 502 1256 483 1232.5 c 128,-1,75
 464 1209 464 1209 454.5 1178 c 128,-1,76
 445 1147 445 1147 445 1112 c 0,58,59
EndSplineSet
EndChar
StartChar: parenleft
Encoding: 40 40 10
Width: 1229
Flags: W
LayerCount: 2
Back
Fore
SplineSet
348 592 m 2,0,1
 348 737 348 737 371 863 c 128,-1,2
 394 989 394 989 432 1096 c 128,-1,3
 470 1203 470 1203 520.5 1290.5 c 128,-1,4
 571 1378 571 1378 626.5 1445.5 c 128,-1,5
 682 1513 682 1513 738.5 1559.5 c 128,-1,6
 795 1606 795 1606 846 1632 c 1,7,-1
 894 1491 l 1,8,9
 837 1447 837 1447 779 1372 c 128,-1,10
 721 1297 721 1297 674 1187 c 128,-1,11
 627 1077 627 1077 597.5 929.5 c 128,-1,12
 568 782 568 782 568 594 c 2,13,-1
 568 574 l 2,14,15
 568 386 568 386 597.5 238.5 c 128,-1,16
 627 91 627 91 674 -20 c 128,-1,17
 721 -131 721 -131 779 -207 c 128,-1,18
 837 -283 837 -283 894 -329 c 1,19,-1
 846 -463 l 1,20,21
 795 -438 795 -438 738.5 -391 c 128,-1,22
 682 -344 682 -344 626.5 -276.5 c 128,-1,23
 571 -209 571 -209 520.5 -122 c 128,-1,24
 470 -35 470 -35 432 72 c 128,-1,25
 394 179 394 179 371 305 c 128,-1,26
 348 431 348 431 348 576 c 2,27,-1
 348 592 l 2,0,1
EndSplineSet
EndChar
StartChar: parenright
Encoding: 41 41 11
Width: 1229
Flags: W
LayerCount: 2
Back
Fore
SplineSet
868 576 m 2,0,1
 868 433 868 433 845 307.5 c 128,-1,2
 822 182 822 182 783 75.5 c 128,-1,3
 744 -31 744 -31 693 -119 c 128,-1,4
 642 -207 642 -207 585.5 -275 c 128,-1,5
 529 -343 529 -343 471.5 -390.5 c 128,-1,6
 414 -438 414 -438 363 -463 c 1,7,-1
 316 -329 l 1,8,9
 372 -286 372 -286 430 -210 c 128,-1,10
 488 -134 488 -134 535 -22.5 c 128,-1,11
 582 89 582 89 612 237.5 c 128,-1,12
 642 386 642 386 642 574 c 2,13,-1
 642 594 l 2,14,15
 642 782 642 782 610.5 930.5 c 128,-1,16
 579 1079 579 1079 531 1191 c 128,-1,17
 483 1303 483 1303 425.5 1379 c 128,-1,18
 368 1455 368 1455 316 1498 c 1,19,-1
 363 1632 l 1,20,21
 414 1606 414 1606 471.5 1559 c 128,-1,22
 529 1512 529 1512 585.5 1444 c 128,-1,23
 642 1376 642 1376 693 1287.5 c 128,-1,24
 744 1199 744 1199 783 1092 c 128,-1,25
 822 985 822 985 845 859.5 c 128,-1,26
 868 734 868 734 868 592 c 2,27,-1
 868 576 l 2,0,1
EndSplineSet
EndChar
StartChar: asterisk
Encoding: 42 42 12
Width: 1229
Flags: W
LayerCount: 2
Back
Fore
SplineSet
538 645 m 1,0,-1
 154 740 l 1,1,-1
 216 936 l 1,2,-1
 585 776 l 1,3,-1
 553 1203 l 1,4,-1
 758 1203 l 1,5,-1
 723 770 l 1,6,-1
 1089 926 l 1,7,-1
 1151 727 l 1,8,-1
 761 637 l 1,9,-1
 1022 313 l 1,10,-1
 855 190 l 1,11,-1
 645 559 l 1,12,-1
 437 201 l 1,13,-1
 268 318 l 1,14,-1
 538 645 l 1,0,-1
EndSplineSet
EndChar
StartChar: plus
Encoding: 43 43 13
Width: 1229
Flags: W
LayerCount: 2
Back
Fore
SplineSet
725 800 m 1,0,-1
 1107 800 l 1,1,-1
 1107 575 l 1,2,-1
 725 575 l 1,3,-1
 725 146 l 1,4,-1
 492 146 l 1,5,-1
 492 575 l 1,6,-1
 109 575 l 1,7,-1
 109 800 l 1,8,-1
 492 800 l 1,9,-1
 492 1206 l 1,10,-1
 725 1206 l 1,11,-1
 725 800 l 1,0,-1
EndSplineSet
EndChar
StartChar: comma
Encoding: 44 44 14
Width: 1229
Flags: W
LayerCount: 2
Back
Fore
SplineSet
681 33 m 2,0,1
 681 -20 681 -20 667.5 -76 c 128,-1,2
 654 -132 654 -132 628.5 -186 c 128,-1,3
 603 -240 603 -240 567.5 -288.5 c 128,-1,4
 532 -337 532 -337 489 -375 c 1,5,-1
 354 -304 l 1,6,7
 397 -232 397 -232 420 -152.5 c 128,-1,8
 443 -73 443 -73 443 25 c 2,9,-1
 443 234 l 1,10,-1
 682 234 l 1,11,-1
 681 33 l 2,0,1
EndSplineSet
EndChar
StartChar: period
Encoding: 46 46 16
Width: 1229
Flags: W
LayerCount: 2
Back
Fore
SplineSet
454 143 m 256,0,1
 454 178 454 178 465.5 209 c 128,-1,2
 477 240 477 240 499 262.5 c 128,-1,3
 521 285 521 285 553.5 298 c 128,-1,4
 586 311 586 311 628 311 c 256,5,6
 670 311 670 311 702.5 298 c 128,-1,7
 735 285 735 285 757.5 262.5 c 128,-1,8
 780 240 780 240 791.5 209 c 128,-1,9
 803 178 803 178 803 143 c 256,10,11
 803 108 803 108 791.5 78.5 c 128,-1,12
 780 49 780 49 757.5 27 c 128,-1,13
 735 5 735 5 702.5 -7.5 c 128,-1,14
 670 -20 670 -20 628 -20 c 256,15,16
 586 -20 586 -20 553.5 -7.5 c 128,-1,17
 521 5 521 5 499 27 c 128,-1,18
 477 49 477 49 465.5 78.5 c 128,-1,19
 454 108 454 108 454 143 c 256,0,1
EndSplineSet
EndChar
StartChar: zero
Encoding: 48 48 18
Width: 1229
Flags: W
LayerCount: 2
Back
Fore
SplineSet
1090 554 m 2,0,1
 1090 413 1090 413 1057.5 305.5 c 128,-1,2
 1025 198 1025 198 964 125.5 c 128,-1,3
 903 53 903 53 815 16 c 128,-1,4
 727 -21 727 -21 617 -21 c 0,5,6
 508 -21 508 -21 420 16 c 128,-1,7
 332 53 332 53 270.5 125.5 c 128,-1,8
 209 198 209 198 175.5 305.5 c 128,-1,9
 142 413 142 413 142 554 c 2,10,-1
 142 902 l 2,11,12
 142 1043 142 1043 175 1150.5 c 128,-1,13
 208 1258 208 1258 269.5 1330.5 c 128,-1,14
 331 1403 331 1403 418.5 1440 c 128,-1,15
 506 1477 506 1477 615 1477 c 0,16,17
 725 1477 725 1477 813 1440 c 128,-1,18
 901 1403 901 1403 962.5 1330.5 c 128,-1,19
 1024 1258 1024 1258 1057 1150.5 c 128,-1,20
 1090 1043 1090 1043 1090 902 c 2,21,-1
 1090 554 l 2,0,1
382 645 m 1,22,-1
 848 992 l 1,23,24
 840 1141 840 1141 782.5 1212.5 c 128,-1,25
 725 1284 725 1284 615 1284 c 0,26,27
 498 1284 498 1284 440 1201 c 128,-1,28
 382 1118 382 1118 382 946 c 2,29,-1
 382 645 l 1,22,-1
850 804 m 1,30,-1
 384 457 l 1,31,32
 402 171 402 171 617 171 c 0,33,34
 850 171 850 171 850 512 c 2,35,-1
 850 804 l 1,30,-1
EndSplineSet
EndChar
StartChar: one
Encoding: 49 49 19
Width: 1229
Flags: W
LayerCount: 2
Back
Fore
SplineSet
802 0 m 1,0,-1
 561 0 l 1,1,-1
 561 1161 l 1,2,-1
 189 1025 l 1,3,-1
 189 1235 l 1,4,-1
 787 1456 l 1,5,-1
 802 1456 l 1,6,-1
 802 0 l 1,0,-1
EndSplineSet
EndChar
StartChar: two
Encoding: 50 50 20
Width: 1229
Flags: W
LayerCount: 2
Back
Fore
SplineSet
1083 0 m 1,0,-1
 105 0 l 1,1,-1
 105 165 l 1,2,-1
 579 682 l 2,3,4
 639 749 639 749 679.5 800.5 c 128,-1,5
 720 852 720 852 744 895 c 128,-1,6
 768 938 768 938 778 975 c 128,-1,7
 788 1012 788 1012 788 1050 c 0,8,9
 788 1100 788 1100 772.5 1142.5 c 128,-1,10
 757 1185 757 1185 728.5 1215.5 c 128,-1,11
 700 1246 700 1246 659.5 1263 c 128,-1,12
 619 1280 619 1280 569 1280 c 0,13,14
 439 1280 439 1280 377.5 1209 c 128,-1,15
 316 1138 316 1138 316 1013 c 1,16,-1
 76 1013 l 1,17,18
 76 1108 76 1108 110.5 1192.5 c 128,-1,19
 145 1277 145 1277 209.5 1340 c 128,-1,20
 274 1403 274 1403 366 1439.5 c 128,-1,21
 458 1476 458 1476 573 1476 c 0,22,23
 681 1476 681 1476 765 1445 c 128,-1,24
 849 1414 849 1414 907 1358.5 c 128,-1,25
 965 1303 965 1303 995 1227 c 128,-1,26
 1025 1151 1025 1151 1025 1060 c 0,27,28
 1025 992 1025 992 1003 928.5 c 128,-1,29
 981 865 981 865 942 802 c 128,-1,30
 903 739 903 739 849 675.5 c 128,-1,31
 795 612 795 612 732 545 c 2,32,-1
 402 191 l 1,33,-1
 1083 191 l 1,34,-1
 1083 0 l 1,0,-1
EndSplineSet
EndChar
StartChar: three
Encoding: 51 51 21
Width: 1229
Flags: W
LayerCount: 2
Back
Fore
SplineSet
404 836 m 1,0,-1
 547 836 l 2,1,2
 610 836 610 836 657 852.5 c 128,-1,3
 704 869 704 869 735 899 c 128,-1,4
 766 929 766 929 781.5 970.5 c 128,-1,5
 797 1012 797 1012 797 1062 c 0,6,7
 797 1168 797 1168 741.5 1225.5 c 128,-1,8
 686 1283 686 1283 574 1283 c 0,9,10
 525 1283 525 1283 483.5 1268.5 c 128,-1,11
 442 1254 442 1254 411.5 1227 c 128,-1,12
 381 1200 381 1200 364 1162 c 128,-1,13
 347 1124 347 1124 347 1076 c 1,14,-1
 108 1076 l 1,15,16
 108 1162 108 1162 142.5 1235 c 128,-1,17
 177 1308 177 1308 238.5 1361.5 c 128,-1,18
 300 1415 300 1415 385 1445.5 c 128,-1,19
 470 1476 470 1476 571 1476 c 0,20,21
 674 1476 674 1476 760 1449.5 c 128,-1,22
 846 1423 846 1423 907 1371 c 128,-1,23
 968 1319 968 1319 1002 1241.5 c 128,-1,24
 1036 1164 1036 1164 1036 1062 c 0,25,26
 1036 1019 1036 1019 1023 974 c 128,-1,27
 1010 929 1010 929 983.5 887 c 128,-1,28
 957 845 957 845 916.5 808.5 c 128,-1,29
 876 772 876 772 821 747 c 1,30,31
 887 724 887 724 932 688 c 128,-1,32
 977 652 977 652 1005 607.5 c 128,-1,33
 1033 563 1033 563 1045 512 c 128,-1,34
 1057 461 1057 461 1057 408 c 0,35,36
 1057 306 1057 306 1020 226 c 128,-1,37
 983 146 983 146 917.5 91.5 c 128,-1,38
 852 37 852 37 763 8.5 c 128,-1,39
 674 -20 674 -20 571 -20 c 0,40,41
 476 -20 476 -20 390 6 c 128,-1,42
 304 32 304 32 238.5 83.5 c 128,-1,43
 173 135 173 135 134 211.5 c 128,-1,44
 95 288 95 288 95 389 c 1,45,-1
 334 389 l 1,46,47
 334 341 334 341 351 300.5 c 128,-1,48
 368 260 368 260 399.5 231.5 c 128,-1,49
 431 203 431 203 475 187 c 128,-1,50
 519 171 519 171 574 171 c 0,51,52
 688 171 688 171 753.5 231.5 c 128,-1,53
 819 292 819 292 819 407 c 0,54,55
 819 470 819 470 800 515.5 c 128,-1,56
 781 561 781 561 745.5 590.5 c 128,-1,57
 710 620 710 620 660 634 c 128,-1,58
 610 648 610 648 547 648 c 2,59,-1
 404 648 l 1,60,-1
 404 836 l 1,0,-1
EndSplineSet
EndChar
StartChar: four
Encoding: 52 52 22
Width: 1229
Flags: W
LayerCount: 2
Back
Fore
SplineSet
943 517 m 1,0,-1
 1126 517 l 1,1,-1
 1126 324 l 1,2,-1
 943 324 l 1,3,-1
 943 0 l 1,4,-1
 704 0 l 1,5,-1
 704 324 l 1,6,-1
 72 324 l 1,7,-1
 66 469 l 1,8,-1
 696 1456 l 1,9,-1
 943 1456 l 1,10,-1
 943 517 l 1,0,-1
312 517 m 1,11,-1
 704 517 l 1,12,-1
 704 1137 l 1,13,-1
 678 1090 l 1,14,-1
 312 517 l 1,11,-1
EndSplineSet
EndChar
StartChar: five
Encoding: 53 53 23
Width: 1229
Flags: W
LayerCount: 2
Back
Fore
SplineSet
195 722 m 1,0,-1
 274 1456 l 1,1,-1
 1053 1456 l 1,2,-1
 1053 1242 l 1,3,-1
 472 1242 l 1,4,-1
 435 897 l 1,5,6
 470 917 470 917 528 936 c 128,-1,7
 586 955 586 955 662 955 c 0,8,9
 765 955 765 955 846.5 921 c 128,-1,10
 928 887 928 887 984 823.5 c 128,-1,11
 1040 760 1040 760 1070 669.5 c 128,-1,12
 1100 579 1100 579 1100 465 c 0,13,14
 1100 364 1100 364 1071.5 275.5 c 128,-1,15
 1043 187 1043 187 984.5 121.5 c 128,-1,16
 926 56 926 56 837 18 c 128,-1,17
 748 -20 748 -20 627 -20 c 0,18,19
 536 -20 536 -20 452.5 6.5 c 128,-1,20
 369 33 369 33 304 84.5 c 128,-1,21
 239 136 239 136 197.5 213 c 128,-1,22
 156 290 156 290 150 392 c 1,23,-1
 381 392 l 1,24,25
 395 284 395 284 460 227.5 c 128,-1,26
 525 171 525 171 627 171 c 0,27,28
 686 171 686 171 730 193 c 128,-1,29
 774 215 774 215 803 254.5 c 128,-1,30
 832 294 832 294 846.5 349.5 c 128,-1,31
 861 405 861 405 861 471 c 0,32,33
 861 534 861 534 844.5 587 c 128,-1,34
 828 640 828 640 795 678.5 c 128,-1,35
 762 717 762 717 713 739 c 128,-1,36
 664 761 664 761 600 761 c 0,37,38
 557 761 557 761 526 754.5 c 128,-1,39
 495 748 495 748 470.5 736.5 c 128,-1,40
 446 725 446 725 426 709 c 128,-1,41
 406 693 406 693 386 675 c 1,42,-1
 195 722 l 1,0,-1
EndSplineSet
EndChar
StartChar: six
Encoding: 54 54 24
Width: 1229
Flags: W
LayerCount: 2
Back
Fore
SplineSet
867 1462 m 1,0,-1
 867 1258 l 1,1,-1
 851 1258 l 2,2,3
 728 1258 728 1258 639.5 1223.5 c 128,-1,4
 551 1189 551 1189 492.5 1130 c 128,-1,5
 434 1071 434 1071 403.5 992.5 c 128,-1,6
 373 914 373 914 365 825 c 1,7,8
 389 852 389 852 420 876.5 c 128,-1,9
 451 901 451 901 489 920.5 c 128,-1,10
 527 940 527 940 571 951.5 c 128,-1,11
 615 963 615 963 665 963 c 0,12,13
 772 963 772 963 850.5 922 c 128,-1,14
 929 881 929 881 980 813.5 c 128,-1,15
 1031 746 1031 746 1056 658.5 c 128,-1,16
 1081 571 1081 571 1081 477 c 0,17,18
 1081 372 1081 372 1049.5 281.5 c 128,-1,19
 1018 191 1018 191 958 124 c 128,-1,20
 898 57 898 57 810 18.5 c 128,-1,21
 722 -20 722 -20 610 -20 c 0,22,23
 491 -20 491 -20 400 27 c 128,-1,24
 309 74 309 74 247.5 152.5 c 128,-1,25
 186 231 186 231 154 334 c 128,-1,26
 122 437 122 437 122 550 c 2,27,-1
 122 643 l 2,28,29
 122 750 122 750 138 852.5 c 128,-1,30
 154 955 154 955 189.5 1046 c 128,-1,31
 225 1137 225 1137 281.5 1213.5 c 128,-1,32
 338 1290 338 1290 417.5 1345 c 128,-1,33
 497 1400 497 1400 602 1431 c 128,-1,34
 707 1462 707 1462 840 1462 c 2,35,-1
 867 1462 l 1,0,-1
608 770 m 0,36,37
 567 770 567 770 529 757.5 c 128,-1,38
 491 745 491 745 459 722.5 c 128,-1,39
 427 700 427 700 402 668 c 128,-1,40
 377 636 377 636 362 598 c 1,41,-1
 362 530 l 2,42,43
 362 441 362 441 381.5 374.5 c 128,-1,44
 401 308 401 308 435 263 c 128,-1,45
 469 218 469 218 513 195.5 c 128,-1,46
 557 173 557 173 607 173 c 0,47,48
 663 173 663 173 707 195 c 128,-1,49
 751 217 751 217 781.5 256.5 c 128,-1,50
 812 296 812 296 828 350.5 c 128,-1,51
 844 405 844 405 844 470 c 0,52,53
 844 531 844 531 829 585.5 c 128,-1,54
 814 640 814 640 784 681 c 128,-1,55
 754 722 754 722 710 746 c 128,-1,56
 666 770 666 770 608 770 c 0,36,37
EndSplineSet
EndChar
StartChar: seven
Encoding: 55 55 25
Width: 1229
Flags: W
LayerCount: 2
Back
Fore
SplineSet
1096 1323 m 1,0,-1
 513 0 l 1,1,-1
 261 0 l 1,2,-1
 844 1257 l 1,3,-1
 89 1257 l 1,4,-1
 89 1456 l 1,5,-1
 1096 1456 l 1,6,-1
 1096 1323 l 1,0,-1
EndSplineSet
EndChar
StartChar: eight
Encoding: 56 56 26
Width: 1229
Flags: W
LayerCount: 2
Back
Fore
SplineSet
1063 1072 m 0,0,1
 1063 965 1063 965 1008 881.5 c 128,-1,2
 953 798 953 798 858 750 c 1,3,4
 912 725 912 725 955.5 689 c 128,-1,5
 999 653 999 653 1030 608 c 128,-1,6
 1061 563 1061 563 1077.5 509.5 c 128,-1,7
 1094 456 1094 456 1094 396 c 0,8,9
 1094 295 1094 295 1057 217 c 128,-1,10
 1020 139 1020 139 956 86.5 c 128,-1,11
 892 34 892 34 805.5 7 c 128,-1,12
 719 -20 719 -20 620 -20 c 0,13,14
 519 -20 519 -20 431.5 7 c 128,-1,15
 344 34 344 34 280 86.5 c 128,-1,16
 216 139 216 139 179.5 217 c 128,-1,17
 143 295 143 295 143 396 c 0,18,19
 143 456 143 456 159.5 510 c 128,-1,20
 176 564 176 564 206.5 609 c 128,-1,21
 237 654 237 654 280.5 690 c 128,-1,22
 324 726 324 726 378 750 c 1,23,24
 284 798 284 798 230 881.5 c 128,-1,25
 176 965 176 965 176 1072 c 0,26,27
 176 1169 176 1169 209 1244.5 c 128,-1,28
 242 1320 242 1320 300.5 1371.5 c 128,-1,29
 359 1423 359 1423 440 1449.5 c 128,-1,30
 521 1476 521 1476 617 1476 c 256,31,32
 713 1476 713 1476 794.5 1449.5 c 128,-1,33
 876 1423 876 1423 936 1371.5 c 128,-1,34
 996 1320 996 1320 1029.5 1244.5 c 128,-1,35
 1063 1169 1063 1169 1063 1072 c 0,0,1
855 408 m 0,36,37
 855 463 855 463 838 508 c 128,-1,38
 821 553 821 553 790 585 c 128,-1,39
 759 617 759 617 715.5 634.5 c 128,-1,40
 672 652 672 652 618 652 c 256,41,42
 564 652 564 652 520.5 634.5 c 128,-1,43
 477 617 477 617 446.5 585 c 128,-1,44
 416 553 416 553 399.5 508 c 128,-1,45
 383 463 383 463 383 408 c 0,46,47
 383 296 383 296 446 233.5 c 128,-1,48
 509 171 509 171 620 171 c 0,49,50
 672 171 672 171 715.5 187 c 128,-1,51
 759 203 759 203 790 234 c 128,-1,52
 821 265 821 265 838 308.5 c 128,-1,53
 855 352 855 352 855 408 c 0,36,37
824 1064 m 0,54,55
 824 1112 824 1112 809 1152.5 c 128,-1,56
 794 1193 794 1193 767 1222 c 128,-1,57
 740 1251 740 1251 701.5 1267 c 128,-1,58
 663 1283 663 1283 617 1283 c 0,59,60
 570 1283 570 1283 532.5 1268 c 128,-1,61
 495 1253 495 1253 469 1224.5 c 128,-1,62
 443 1196 443 1196 429 1155.5 c 128,-1,63
 415 1115 415 1115 415 1064 c 0,64,65
 415 1014 415 1014 429.5 973.5 c 128,-1,66
 444 933 444 933 470.5 904.5 c 128,-1,67
 497 876 497 876 535 860 c 128,-1,68
 573 844 573 844 620 844 c 0,69,70
 666 844 666 844 704 860 c 128,-1,71
 742 876 742 876 768.5 904.5 c 128,-1,72
 795 933 795 933 809.5 973.5 c 128,-1,73
 824 1014 824 1014 824 1064 c 0,54,55
EndSplineSet
EndChar
StartChar: nine
Encoding: 57 57 27
Width: 1229
Flags: W
LayerCount: 2
Back
Fore
SplineSet
351 198 m 2,0,1
 481 198 481 198 569.5 228.5 c 128,-1,2
 658 259 658 259 713 313 c 128,-1,3
 768 367 768 367 794.5 440.5 c 128,-1,4
 821 514 821 514 828 600 c 1,5,6
 806 575 806 575 777.5 553.5 c 128,-1,7
 749 532 749 532 713.5 515.5 c 128,-1,8
 678 499 678 499 635.5 489.5 c 128,-1,9
 593 480 593 480 542 480 c 0,10,11
 435 480 435 480 356 520.5 c 128,-1,12
 277 561 277 561 225 628.5 c 128,-1,13
 173 696 173 696 147.5 784 c 128,-1,14
 122 872 122 872 122 968 c 0,15,16
 122 1073 122 1073 153 1165.5 c 128,-1,17
 184 1258 184 1258 244 1327 c 128,-1,18
 304 1396 304 1396 391.5 1436 c 128,-1,19
 479 1476 479 1476 591 1476 c 0,20,21
 712 1476 712 1476 801.5 1428 c 128,-1,22
 891 1380 891 1380 950.5 1299 c 128,-1,23
 1010 1218 1010 1218 1039.5 1110.5 c 128,-1,24
 1069 1003 1069 1003 1069 884 c 2,25,-1
 1069 806 l 2,26,27
 1069 702 1069 702 1055.5 601.5 c 128,-1,28
 1042 501 1042 501 1009.5 410.5 c 128,-1,29
 977 320 977 320 923.5 244 c 128,-1,30
 870 168 870 168 790.5 112.5 c 128,-1,31
 711 57 711 57 602.5 25.5 c 128,-1,32
 494 -6 494 -6 352 -6 c 2,33,-1
 333 -6 l 1,34,-1
 333 198 l 1,35,-1
 351 198 l 2,0,1
591 669 m 0,36,37
 632 669 632 669 669.5 682 c 128,-1,38
 707 695 707 695 738 718 c 128,-1,39
 769 741 769 741 793 773 c 128,-1,40
 817 805 817 805 831 843 c 1,41,-1
 831 922 l 2,42,43
 831 1010 831 1010 811.5 1077.5 c 128,-1,44
 792 1145 792 1145 759 1190.5 c 128,-1,45
 726 1236 726 1236 682.5 1259 c 128,-1,46
 639 1282 639 1282 591 1282 c 0,47,48
 535 1282 535 1282 492 1258 c 128,-1,49
 449 1234 449 1234 419.5 1192.5 c 128,-1,50
 390 1151 390 1151 374.5 1095 c 128,-1,51
 359 1039 359 1039 359 975 c 0,52,53
 359 915 359 915 373 860 c 128,-1,54
 387 805 387 805 415.5 762.5 c 128,-1,55
 444 720 444 720 488 694.5 c 128,-1,56
 532 669 532 669 591 669 c 0,36,37
EndSplineSet
EndChar
StartChar: less
Encoding: 60 60 30
Width: 1229
Flags: W
LayerCount: 2
Back
Fore
SplineSet
461 656 m 1,0,-1
 396 633 l 1,1,-1
 461 611 l 1,2,-1
 1029 407 l 1,3,-1
 1029 167 l 1,4,-1
 163 540 l 1,5,-1
 163 730 l 1,6,-1
 1029 1102 l 1,7,-1
 1029 863 l 1,8,-1
 461 656 l 1,0,-1
EndSplineSet
EndChar
StartChar: greater
Encoding: 62 62 32
Width: 1229
Flags: W
LayerCount: 2
Back
Fore
SplineSet
169 867 m 1,0,-1
 169 1103 l 1,1,-1
 1062 731 l 1,2,-1
 1062 540 l 1,3,-1
 169 167 l 1,4,-1
 169 404 l 1,5,-1
 769 617 l 1,6,-1
 834 637 l 1,7,-1
 769 658 l 1,8,-1
 169 867 l 1,0,-1
EndSplineSet
EndChar
StartChar: question
Encoding: 63 63 33
Width: 1229
Flags: W
LayerCount: 2
Back
Fore
SplineSet
502 426 m 1,0,1
 502 497 502 497 506 545 c 128,-1,2
 510 593 510 593 524 630 c 128,-1,3
 538 667 538 667 566 699.5 c 128,-1,4
 594 732 594 732 643 774 c 0,5,6
 676 807 676 807 711 842.5 c 128,-1,7
 746 878 746 878 774.5 916.5 c 128,-1,8
 803 955 803 955 821.5 996 c 128,-1,9
 840 1037 840 1037 840 1081 c 0,10,11
 840 1180 840 1180 785 1228.5 c 128,-1,12
 730 1277 730 1277 626 1277 c 0,13,14
 586 1277 586 1277 547.5 1266.5 c 128,-1,15
 509 1256 509 1256 479 1234 c 128,-1,16
 449 1212 449 1212 430.5 1177.5 c 128,-1,17
 412 1143 412 1143 412 1095 c 1,18,-1
 172 1095 l 1,19,20
 173 1188 173 1188 208.5 1259.5 c 128,-1,21
 244 1331 244 1331 305 1379.5 c 128,-1,22
 366 1428 366 1428 448 1452.5 c 128,-1,23
 530 1477 530 1477 626 1477 c 0,24,25
 734 1477 734 1477 818 1451.5 c 128,-1,26
 902 1426 902 1426 960.5 1377 c 128,-1,27
 1019 1328 1019 1328 1049.5 1256 c 128,-1,28
 1080 1184 1080 1184 1080 1091 c 0,29,30
 1080 1020 1080 1020 1055.5 958.5 c 128,-1,31
 1031 897 1031 897 991.5 843 c 128,-1,32
 952 789 952 789 903 742 c 128,-1,33
 854 695 854 695 806 652 c 0,34,35
 776 622 776 622 760 598 c 128,-1,36
 744 574 744 574 736.5 549 c 128,-1,37
 729 524 729 524 728 495 c 128,-1,38
 727 466 727 466 727 426 c 1,39,-1
 502 426 l 1,0,1
471 120 m 0,40,41
 471 179 471 179 507.5 217.5 c 128,-1,42
 544 256 544 256 612 256 c 256,43,44
 680 256 680 256 717.5 217.5 c 128,-1,45
 755 179 755 179 755 120 c 0,46,47
 755 63 755 63 717.5 25.5 c 128,-1,48
 680 -12 680 -12 612 -12 c 256,49,50
 544 -12 544 -12 507.5 25.5 c 128,-1,51
 471 63 471 63 471 120 c 0,40,41
EndSplineSet
EndChar
StartChar: at
Encoding: 64 64 34
Width: 1229
Flags: W
LayerCount: 2
Back
Fore
SplineSet
1164 807 m 0,0,1
 1161 719 1161 719 1144 631 c 128,-1,2
 1127 543 1127 543 1092.5 473 c 128,-1,3
 1058 403 1058 403 1004.5 359 c 128,-1,4
 951 315 951 315 876 315 c 0,5,6
 821 315 821 315 780 342.5 c 128,-1,7
 739 370 739 370 718 421 c 1,8,9
 683 372 683 372 636.5 344 c 128,-1,10
 590 316 590 316 536 316 c 0,11,12
 483 316 483 316 442.5 341.5 c 128,-1,13
 402 367 402 367 376.5 415 c 128,-1,14
 351 463 351 463 341 530.5 c 128,-1,15
 331 598 331 598 338 682 c 0,16,17
 348 790 348 790 377 876 c 128,-1,18
 406 962 406 962 451 1022 c 128,-1,19
 496 1082 496 1082 556 1114.5 c 128,-1,20
 616 1147 616 1147 688 1147 c 0,21,22
 761 1147 761 1147 808 1122 c 128,-1,23
 855 1097 855 1097 883 1064 c 1,24,-1
 840 549 l 2,25,26
 837 514 837 514 841.5 493.5 c 128,-1,27
 846 473 846 473 854.5 462.5 c 128,-1,28
 863 452 863 452 874.5 449.5 c 128,-1,29
 886 447 886 447 897 447 c 0,30,31
 927 447 927 447 951.5 474 c 128,-1,32
 976 501 976 501 993.5 548.5 c 128,-1,33
 1011 596 1011 596 1020.5 661.5 c 128,-1,34
 1030 727 1030 727 1030 804 c 0,35,36
 1034 928 1034 928 1010.5 1022 c 128,-1,37
 987 1116 987 1116 938 1179.5 c 128,-1,38
 889 1243 889 1243 817.5 1275 c 128,-1,39
 746 1307 746 1307 655 1307 c 0,40,41
 554 1307 554 1307 472.5 1260.5 c 128,-1,42
 391 1214 391 1214 333 1131 c 128,-1,43
 275 1048 275 1048 242 934.5 c 128,-1,44
 209 821 209 821 205 686 c 0,45,46
 194 414 194 414 299 275 c 128,-1,47
 404 136 404 136 607 136 c 0,48,49
 669 136 669 136 731.5 152.5 c 128,-1,50
 794 169 794 169 839 196 c 1,51,-1
 871 67 l 1,52,53
 845 48 845 48 812.5 34 c 128,-1,54
 780 20 780 20 745 10.5 c 128,-1,55
 710 1 710 1 673.5 -3.5 c 128,-1,56
 637 -8 637 -8 604 -8 c 0,57,58
 460 -8 460 -8 354.5 41.5 c 128,-1,59
 249 91 249 91 181.5 181.5 c 128,-1,60
 114 272 114 272 82.5 400 c 128,-1,61
 51 528 51 528 56 686 c 0,62,63
 61 843 61 843 107 982 c 128,-1,64
 153 1121 153 1121 232.5 1225 c 128,-1,65
 312 1329 312 1329 421 1389.5 c 128,-1,66
 530 1450 530 1450 661 1450 c 0,67,68
 779 1450 779 1450 874.5 1404.5 c 128,-1,69
 970 1359 970 1359 1035.5 1275 c 128,-1,70
 1101 1191 1101 1191 1134.5 1072 c 128,-1,71
 1168 953 1168 953 1164 807 c 0,0,1
490 682 m 1,72,73
 485 572 485 572 508.5 518.5 c 128,-1,74
 532 465 532 465 577 465 c 0,75,76
 610 465 610 465 642 481 c 128,-1,77
 674 497 674 497 701 544 c 1,78,-1
 701 549 l 1,79,-1
 740 1000 l 1,80,81
 720 1006 720 1006 699 1006 c 0,82,83
 605 1006 605 1006 555.5 922 c 128,-1,84
 506 838 506 838 490 682 c 1,72,73
EndSplineSet
EndChar
StartChar: A
Encoding: 65 65 35
Width: 1229
Flags: W
LayerCount: 2
Back
Fore
SplineSet
855 338 m 1,0,-1
 400 338 l 1,1,-1
 300 0 l 1,2,-1
 52 0 l 1,3,-1
 525 1456 l 1,4,-1
 736 1456 l 1,5,-1
 1200 0 l 1,6,-1
 953 0 l 1,7,-1
 855 338 l 1,0,-1
461 543 m 1,8,-1
 795 543 l 1,9,-1
 630 1114 l 1,10,-1
 461 543 l 1,8,-1
EndSplineSet
Substitution2: "'smcp' Lowercase to Small Capitals lookup 0 subtable" A.smcp
EndChar
StartChar: B
Encoding: 66 66 36
Width: 1229
Flags: W
LayerCount: 2
Back
Fore
SplineSet
148 0 m 1,0,-1
 148 1456 l 1,1,-1
 613 1456 l 2,2,3
 718 1455 718 1455 809.5 1432 c 128,-1,4
 901 1409 901 1409 969.5 1361 c 128,-1,5
 1038 1313 1038 1313 1077 1238.5 c 128,-1,6
 1116 1164 1116 1164 1115 1062 c 0,7,8
 1114 954 1114 954 1055 877.5 c 128,-1,9
 996 801 996 801 896 759 c 1,10,11
 957 742 957 742 1004.5 710.5 c 128,-1,12
 1052 679 1052 679 1084 635 c 128,-1,13
 1116 591 1116 591 1133 537.5 c 128,-1,14
 1150 484 1150 484 1150 424 c 0,15,16
 1150 320 1150 320 1112 241 c 128,-1,17
 1074 162 1074 162 1006.5 109 c 128,-1,18
 939 56 939 56 846.5 28.5 c 128,-1,19
 754 1 754 1 647 0 c 2,20,-1
 148 0 l 1,0,-1
389 660 m 1,21,-1
 389 196 l 1,22,-1
 651 196 l 2,23,24
 708 197 708 197 755 213.5 c 128,-1,25
 802 230 802 230 836 259 c 128,-1,26
 870 288 870 288 889.5 330 c 128,-1,27
 909 372 909 372 909 424 c 0,28,29
 909 479 909 479 892 522.5 c 128,-1,30
 875 566 875 566 843 596 c 128,-1,31
 811 626 811 626 765 642.5 c 128,-1,32
 719 659 719 659 662 660 c 2,33,-1
 389 660 l 1,21,-1
389 843 m 1,34,-1
 619 843 l 2,35,36
 673 844 673 844 719.5 857.5 c 128,-1,37
 766 871 766 871 800 897.5 c 128,-1,38
 834 924 834 924 854 962.5 c 128,-1,39
 874 1001 874 1001 874 1051 c 0,40,41
 874 1106 874 1106 855 1145 c 128,-1,42
 836 1184 836 1184 801.5 1209 c 128,-1,43
 767 1234 767 1234 720 1245.5 c 128,-1,44
 673 1257 673 1257 617 1258 c 2,45,-1
 389 1258 l 1,46,-1
 389 843 l 1,34,-1
EndSplineSet
Substitution2: "'smcp' Lowercase to Small Capitals lookup 0 subtable" B.smcp
EndChar
StartChar: C
Encoding: 67 67 37
Width: 1229
Flags: W
LayerCount: 2
Back
Fore
SplineSet
1132 447 m 1,0,1
 1122 342 1122 342 1082 255.5 c 128,-1,2
 1042 169 1042 169 976 107.5 c 128,-1,3
 910 46 910 46 820.5 12.5 c 128,-1,4
 731 -21 731 -21 621 -21 c 0,5,6
 488 -21 488 -21 389 30.5 c 128,-1,7
 290 82 290 82 224 170 c 128,-1,8
 158 258 158 258 125 376 c 128,-1,9
 92 494 92 494 91 628 c 2,10,-1
 91 827 l 2,11,12
 92 960 92 960 126 1078.5 c 128,-1,13
 160 1197 160 1197 226.5 1285.5 c 128,-1,14
 293 1374 293 1374 392 1425.5 c 128,-1,15
 491 1477 491 1477 622 1477 c 0,16,17
 737 1477 737 1477 827 1443 c 128,-1,18
 917 1409 917 1409 981 1347 c 128,-1,19
 1045 1285 1045 1285 1083 1196 c 128,-1,20
 1121 1107 1121 1107 1132 998 c 1,21,-1
 892 998 l 1,22,23
 886 1062 886 1062 867.5 1114.5 c 128,-1,24
 849 1167 849 1167 817 1204.5 c 128,-1,25
 785 1242 785 1242 736.5 1262 c 128,-1,26
 688 1282 688 1282 622 1282 c 0,27,28
 541 1282 541 1282 486 1245 c 128,-1,29
 431 1208 431 1208 397 1145.5 c 128,-1,30
 363 1083 363 1083 348.5 1001 c 128,-1,31
 334 919 334 919 334 829 c 2,32,-1
 334 628 l 2,33,34
 334 534 334 534 348.5 451.5 c 128,-1,35
 363 369 363 369 396 307 c 128,-1,36
 429 245 429 245 484 209 c 128,-1,37
 539 173 539 173 621 173 c 0,38,39
 747 173 747 173 813 244.5 c 128,-1,40
 879 316 879 316 891 447 c 1,41,-1
 1132 447 l 1,0,1
EndSplineSet
Substitution2: "'smcp' Lowercase to Small Capitals lookup 0 subtable" C.smcp
EndChar
StartChar: D
Encoding: 68 68 38
Width: 1229
Flags: W
LayerCount: 2
Back
Fore
SplineSet
137 0 m 1,0,-1
 137 1456 l 1,1,-1
 493 1456 l 2,2,3
 643 1455 643 1455 762.5 1406 c 128,-1,4
 882 1357 882 1357 965.5 1268 c 128,-1,5
 1049 1179 1049 1179 1094 1055.5 c 128,-1,6
 1139 932 1139 932 1140 782 c 2,7,-1
 1140 672 l 2,8,9
 1139 522 1139 522 1094 398.5 c 128,-1,10
 1049 275 1049 275 966 186.5 c 128,-1,11
 883 98 883 98 765 49 c 128,-1,12
 647 0 647 0 500 0 c 2,13,-1
 137 0 l 1,0,-1
381 1262 m 1,14,-1
 381 193 l 1,15,-1
 500 193 l 2,16,17
 599 194 599 194 673 228.5 c 128,-1,18
 747 263 747 263 796.5 325.5 c 128,-1,19
 846 388 846 388 870.5 476 c 128,-1,20
 895 564 895 564 896 672 c 2,21,-1
 896 784 l 2,22,23
 895 889 895 889 870.5 976 c 128,-1,24
 846 1063 846 1063 796 1126.5 c 128,-1,25
 746 1190 746 1190 670.5 1225.5 c 128,-1,26
 595 1261 595 1261 493 1262 c 2,27,-1
 381 1262 l 1,14,-1
EndSplineSet
Substitution2: "'smcp' Lowercase to Small Capitals lookup 0 subtable" D.smcp
EndChar
StartChar: E
Encoding: 69 69 39
Width: 1229
Flags: W
LayerCount: 2
Back
Fore
SplineSet
1002 653 m 1,0,-1
 403 653 l 1,1,-1
 403 196 l 1,2,-1
 1104 196 l 1,3,-1
 1104 0 l 1,4,-1
 162 0 l 1,5,-1
 162 1456 l 1,6,-1
 1097 1456 l 1,7,-1
 1097 1258 l 1,8,-1
 403 1258 l 1,9,-1
 403 847 l 1,10,-1
 1002 847 l 1,11,-1
 1002 653 l 1,0,-1
EndSplineSet
Substitution2: "'smcp' Lowercase to Small Capitals lookup 0 subtable" E.smcp
EndChar
StartChar: G
Encoding: 71 71 41
Width: 1229
Flags: W
LayerCount: 2
Back
Fore
SplineSet
1126 182 m 1,0,1
 1089 138 1089 138 1039 101 c 128,-1,2
 989 64 989 64 927 37 c 128,-1,3
 865 10 865 10 792.5 -5 c 128,-1,4
 720 -20 720 -20 638 -20 c 0,5,6
 507 -20 507 -20 406 31 c 128,-1,7
 305 82 305 82 235.5 170.5 c 128,-1,8
 166 259 166 259 129.5 379 c 128,-1,9
 93 499 93 499 92 637 c 2,10,-1
 92 817 l 2,11,12
 92 955 92 955 128 1075 c 128,-1,13
 164 1195 164 1195 231.5 1284 c 128,-1,14
 299 1373 299 1373 397 1424.5 c 128,-1,15
 495 1476 495 1476 621 1476 c 0,16,17
 734 1476 734 1476 823 1445 c 128,-1,18
 912 1414 912 1414 976 1355.5 c 128,-1,19
 1040 1297 1040 1297 1077.5 1213 c 128,-1,20
 1115 1129 1115 1129 1125 1025 c 1,21,-1
 889 1025 l 1,22,23
 880 1084 880 1084 861 1131 c 128,-1,24
 842 1178 842 1178 810 1211 c 128,-1,25
 778 1244 778 1244 732.5 1261.5 c 128,-1,26
 687 1279 687 1279 625 1279 c 0,27,28
 549 1279 549 1279 494.5 1241.5 c 128,-1,29
 440 1204 440 1204 404 1140.5 c 128,-1,30
 368 1077 368 1077 351 993.5 c 128,-1,31
 334 910 334 910 333 819 c 2,32,-1
 333 637 l 2,33,34
 334 546 334 546 351.5 463 c 128,-1,35
 369 380 369 380 406.5 316.5 c 128,-1,36
 444 253 444 253 503 215 c 128,-1,37
 562 177 562 177 645 176 c 0,38,39
 679 176 679 176 715 180.5 c 128,-1,40
 751 185 751 185 783.5 195 c 128,-1,41
 816 205 816 205 843 220.5 c 128,-1,42
 870 236 870 236 887 259 c 1,43,-1
 889 550 l 1,44,-1
 626 550 l 1,45,-1
 626 737 l 1,46,-1
 1124 737 l 1,47,-1
 1126 182 l 1,0,1
EndSplineSet
Substitution2: "'smcp' Lowercase to Small Capitals lookup 0 subtable" G.smcp
EndChar
StartChar: H
Encoding: 72 72 42
Width: 1229
Flags: W
LayerCount: 2
Back
Fore
SplineSet
1092 0 m 1,0,-1
 858 0 l 1,1,-1
 858 650 l 1,2,-1
 363 650 l 1,3,-1
 363 0 l 1,4,-1
 130 0 l 1,5,-1
 130 1456 l 1,6,-1
 363 1456 l 1,7,-1
 363 847 l 1,8,-1
 858 847 l 1,9,-1
 858 1456 l 1,10,-1
 1092 1456 l 1,11,-1
 1092 0 l 1,0,-1
EndSplineSet
Substitution2: "'smcp' Lowercase to Small Capitals lookup 0 subtable" H.smcp
EndChar
StartChar: I
Encoding: 73 73 43
Width: 1229
Flags: W
LayerCount: 2
Back
Fore
SplineSet
181 1456 m 1,0,-1
 1047 1456 l 1,1,-1
 1047 1257 l 1,2,-1
 732 1257 l 1,3,-1
 732 198 l 1,4,-1
 1047 198 l 1,5,-1
 1047 0 l 1,6,-1
 181 0 l 1,7,-1
 181 198 l 1,8,-1
 489 198 l 1,9,-1
 489 1257 l 1,10,-1
 181 1257 l 1,11,-1
 181 1456 l 1,0,-1
EndSplineSet
Substitution2: "'smcp' Lowercase to Small Capitals lookup 0 subtable" I.smcp
EndChar
StartChar: J
Encoding: 74 74 44
Width: 1229
Flags: W
LayerCount: 2
Back
Fore
SplineSet
832 1456 m 1,0,-1
 1075 1456 l 1,1,-1
 1076 445 l 2,2,3
 1074 343 1074 343 1036.5 257.5 c 128,-1,4
 999 172 999 172 933.5 110.5 c 128,-1,5
 868 49 868 49 780 14.5 c 128,-1,6
 692 -20 692 -20 589 -20 c 0,7,8
 482 -20 482 -20 395 9.5 c 128,-1,9
 308 39 308 39 245 95.5 c 128,-1,10
 182 152 182 152 145 235 c 128,-1,11
 108 318 108 318 103 425 c 1,12,-1
 345 425 l 1,13,14
 350 307 350 307 411.5 241.5 c 128,-1,15
 473 176 473 176 589 176 c 0,16,17
 644 176 644 176 689 197 c 128,-1,18
 734 218 734 218 765.5 255 c 128,-1,19
 797 292 797 292 814 340.5 c 128,-1,20
 831 389 831 389 832 445 c 2,21,-1
 832 1456 l 1,0,-1
EndSplineSet
Substitution2: "'smcp' Lowercase to Small Capitals lookup 0 subtable" J.smcp
EndChar
StartChar: K
Encoding: 75 75 45
Width: 1229
Flags: W
LayerCount: 2
Back
Fore
SplineSet
546 633 m 1,0,-1
 390 458 l 1,1,-1
 390 0 l 1,2,-1
 147 0 l 1,3,-1
 147 1456 l 1,4,-1
 390 1456 l 1,5,-1
 390 774 l 1,6,-1
 523 947 l 1,7,-1
 906 1456 l 1,8,-1
 1199 1456 l 1,9,-1
 704 817 l 1,10,-1
 1224 0 l 1,11,-1
 936 0 l 1,12,-1
 546 633 l 1,0,-1
EndSplineSet
Substitution2: "'smcp' Lowercase to Small Capitals lookup 0 subtable" K.smcp
EndChar
StartChar: L
Encoding: 76 76 46
Width: 1229
Flags: W
LayerCount: 2
Back
Fore
SplineSet
412 196 m 1,0,-1
 1106 196 l 1,1,-1
 1106 0 l 1,2,-1
 172 0 l 1,3,-1
 172 1456 l 1,4,-1
 412 1456 l 1,5,-1
 412 196 l 1,0,-1
EndSplineSet
Substitution2: "'smcp' Lowercase to Small Capitals lookup 0 subtable" L.smcp
EndChar
StartChar: M
Encoding: 77 77 47
Width: 1229
Flags: W
LayerCount: 2
Back
Fore
SplineSet
433 1456 m 1,0,-1
 614 827 l 1,1,-1
 814 1456 l 1,2,-1
 1112 1456 l 1,3,-1
 1112 0 l 1,4,-1
 886 0 l 1,5,-1
 886 500 l 1,6,-1
 900 1138 l 1,7,-1
 676 440 l 1,8,-1
 550 440 l 1,9,-1
 347 1114 l 1,10,-1
 361 500 l 1,11,-1
 361 0 l 1,12,-1
 135 0 l 1,13,-1
 135 1456 l 1,14,-1
 433 1456 l 1,0,-1
EndSplineSet
Substitution2: "'smcp' Lowercase to Small Capitals lookup 0 subtable" M.smcp
EndChar
StartChar: N
Encoding: 78 78 48
Width: 1229
Flags: W
LayerCount: 2
Back
Fore
SplineSet
1091 0 m 1,0,-1
 849 0 l 1,1,-1
 375 1002 l 1,2,-1
 374 0 l 1,3,-1
 131 0 l 1,4,-1
 131 1456 l 1,5,-1
 374 1456 l 1,6,-1
 846 457 l 1,7,-1
 848 1456 l 1,8,-1
 1091 1456 l 1,9,-1
 1091 0 l 1,0,-1
EndSplineSet
Substitution2: "'smcp' Lowercase to Small Capitals lookup 0 subtable" N.smcp
EndChar
StartChar: O
Encoding: 79 79 49
Width: 1229
Flags: W
LayerCount: 2
Back
Fore
SplineSet
1136 634 m 2,0,1
 1136 505 1136 505 1103 386.5 c 128,-1,2
 1070 268 1070 268 1004.5 177.5 c 128,-1,3
 939 87 939 87 840.5 33.5 c 128,-1,4
 742 -20 742 -20 610 -20 c 0,5,6
 479 -20 479 -20 382 34 c 128,-1,7
 285 88 285 88 220.5 178.5 c 128,-1,8
 156 269 156 269 123.5 387 c 128,-1,9
 91 505 91 505 91 634 c 2,10,-1
 91 820 l 2,11,12
 91 906 91 906 105.5 988 c 128,-1,13
 120 1070 120 1070 148.5 1142.5 c 128,-1,14
 177 1215 177 1215 219.5 1276.5 c 128,-1,15
 262 1338 262 1338 319.5 1382 c 128,-1,16
 377 1426 377 1426 449.5 1451 c 128,-1,17
 522 1476 522 1476 609 1476 c 0,18,19
 741 1476 741 1476 839.5 1422 c 128,-1,20
 938 1368 938 1368 1004 1277.5 c 128,-1,21
 1070 1187 1070 1187 1103 1068 c 128,-1,22
 1136 949 1136 949 1136 820 c 2,23,-1
 1136 634 l 2,0,1
895 822 m 2,24,25
 894 904 894 904 880 985 c 128,-1,26
 866 1066 866 1066 833 1129.5 c 128,-1,27
 800 1193 800 1193 745.5 1232.5 c 128,-1,28
 691 1272 691 1272 609 1272 c 0,29,30
 528 1272 528 1272 474.5 1232.5 c 128,-1,31
 421 1193 421 1193 389.5 1129 c 128,-1,32
 358 1065 358 1065 345.5 984.5 c 128,-1,33
 333 904 333 904 332 822 c 2,34,-1
 332 634 l 2,35,36
 333 552 333 552 346 471.5 c 128,-1,37
 359 391 359 391 390.5 326.5 c 128,-1,38
 422 262 422 262 475.5 222 c 128,-1,39
 529 182 529 182 610 182 c 0,40,41
 692 182 692 182 746.5 222 c 128,-1,42
 801 262 801 262 834 326 c 128,-1,43
 867 390 867 390 880.5 471 c 128,-1,44
 894 552 894 552 895 634 c 2,45,-1
 895 822 l 2,24,25
EndSplineSet
Substitution2: "'smcp' Lowercase to Small Capitals lookup 0 subtable" O.smcp
EndChar
StartChar: P
Encoding: 80 80 50
Width: 1229
Flags: W
LayerCount: 2
Back
Fore
SplineSet
407 558 m 1,0,-1
 407 0 l 1,1,-1
 167 0 l 1,2,-1
 167 1456 l 1,3,-1
 654 1456 l 2,4,5
 763 1455 763 1455 855.5 1423.5 c 128,-1,6
 948 1392 948 1392 1015 1333.5 c 128,-1,7
 1082 1275 1082 1275 1119.5 1191.5 c 128,-1,8
 1157 1108 1157 1108 1157 1003 c 0,9,10
 1157 901 1157 901 1119.5 819 c 128,-1,11
 1082 737 1082 737 1015 679 c 128,-1,12
 948 621 948 621 855.5 590 c 128,-1,13
 763 559 763 559 654 558 c 2,14,-1
 407 558 l 1,0,-1
407 752 m 1,15,-1
 654 752 l 2,16,17
 715 752 715 752 763 770.5 c 128,-1,18
 811 789 811 789 845 822 c 128,-1,19
 879 855 879 855 897 901 c 128,-1,20
 915 947 915 947 915 1001 c 0,21,22
 915 1058 915 1058 897 1106 c 128,-1,23
 879 1154 879 1154 845 1188.5 c 128,-1,24
 811 1223 811 1223 763 1242 c 128,-1,25
 715 1261 715 1261 654 1262 c 2,26,-1
 407 1262 l 1,27,-1
 407 752 l 1,15,-1
EndSplineSet
Substitution2: "'smcp' Lowercase to Small Capitals lookup 0 subtable" P.smcp
EndChar
StartChar: Q
Encoding: 81 81 51
Width: 1229
Flags: W
LayerCount: 2
Back
Fore
SplineSet
1146 622 m 2,0,1
 1146 548 1146 548 1133 476 c 128,-1,2
 1120 404 1120 404 1095.5 337 c 128,-1,3
 1071 270 1071 270 1033.5 211.5 c 128,-1,4
 996 153 996 153 947 107 c 1,5,-1
 1195 -106 l 1,6,-1
 1036 -251 l 1,7,-1
 752 -2 l 1,8,9
 720 -10 720 -10 685.5 -15 c 128,-1,10
 651 -20 651 -20 613 -20 c 0,11,12
 480 -20 480 -20 381.5 35.5 c 128,-1,13
 283 91 283 91 218 181.5 c 128,-1,14
 153 272 153 272 121 387 c 128,-1,15
 89 502 89 502 88 622 c 2,16,-1
 88 808 l 2,17,18
 89 895 89 895 103 978.5 c 128,-1,19
 117 1062 117 1062 146 1136.5 c 128,-1,20
 175 1211 175 1211 218 1273 c 128,-1,21
 261 1335 261 1335 319 1380.5 c 128,-1,22
 377 1426 377 1426 450.5 1451 c 128,-1,23
 524 1476 524 1476 613 1476 c 0,24,25
 747 1476 747 1476 847 1421 c 128,-1,26
 947 1366 947 1366 1013 1273.5 c 128,-1,27
 1079 1181 1079 1181 1112 1060 c 128,-1,28
 1145 939 1145 939 1146 808 c 2,29,-1
 1146 622 l 2,0,1
904 810 m 2,30,31
 904 895 904 895 890.5 978 c 128,-1,32
 877 1061 877 1061 844 1126 c 128,-1,33
 811 1191 811 1191 754.5 1231.5 c 128,-1,34
 698 1272 698 1272 613 1272 c 256,35,36
 528 1272 528 1272 473.5 1231.5 c 128,-1,37
 419 1191 419 1191 387 1125.5 c 128,-1,38
 355 1060 355 1060 342.5 977 c 128,-1,39
 330 894 330 894 330 810 c 2,40,-1
 330 622 l 2,41,42
 330 548 330 548 342.5 470.5 c 128,-1,43
 355 393 355 393 387 328.5 c 128,-1,44
 419 264 419 264 473.5 223 c 128,-1,45
 528 182 528 182 613 182 c 0,46,47
 699 182 699 182 755 223 c 128,-1,48
 811 264 811 264 844 328 c 128,-1,49
 877 392 877 392 890.5 470 c 128,-1,50
 904 548 904 548 904 622 c 2,51,-1
 904 810 l 2,30,31
EndSplineSet
Substitution2: "'smcp' Lowercase to Small Capitals lookup 0 subtable" Q.smcp
EndChar
StartChar: R
Encoding: 82 82 52
Width: 1229
Flags: W
LayerCount: 2
Back
Fore
SplineSet
637 568 m 1,0,-1
 393 568 l 1,1,-1
 393 0 l 1,2,-1
 153 0 l 1,3,-1
 153 1456 l 1,4,-1
 613 1456 l 2,5,6
 725 1455 725 1455 819.5 1427.5 c 128,-1,7
 914 1400 914 1400 983 1345.5 c 128,-1,8
 1052 1291 1052 1291 1090 1209 c 128,-1,9
 1128 1127 1128 1127 1128 1017 c 0,10,11
 1128 943 1128 943 1108.5 882.5 c 128,-1,12
 1089 822 1089 822 1054 773 c 128,-1,13
 1019 724 1019 724 970 687 c 128,-1,14
 921 650 921 650 862 624 c 1,15,-1
 1170 12 l 1,16,-1
 1170 0 l 1,17,-1
 914 0 l 1,18,-1
 637 568 l 1,0,-1
393 762 m 1,19,-1
 614 762 l 2,20,21
 674 762 674 762 724 779 c 128,-1,22
 774 796 774 796 810.5 827.5 c 128,-1,23
 847 859 847 859 867 904.5 c 128,-1,24
 887 950 887 950 887 1009 c 0,25,26
 887 1070 887 1070 868 1117 c 128,-1,27
 849 1164 849 1164 813.5 1196 c 128,-1,28
 778 1228 778 1228 727 1244.5 c 128,-1,29
 676 1261 676 1261 613 1262 c 2,30,-1
 393 1262 l 1,31,-1
 393 762 l 1,19,-1
EndSplineSet
Substitution2: "'smcp' Lowercase to Small Capitals lookup 0 subtable" R.smcp
EndChar
StartChar: S
Encoding: 83 83 53
Width: 1229
Flags: W
LayerCount: 2
Back
Fore
SplineSet
905 375 m 0,0,1
 905 427 905 427 883.5 466.5 c 128,-1,2
 862 506 862 506 822.5 536 c 128,-1,3
 783 566 783 566 728.5 588.5 c 128,-1,4
 674 611 674 611 610 630 c 0,5,6
 524 655 524 655 440.5 692 c 128,-1,7
 357 729 357 729 291.5 782.5 c 128,-1,8
 226 836 226 836 185.5 907.5 c 128,-1,9
 145 979 145 979 145 1073 c 256,10,11
 145 1167 145 1167 185.5 1241.5 c 128,-1,12
 226 1316 226 1316 294 1368 c 128,-1,13
 362 1420 362 1420 452 1448 c 128,-1,14
 542 1476 542 1476 640 1476 c 0,15,16
 745 1476 745 1476 836.5 1443.5 c 128,-1,17
 928 1411 928 1411 996.5 1352.5 c 128,-1,18
 1065 1294 1065 1294 1105 1212.5 c 128,-1,19
 1145 1131 1145 1131 1146 1032 c 1,20,-1
 906 1032 l 1,21,22
 901 1087 901 1087 882.5 1132.5 c 128,-1,23
 864 1178 864 1178 830.5 1211 c 128,-1,24
 797 1244 797 1244 749 1262 c 128,-1,25
 701 1280 701 1280 638 1280 c 0,26,27
 584 1280 584 1280 538 1266 c 128,-1,28
 492 1252 492 1252 458.5 1225 c 128,-1,29
 425 1198 425 1198 406 1160 c 128,-1,30
 387 1122 387 1122 387 1074 c 0,31,32
 387 1023 387 1023 413 985.5 c 128,-1,33
 439 948 439 948 481 920 c 128,-1,34
 523 892 523 892 577.5 871.5 c 128,-1,35
 632 851 632 851 691 834 c 0,36,37
 782 807 782 807 865 767.5 c 128,-1,38
 948 728 948 728 1011 672.5 c 128,-1,39
 1074 617 1074 617 1111 544 c 128,-1,40
 1148 471 1148 471 1148 377 c 0,41,42
 1148 280 1148 280 1107 206 c 128,-1,43
 1066 132 1066 132 997 82 c 128,-1,44
 928 32 928 32 837 6.5 c 128,-1,45
 746 -19 746 -19 647 -19 c 0,46,47
 580 -19 580 -19 514 -6 c 128,-1,48
 448 7 448 7 387.5 33 c 128,-1,49
 327 59 327 59 275 97.5 c 128,-1,50
 223 136 223 136 184.5 186.5 c 128,-1,51
 146 237 146 237 124 299.5 c 128,-1,52
 102 362 102 362 101 437 c 1,53,-1
 342 437 l 1,54,55
 347 371 347 371 371 322 c 128,-1,56
 395 273 395 273 435 240.5 c 128,-1,57
 475 208 475 208 528.5 191.5 c 128,-1,58
 582 175 582 175 647 175 c 0,59,60
 701 175 701 175 748 188 c 128,-1,61
 795 201 795 201 830 226.5 c 128,-1,62
 865 252 865 252 885 289.5 c 128,-1,63
 905 327 905 327 905 375 c 0,0,1
EndSplineSet
Substitution2: "'smcp' Lowercase to Small Capitals lookup 0 subtable" S.smcp
EndChar
StartChar: U
Encoding: 85 85 55
Width: 1229
Flags: W
LayerCount: 2
Back
Fore
SplineSet
1096 1456 m 1,0,-1
 1098 481 l 2,1,2
 1097 369 1097 369 1062 276.5 c 128,-1,3
 1027 184 1027 184 964 118 c 128,-1,4
 901 52 901 52 811.5 16 c 128,-1,5
 722 -20 722 -20 611 -20 c 0,6,7
 503 -20 503 -20 415 16 c 128,-1,8
 327 52 327 52 264 117.5 c 128,-1,9
 201 183 201 183 166 275.5 c 128,-1,10
 131 368 131 368 130 481 c 2,11,-1
 132 1456 l 1,12,-1
 368 1456 l 1,13,-1
 370 481 l 2,14,15
 371 414 371 414 387 358 c 128,-1,16
 403 302 403 302 433 261.5 c 128,-1,17
 463 221 463 221 507.5 198.5 c 128,-1,18
 552 176 552 176 611 176 c 0,19,20
 671 176 671 176 717 198.5 c 128,-1,21
 763 221 763 221 794 261.5 c 128,-1,22
 825 302 825 302 841 358 c 128,-1,23
 857 414 857 414 858 481 c 2,24,-1
 860 1456 l 1,25,-1
 1096 1456 l 1,0,-1
EndSplineSet
Substitution2: "'smcp' Lowercase to Small Capitals lookup 0 subtable" U.smcp
EndChar
StartChar: V
Encoding: 86 86 56
Width: 1229
Flags: W
LayerCount: 2
Back
Fore
SplineSet
612 365 m 1,0,-1
 915 1456 l 1,1,-1
 1177 1456 l 1,2,-1
 727 0 l 1,3,-1
 498 0 l 1,4,-1
 49 1456 l 1,5,-1
 311 1456 l 1,6,-1
 612 365 l 1,0,-1
EndSplineSet
Substitution2: "'smcp' Lowercase to Small Capitals lookup 0 subtable" V.smcp
EndChar
StartChar: W
Encoding: 87 87 57
Width: 1229
Flags: W
LayerCount: 2
Back
Fore
SplineSet
867 501 m 1,0,-1
 971 1456 l 1,1,-1
 1195 1456 l 1,2,-1
 1009 0 l 1,3,-1
 779 0 l 1,4,-1
 620 968 l 1,5,-1
 463 0 l 1,6,-1
 234 0 l 1,7,-1
 48 1456 l 1,8,-1
 272 1456 l 1,9,-1
 376 506 l 1,10,-1
 525 1456 l 1,11,-1
 713 1456 l 1,12,-1
 867 501 l 1,0,-1
EndSplineSet
Substitution2: "'smcp' Lowercase to Small Capitals lookup 0 subtable" W.smcp
EndChar
StartChar: X
Encoding: 88 88 58
Width: 1229
Flags: W
LayerCount: 2
Back
Fore
SplineSet
624 914 m 1,0,-1
 904 1456 l 1,1,-1
 1187 1456 l 1,2,-1
 772 734 l 1,3,-1
 1197 0 l 1,4,-1
 916 0 l 1,5,-1
 628 551 l 1,6,-1
 340 0 l 1,7,-1
 56 0 l 1,8,-1
 481 734 l 1,9,-1
 67 1456 l 1,10,-1
 348 1456 l 1,11,-1
 624 914 l 1,0,-1
EndSplineSet
Substitution2: "'smcp' Lowercase to Small Capitals lookup 0 subtable" X.smcp
EndChar
StartChar: Y
Encoding: 89 89 59
Width: 1229
Flags: W
LayerCount: 2
Back
Fore
SplineSet
616 760 m 1,0,-1
 919 1456 l 1,1,-1
 1187 1456 l 1,2,-1
 733 523 l 1,3,-1
 731 0 l 1,4,-1
 498 0 l 1,5,-1
 496 529 l 1,6,-1
 45 1456 l 1,7,-1
 313 1456 l 1,8,-1
 616 760 l 1,0,-1
EndSplineSet
Substitution2: "'smcp' Lowercase to Small Capitals lookup 0 subtable" Y.smcp
EndChar
StartChar: Z
Encoding: 90 90 60
Width: 1229
Flags: W
LayerCount: 2
Back
Fore
SplineSet
383 196 m 1,0,-1
 1118 196 l 1,1,-1
 1118 0 l 1,2,-1
 101 0 l 1,3,-1
 100 162 l 1,4,-1
 812 1258 l 1,5,-1
 106 1258 l 1,6,-1
 106 1456 l 1,7,-1
 1095 1456 l 1,8,-1
 1096 1298 l 1,9,-1
 383 196 l 1,0,-1
EndSplineSet
Substitution2: "'smcp' Lowercase to Small Capitals lookup 0 subtable" Z.smcp
EndChar
StartChar: bracketleft
Encoding: 91 91 61
Width: 1229
Flags: W
LayerCount: 2
Back
Fore
SplineSet
837 1489 m 1,0,-1
 643 1489 l 1,1,-1
 643 -136 l 1,2,-1
 837 -136 l 1,3,-1
 837 -323 l 1,4,-1
 410 -323 l 1,5,-1
 410 1677 l 1,6,-1
 837 1677 l 1,7,-1
 837 1489 l 1,0,-1
EndSplineSet
EndChar
StartChar: bracketright
Encoding: 93 93 63
Width: 1229
Flags: W
LayerCount: 2
Back
Fore
SplineSet
400 1677 m 1,0,-1
 828 1677 l 1,1,-1
 828 -323 l 1,2,-1
 400 -323 l 1,3,-1
 400 -136 l 1,4,-1
 595 -136 l 1,5,-1
 595 1489 l 1,6,-1
 400 1489 l 1,7,-1
 400 1677 l 1,0,-1
EndSplineSet
EndChar
StartChar: asciicircum
Encoding: 94 94 64
Width: 1229
Flags: W
LayerCount: 2
Back
Fore
SplineSet
425 683 m 1,0,-1
 220 683 l 1,1,-1
 539 1456 l 1,2,-1
 708 1456 l 1,3,-1
 1026 683 l 1,4,-1
 822 683 l 1,5,-1
 642 1141 l 1,6,-1
 622 1225 l 1,7,-1
 602 1141 l 1,8,-1
 425 683 l 1,0,-1
EndSplineSet
EndChar
StartChar: grave
Encoding: 96 96 66
Width: 1229
Flags: W
LayerCount: 2
Back
Fore
SplineSet
858 1205 m 1,0,-1
 668 1205 l 1,1,-1
 409 1478 l 1,2,-1
 682 1478 l 1,3,-1
 858 1205 l 1,0,-1
EndSplineSet
EndChar
StartChar: a
Encoding: 97 97 67
Width: 1229
Flags: W
LayerCount: 2
Back
Fore
SplineSet
845 0 m 1,0,1
 835 20 835 20 828.5 47 c 128,-1,2
 822 74 822 74 817 105 c 1,3,4
 792 79 792 79 760.5 56.5 c 128,-1,5
 729 34 729 34 690.5 17 c 128,-1,6
 652 0 652 0 607.5 -10 c 128,-1,7
 563 -20 563 -20 512 -20 c 0,8,9
 426 -20 426 -20 356.5 4.5 c 128,-1,10
 287 29 287 29 237.5 72.5 c 128,-1,11
 188 116 188 116 161 175 c 128,-1,12
 134 234 134 234 134 303 c 0,13,14
 134 477 134 477 263.5 569 c 128,-1,15
 393 661 393 661 635 661 c 2,16,-1
 810 661 l 1,17,-1
 810 732 l 2,18,19
 810 818 810 818 752 868.5 c 128,-1,20
 694 919 694 919 588 919 c 0,21,22
 540 919 540 919 504 907.5 c 128,-1,23
 468 896 468 896 444 876 c 128,-1,24
 420 856 420 856 408 829 c 128,-1,25
 396 802 396 802 396 771 c 1,26,-1
 157 771 l 1,27,28
 157 834 157 834 186.5 893.5 c 128,-1,29
 216 953 216 953 273 999.5 c 128,-1,30
 330 1046 330 1046 412.5 1074 c 128,-1,31
 495 1102 495 1102 601 1102 c 0,32,33
 697 1102 697 1102 779 1078.5 c 128,-1,34
 861 1055 861 1055 921 1008.5 c 128,-1,35
 981 962 981 962 1015 892.5 c 128,-1,36
 1049 823 1049 823 1049 730 c 2,37,-1
 1049 248 l 2,38,39
 1049 177 1049 177 1059.5 118.5 c 128,-1,40
 1070 60 1070 60 1090 17 c 1,41,-1
 1090 0 l 1,42,-1
 845 0 l 1,0,1
557 173 m 0,43,44
 603 173 603 173 643.5 184.5 c 128,-1,45
 684 196 684 196 716.5 214.5 c 128,-1,46
 749 233 749 233 772.5 257 c 128,-1,47
 796 281 796 281 810 306 c 1,48,-1
 810 509 l 1,49,-1
 658 509 l 2,50,51
 512 509 512 509 442.5 462 c 128,-1,52
 373 415 373 415 373 328 c 0,53,54
 373 295 373 295 384 266.5 c 128,-1,55
 395 238 395 238 417.5 217.5 c 128,-1,56
 440 197 440 197 474.5 185 c 128,-1,57
 509 173 509 173 557 173 c 0,43,44
EndSplineSet
Substitution2: "'smcp' Lowercase to Small Capitals lookup 0 subtable" A.smcp
EndChar
StartChar: b
Encoding: 98 98 68
Width: 1229
Flags: W
LayerCount: 2
Back
Fore
SplineSet
1106 529 m 2,0,1
 1106 409 1106 409 1078.5 308.5 c 128,-1,2
 1051 208 1051 208 997 135 c 128,-1,3
 943 62 943 62 864 21 c 128,-1,4
 785 -20 785 -20 682 -20 c 0,5,6
 583 -20 583 -20 510.5 15 c 128,-1,7
 438 50 438 50 386 116 c 1,8,-1
 375 0 l 1,9,-1
 158 0 l 1,10,-1
 158 1536 l 1,11,-1
 397 1536 l 1,12,-1
 397 979 l 1,13,14
 448 1038 448 1038 517 1070 c 128,-1,15
 586 1102 586 1102 680 1102 c 0,16,17
 784 1102 784 1102 863.5 1061.5 c 128,-1,18
 943 1021 943 1021 997 948 c 128,-1,19
 1051 875 1051 875 1078.5 773.5 c 128,-1,20
 1106 672 1106 672 1106 550 c 2,21,-1
 1106 529 l 2,0,1
867 550 m 2,22,23
 867 622 867 622 854.5 686.5 c 128,-1,24
 842 751 842 751 813.5 800 c 128,-1,25
 785 849 785 849 737 877.5 c 128,-1,26
 689 906 689 906 619 906 c 0,27,28
 534 906 534 906 480 867 c 128,-1,29
 426 828 426 828 397 765 c 1,30,-1
 397 318 l 1,31,32
 426 255 426 255 480.5 215 c 128,-1,33
 535 175 535 175 621 175 c 0,34,35
 689 175 689 175 736 202.5 c 128,-1,36
 783 230 783 230 812 278 c 128,-1,37
 841 326 841 326 854 390.5 c 128,-1,38
 867 455 867 455 867 529 c 2,39,-1
 867 550 l 2,22,23
EndSplineSet
Substitution2: "'smcp' Lowercase to Small Capitals lookup 0 subtable" B.smcp
EndChar
StartChar: c
Encoding: 99 99 69
Width: 1229
Flags: W
LayerCount: 2
Back
Fore
SplineSet
628 170 m 0,0,1
 672 170 672 170 713.5 184 c 128,-1,2
 755 198 755 198 787 223 c 128,-1,3
 819 248 819 248 837.5 282 c 128,-1,4
 856 316 856 316 855 356 c 1,5,-1
 1081 356 l 1,6,7
 1082 278 1082 278 1045.5 209.5 c 128,-1,8
 1009 141 1009 141 946.5 90 c 128,-1,9
 884 39 884 39 802 9 c 128,-1,10
 720 -21 720 -21 630 -21 c 0,11,12
 505 -21 505 -21 411 22 c 128,-1,13
 317 65 317 65 254 139.5 c 128,-1,14
 191 214 191 214 159.5 312.5 c 128,-1,15
 128 411 128 411 128 522 c 2,16,-1
 128 558 l 2,17,18
 128 669 128 669 159.5 768 c 128,-1,19
 191 867 191 867 254 941 c 128,-1,20
 317 1015 317 1015 411 1058.5 c 128,-1,21
 505 1102 505 1102 629 1102 c 0,22,23
 727 1102 727 1102 810.5 1072 c 128,-1,24
 894 1042 894 1042 954.5 988 c 128,-1,25
 1015 934 1015 934 1048.5 859 c 128,-1,26
 1082 784 1082 784 1081 695 c 1,27,-1
 855 695 l 1,28,29
 856 739 856 739 839.5 778 c 128,-1,30
 823 817 823 817 792 846 c 128,-1,31
 761 875 761 875 719 892 c 128,-1,32
 677 909 677 909 627 909 c 0,33,34
 552 909 552 909 502 878.5 c 128,-1,35
 452 848 452 848 422 798.5 c 128,-1,36
 392 749 392 749 379.5 686 c 128,-1,37
 367 623 367 623 367 558 c 2,38,-1
 367 522 l 2,39,40
 367 456 367 456 379.5 393 c 128,-1,41
 392 330 392 330 422 280.5 c 128,-1,42
 452 231 452 231 502 200.5 c 128,-1,43
 552 170 552 170 628 170 c 0,0,1
EndSplineSet
Substitution2: "'smcp' Lowercase to Small Capitals lookup 0 subtable" C.smcp
EndChar
StartChar: d
Encoding: 100 100 70
Width: 1229
Flags: W
LayerCount: 2
Back
Fore
SplineSet
123 549 m 2,0,1
 123 672 123 672 153 774 c 128,-1,2
 183 876 183 876 239 949 c 128,-1,3
 295 1022 295 1022 374.5 1062 c 128,-1,4
 454 1102 454 1102 553 1102 c 0,5,6
 642 1102 642 1102 710 1071.5 c 128,-1,7
 778 1041 778 1041 829 984 c 1,8,-1
 829 1536 l 1,9,-1
 1069 1536 l 1,10,-1
 1069 0 l 1,11,-1
 852 0 l 1,12,-1
 840 110 l 1,13,14
 789 47 789 47 717.5 13.5 c 128,-1,15
 646 -20 646 -20 551 -20 c 0,16,17
 453 -20 453 -20 374 21.5 c 128,-1,18
 295 63 295 63 239.5 136 c 128,-1,19
 184 209 184 209 153.5 309.5 c 128,-1,20
 123 410 123 410 123 528 c 2,21,-1
 123 549 l 2,0,1
362 528 m 2,22,23
 362 455 362 455 376 391 c 128,-1,24
 390 327 390 327 420.5 279 c 128,-1,25
 451 231 451 231 498.5 203.5 c 128,-1,26
 546 176 546 176 612 176 c 0,27,28
 694 176 694 176 746 211.5 c 128,-1,29
 798 247 798 247 829 307 c 1,30,-1
 829 777 l 1,31,32
 798 836 798 836 745.5 871 c 128,-1,33
 693 906 693 906 614 906 c 0,34,35
 547 906 547 906 499.5 878 c 128,-1,36
 452 850 452 850 421.5 801 c 128,-1,37
 391 752 391 752 376.5 687 c 128,-1,38
 362 622 362 622 362 549 c 2,39,-1
 362 528 l 2,22,23
EndSplineSet
Substitution2: "'smcp' Lowercase to Small Capitals lookup 0 subtable" D.smcp
EndChar
StartChar: e
Encoding: 101 101 71
Width: 1229
Flags: W
LayerCount: 2
Back
Fore
SplineSet
659 -20 m 0,0,1
 539 -20 539 -20 440 20 c 128,-1,2
 341 60 341 60 270.5 130 c 128,-1,3
 200 200 200 200 161 295.5 c 128,-1,4
 122 391 122 391 122 502 c 2,5,-1
 122 543 l 2,6,7
 122 672 122 672 163.5 775 c 128,-1,8
 205 878 205 878 274.5 951 c 128,-1,9
 344 1024 344 1024 436.5 1063 c 128,-1,10
 529 1102 529 1102 631 1102 c 0,11,12
 749 1102 749 1102 839 1062.5 c 128,-1,13
 929 1023 929 1023 989.5 951.5 c 128,-1,14
 1050 880 1050 880 1081 782 c 128,-1,15
 1112 684 1112 684 1112 567 c 2,16,-1
 1112 466 l 1,17,-1
 362 466 l 1,18,19
 368 403 368 403 393 349 c 128,-1,20
 418 295 418 295 458.5 255.5 c 128,-1,21
 499 216 499 216 553.5 193.5 c 128,-1,22
 608 171 608 171 673 171 c 0,23,24
 764 171 764 171 840.5 207 c 128,-1,25
 917 243 917 243 965 306 c 1,26,-1
 1095 184 l 1,27,28
 1069 145 1069 145 1028 108.5 c 128,-1,29
 987 72 987 72 932 43.5 c 128,-1,30
 877 15 877 15 808.5 -2.5 c 128,-1,31
 740 -20 740 -20 659 -20 c 0,0,1
630 909 m 0,32,33
 580 909 580 909 537 891 c 128,-1,34
 494 873 494 873 460 838.5 c 128,-1,35
 426 804 426 804 402.5 754.5 c 128,-1,36
 379 705 379 705 369 642 c 1,37,-1
 876 642 l 1,38,-1
 876 660 l 2,39,40
 873 708 873 708 857.5 752.5 c 128,-1,41
 842 797 842 797 812 832 c 128,-1,42
 782 867 782 867 736.5 888 c 128,-1,43
 691 909 691 909 630 909 c 0,32,33
EndSplineSet
Substitution2: "'smcp' Lowercase to Small Capitals lookup 0 subtable" E.smcp
EndChar
StartChar: f
Encoding: 102 102 72
Width: 1229
Flags: W
LayerCount: 2
Back
Fore
SplineSet
427 0 m 1,0,-1
 427 904 l 1,1,-1
 136 904 l 1,2,-1
 136 1082 l 1,3,-1
 427 1082 l 1,4,-1
 427 1149 l 2,5,6
 427 1254 427 1254 458.5 1334.5 c 128,-1,7
 490 1415 490 1415 549.5 1469.5 c 128,-1,8
 609 1524 609 1524 693 1552.5 c 128,-1,9
 777 1581 777 1581 882 1581 c 0,10,11
 951 1581 951 1581 1013.5 1570.5 c 128,-1,12
 1076 1560 1076 1560 1144 1546 c 1,13,-1
 1123 1356 l 1,14,15
 1084 1367 1084 1367 1032 1375.5 c 128,-1,16
 980 1384 980 1384 915 1384 c 0,17,18
 786 1384 786 1384 726.5 1323 c 128,-1,19
 667 1262 667 1262 667 1149 c 2,20,-1
 667 1082 l 1,21,-1
 1069 1082 l 1,22,-1
 1069 904 l 1,23,-1
 667 904 l 1,24,-1
 667 0 l 1,25,-1
 427 0 l 1,0,-1
EndSplineSet
Substitution2: "'smcp' Lowercase to Small Capitals lookup 0 subtable" F.smcp
EndChar
StartChar: g
Encoding: 103 103 73
Width: 1229
Flags: W
LayerCount: 2
Back
Fore
SplineSet
124 549 m 2,0,1
 124 672 124 672 154.5 774 c 128,-1,2
 185 876 185 876 242 949 c 128,-1,3
 299 1022 299 1022 379.5 1062 c 128,-1,4
 460 1102 460 1102 560 1102 c 0,5,6
 657 1102 657 1102 728 1069 c 128,-1,7
 799 1036 799 1036 850 974 c 1,8,-1
 860 1082 l 1,9,-1
 1077 1082 l 1,10,-1
 1077 29 l 2,11,12
 1077 -80 1077 -80 1041 -164.5 c 128,-1,13
 1005 -249 1005 -249 940.5 -307 c 128,-1,14
 876 -365 876 -365 786 -395.5 c 128,-1,15
 696 -426 696 -426 588 -426 c 0,16,17
 544 -426 544 -426 488.5 -416.5 c 128,-1,18
 433 -407 433 -407 377 -385.5 c 128,-1,19
 321 -364 321 -364 270 -329.5 c 128,-1,20
 219 -295 219 -295 183 -246 c 1,21,-1
 297 -103 l 1,22,23
 358 -175 358 -175 428.5 -206 c 128,-1,24
 499 -237 499 -237 574 -237 c 0,25,26
 634 -237 634 -237 683 -220 c 128,-1,27
 732 -203 732 -203 766 -170 c 128,-1,28
 800 -137 800 -137 818.5 -88.5 c 128,-1,29
 837 -40 837 -40 837 23 c 2,30,-1
 837 96 l 1,31,32
 786 40 786 40 717.5 10 c 128,-1,33
 649 -20 649 -20 558 -20 c 0,34,35
 459 -20 459 -20 379 21.5 c 128,-1,36
 299 63 299 63 242 136 c 128,-1,37
 185 209 185 209 154.5 309.5 c 128,-1,38
 124 410 124 410 124 528 c 2,39,-1
 124 549 l 2,0,1
364 528 m 2,40,41
 364 455 364 455 379 391 c 128,-1,42
 394 327 394 327 425 279 c 128,-1,43
 456 231 456 231 504.5 203.5 c 128,-1,44
 553 176 553 176 619 176 c 0,45,46
 702 176 702 176 754 210.5 c 128,-1,47
 806 245 806 245 837 303 c 1,48,-1
 837 781 l 1,49,50
 805 838 805 838 753 872 c 128,-1,51
 701 906 701 906 621 906 c 0,52,53
 555 906 555 906 506.5 878 c 128,-1,54
 458 850 458 850 426.5 801 c 128,-1,55
 395 752 395 752 379.5 687 c 128,-1,56
 364 622 364 622 364 549 c 2,57,-1
 364 528 l 2,40,41
EndSplineSet
Substitution2: "'smcp' Lowercase to Small Capitals lookup 0 subtable" G.smcp
EndChar
StartChar: h
Encoding: 104 104 74
Width: 1229
Flags: W
LayerCount: 2
Back
Fore
SplineSet
394 932 m 1,0,1
 450 1012 450 1012 530.5 1057 c 128,-1,2
 611 1102 611 1102 710 1102 c 0,3,4
 794 1102 794 1102 864.5 1077 c 128,-1,5
 935 1052 935 1052 985 999.5 c 128,-1,6
 1035 947 1035 947 1063 864.5 c 128,-1,7
 1091 782 1091 782 1091 667 c 2,8,-1
 1091 0 l 1,9,-1
 852 0 l 1,10,-1
 852 669 l 2,11,12
 852 731 852 731 836.5 775.5 c 128,-1,13
 821 820 821 820 792.5 849 c 128,-1,14
 764 878 764 878 723 892 c 128,-1,15
 682 906 682 906 630 906 c 0,16,17
 552 906 552 906 492 873.5 c 128,-1,18
 432 841 432 841 394 786 c 1,19,-1
 394 0 l 1,20,-1
 155 0 l 1,21,-1
 155 1536 l 1,22,-1
 394 1536 l 1,23,-1
 394 932 l 1,0,1
EndSplineSet
Substitution2: "'smcp' Lowercase to Small Capitals lookup 0 subtable" H.smcp
EndChar
StartChar: i
Encoding: 105 105 75
Width: 1229
Flags: W
LayerCount: 2
Back
Fore
SplineSet
207 1082 m 1,0,-1
 784 1082 l 1,1,-1
 784 198 l 1,2,-1
 1105 198 l 1,3,-1
 1105 0 l 1,4,-1
 207 0 l 1,5,-1
 207 198 l 1,6,-1
 543 198 l 1,7,-1
 543 883 l 1,8,-1
 207 883 l 1,9,-1
 207 1082 l 1,0,-1
523 1362 m 256,10,11
 523 1418 523 1418 559 1454.5 c 128,-1,12
 595 1491 595 1491 660 1491 c 0,13,14
 726 1491 726 1491 762.5 1454.5 c 128,-1,15
 799 1418 799 1418 799 1362 c 256,16,17
 799 1306 799 1306 762.5 1269.5 c 128,-1,18
 726 1233 726 1233 660 1233 c 0,19,20
 595 1233 595 1233 559 1269.5 c 128,-1,21
 523 1306 523 1306 523 1362 c 256,10,11
EndSplineSet
Substitution2: "'smcp' Lowercase to Small Capitals lookup 0 subtable" I.smcp
EndChar
StartChar: j
Encoding: 106 106 76
Width: 1229
Flags: W
LayerCount: 2
Back
Fore
SplineSet
303 1082 m 1,0,-1
 857 1082 l 1,1,-1
 857 -17 l 2,2,3
 857 -123 857 -123 827 -201.5 c 128,-1,4
 797 -280 797 -280 740.5 -332.5 c 128,-1,5
 684 -385 684 -385 601.5 -411 c 128,-1,6
 519 -437 519 -437 414 -437 c 0,7,8
 363 -437 363 -437 315 -433.5 c 128,-1,9
 267 -430 267 -430 219 -420 c 1,10,-1
 233 -226 l 1,11,12
 247 -229 247 -229 270.5 -231.5 c 128,-1,13
 294 -234 294 -234 318.5 -235.5 c 128,-1,14
 343 -237 343 -237 365.5 -237.5 c 128,-1,15
 388 -238 388 -238 400 -238 c 0,16,17
 445 -238 445 -238 484.5 -227 c 128,-1,18
 524 -216 524 -216 553.5 -190.5 c 128,-1,19
 583 -165 583 -165 599.5 -122.5 c 128,-1,20
 616 -80 616 -80 616 -17 c 2,21,-1
 616 883 l 1,22,-1
 303 883 l 1,23,-1
 303 1082 l 1,0,-1
595 1362 m 256,24,25
 595 1418 595 1418 631 1454.5 c 128,-1,26
 667 1491 667 1491 732 1491 c 0,27,28
 798 1491 798 1491 834.5 1454.5 c 128,-1,29
 871 1418 871 1418 871 1362 c 256,30,31
 871 1306 871 1306 834.5 1269.5 c 128,-1,32
 798 1233 798 1233 732 1233 c 0,33,34
 667 1233 667 1233 631 1269.5 c 128,-1,35
 595 1306 595 1306 595 1362 c 256,24,25
EndSplineSet
Substitution2: "'smcp' Lowercase to Small Capitals lookup 0 subtable" J.smcp
EndChar
StartChar: k
Encoding: 107 107 77
Width: 1229
Flags: W
LayerCount: 2
Back
Fore
SplineSet
525 473 m 1,0,-1
 395 349 l 1,1,-1
 395 0 l 1,2,-1
 156 0 l 1,3,-1
 156 1536 l 1,4,-1
 395 1536 l 1,5,-1
 395 631 l 1,6,-1
 496 744 l 1,7,-1
 814 1082 l 1,8,-1
 1102 1082 l 1,9,-1
 684 632 l 1,10,-1
 1166 0 l 1,11,-1
 868 0 l 1,12,-1
 525 473 l 1,0,-1
EndSplineSet
Substitution2: "'smcp' Lowercase to Small Capitals lookup 0 subtable" K.smcp
EndChar
StartChar: l
Encoding: 108 108 78
Width: 1229
Flags: W
LayerCount: 2
Back
Fore
SplineSet
199 1536 m 1,0,-1
 784 1536 l 1,1,-1
 784 198 l 1,2,-1
 1114 198 l 1,3,-1
 1114 0 l 1,4,-1
 199 0 l 1,5,-1
 199 198 l 1,6,-1
 543 198 l 1,7,-1
 543 1337 l 1,8,-1
 199 1337 l 1,9,-1
 199 1536 l 1,0,-1
EndSplineSet
Substitution2: "'smcp' Lowercase to Small Capitals lookup 0 subtable" L.smcp
EndChar
StartChar: m
Encoding: 109 109 79
Width: 1229
Flags: W
LayerCount: 2
Back
Fore
SplineSet
293 1082 m 1,0,-1
 299 968 l 1,1,2
 331 1031 331 1031 385 1066.5 c 128,-1,3
 439 1102 439 1102 515 1102 c 0,4,5
 584 1102 584 1102 629.5 1074.5 c 128,-1,6
 675 1047 675 1047 698 989 c 1,7,8
 730 1041 730 1041 780 1071.5 c 128,-1,9
 830 1102 830 1102 901 1102 c 0,10,11
 954 1102 954 1102 998.5 1084.5 c 128,-1,12
 1043 1067 1043 1067 1074.5 1029 c 128,-1,13
 1106 991 1106 991 1123.5 932 c 128,-1,14
 1141 873 1141 873 1141 790 c 2,15,-1
 1141 0 l 1,16,-1
 919 0 l 1,17,-1
 919 792 l 2,18,19
 919 857 919 857 891.5 881.5 c 128,-1,20
 864 906 864 906 821 906 c 0,21,22
 780 906 780 906 756 886.5 c 128,-1,23
 732 867 732 867 721 835 c 1,24,-1
 721 0 l 1,25,-1
 504 0 l 1,26,-1
 504 792 l 2,27,28
 504 855 504 855 478.5 880.5 c 128,-1,29
 453 906 453 906 409 906 c 0,30,31
 367 906 367 906 343 888 c 128,-1,32
 319 870 319 870 306 839 c 1,33,-1
 306 0 l 1,34,-1
 84 0 l 1,35,-1
 84 1082 l 1,36,-1
 293 1082 l 1,0,-1
EndSplineSet
Substitution2: "'smcp' Lowercase to Small Capitals lookup 0 subtable" M.smcp
EndChar
StartChar: n
Encoding: 110 110 80
Width: 1229
Flags: W
LayerCount: 2
Back
Fore
SplineSet
371 1082 m 1,0,-1
 386 932 l 1,1,2
 445 1013 445 1013 528.5 1057.5 c 128,-1,3
 612 1102 612 1102 714 1102 c 0,4,5
 797 1102 797 1102 865.5 1078 c 128,-1,6
 934 1054 934 1054 983.5 1003 c 128,-1,7
 1033 952 1033 952 1060.5 871 c 128,-1,8
 1088 790 1088 790 1088 676 c 2,9,-1
 1088 0 l 1,10,-1
 849 0 l 1,11,-1
 849 672 l 2,12,13
 849 739 849 739 833.5 784 c 128,-1,14
 818 829 818 829 789.5 856 c 128,-1,15
 761 883 761 883 720 894.5 c 128,-1,16
 679 906 679 906 627 906 c 0,17,18
 548 906 548 906 489.5 871 c 128,-1,19
 431 836 431 836 395 776 c 1,20,-1
 395 0 l 1,21,-1
 155 0 l 1,22,-1
 155 1082 l 1,23,-1
 371 1082 l 1,0,-1
EndSplineSet
Substitution2: "'smcp' Lowercase to Small Capitals lookup 0 subtable" N.smcp
EndChar
StartChar: o
Encoding: 111 111 81
Width: 1229
Flags: W
LayerCount: 2
Back
Fore
SplineSet
111 551 m 2,0,1
 111 668 111 668 145.5 769 c 128,-1,2
 180 870 180 870 244.5 944 c 128,-1,3
 309 1018 309 1018 402 1060 c 128,-1,4
 495 1102 495 1102 613 1102 c 0,5,6
 732 1102 732 1102 825.5 1060 c 128,-1,7
 919 1018 919 1018 983.5 944 c 128,-1,8
 1048 870 1048 870 1082 769 c 128,-1,9
 1116 668 1116 668 1116 551 c 2,10,-1
 1116 530 l 2,11,12
 1116 412 1116 412 1082 311 c 128,-1,13
 1048 210 1048 210 983.5 136.5 c 128,-1,14
 919 63 919 63 826 21 c 128,-1,15
 733 -21 733 -21 615 -21 c 0,16,17
 496 -21 496 -21 402.5 21 c 128,-1,18
 309 63 309 63 244.5 136.5 c 128,-1,19
 180 210 180 210 145.5 311 c 128,-1,20
 111 412 111 412 111 530 c 2,21,-1
 111 551 l 2,0,1
350 530 m 2,22,23
 350 456 350 456 365.5 391 c 128,-1,24
 381 326 381 326 413.5 276.5 c 128,-1,25
 446 227 446 227 496 198.5 c 128,-1,26
 546 170 546 170 615 170 c 0,27,28
 682 170 682 170 731.5 198.5 c 128,-1,29
 781 227 781 227 813.5 276.5 c 128,-1,30
 846 326 846 326 861.5 391 c 128,-1,31
 877 456 877 456 877 530 c 2,32,-1
 877 551 l 2,33,34
 877 623 877 623 861.5 688 c 128,-1,35
 846 753 846 753 813.5 802 c 128,-1,36
 781 851 781 851 731.5 880 c 128,-1,37
 682 909 682 909 613 909 c 0,38,39
 545 909 545 909 495 880 c 128,-1,40
 445 851 445 851 413 802 c 128,-1,41
 381 753 381 753 365.5 688 c 128,-1,42
 350 623 350 623 350 551 c 2,43,-1
 350 530 l 2,22,23
EndSplineSet
Substitution2: "'smcp' Lowercase to Small Capitals lookup 0 subtable" O.smcp
EndChar
StartChar: p
Encoding: 112 112 82
Width: 1229
Flags: W
LayerCount: 2
Back
Fore
SplineSet
1102 530 m 2,0,1
 1102 412 1102 412 1074 311 c 128,-1,2
 1046 210 1046 210 992 136.5 c 128,-1,3
 938 63 938 63 859.5 21.5 c 128,-1,4
 781 -20 781 -20 679 -20 c 0,5,6
 587 -20 587 -20 516.5 10 c 128,-1,7
 446 40 446 40 395 96 c 1,8,-1
 395 -416 l 1,9,-1
 156 -416 l 1,10,-1
 156 1082 l 1,11,-1
 376 1082 l 1,12,-1
 386 973 l 1,13,14
 438 1035 438 1035 509.5 1068.5 c 128,-1,15
 581 1102 581 1102 676 1102 c 0,16,17
 779 1102 779 1102 858.5 1062 c 128,-1,18
 938 1022 938 1022 992 949.5 c 128,-1,19
 1046 877 1046 877 1074 775.5 c 128,-1,20
 1102 674 1102 674 1102 551 c 2,21,-1
 1102 530 l 2,0,1
863 551 m 2,22,23
 863 624 863 624 848 688.5 c 128,-1,24
 833 753 833 753 802 801.5 c 128,-1,25
 771 850 771 850 723 878 c 128,-1,26
 675 906 675 906 609 906 c 0,27,28
 529 906 529 906 477 872 c 128,-1,29
 425 838 425 838 395 781 c 1,30,-1
 395 297 l 1,31,32
 425 241 425 241 476.5 206 c 128,-1,33
 528 171 528 171 611 171 c 0,34,35
 677 171 677 171 725 200 c 128,-1,36
 773 229 773 229 803.5 278 c 128,-1,37
 834 327 834 327 848.5 392 c 128,-1,38
 863 457 863 457 863 530 c 2,39,-1
 863 551 l 2,22,23
EndSplineSet
Substitution2: "'smcp' Lowercase to Small Capitals lookup 0 subtable" P.smcp
EndChar
StartChar: q
Encoding: 113 113 83
Width: 1229
Flags: W
LayerCount: 2
Back
Fore
SplineSet
124 550 m 2,0,1
 124 673 124 673 153 775 c 128,-1,2
 182 877 182 877 237.5 949.5 c 128,-1,3
 293 1022 293 1022 373.5 1062 c 128,-1,4
 454 1102 454 1102 557 1102 c 0,5,6
 651 1102 651 1102 721 1069.5 c 128,-1,7
 791 1037 791 1037 843 977 c 1,8,-1
 855 1082 l 1,9,-1
 1069 1082 l 1,10,-1
 1069 -416 l 1,11,-1
 830 -416 l 1,12,-1
 830 91 l 1,13,14
 779 37 779 37 711 8.5 c 128,-1,15
 643 -20 643 -20 555 -20 c 0,16,17
 454 -20 454 -20 374 21.5 c 128,-1,18
 294 63 294 63 238.5 136.5 c 128,-1,19
 183 210 183 210 153.5 310.5 c 128,-1,20
 124 411 124 411 124 529 c 2,21,-1
 124 550 l 2,0,1
363 529 m 2,22,23
 363 456 363 456 377.5 391 c 128,-1,24
 392 326 392 326 423 277 c 128,-1,25
 454 228 454 228 502 199.5 c 128,-1,26
 550 171 550 171 616 171 c 0,27,28
 696 171 696 171 747 204.5 c 128,-1,29
 798 238 798 238 830 295 c 1,30,-1
 830 791 l 1,31,32
 798 845 798 845 746.5 877 c 128,-1,33
 695 909 695 909 618 909 c 0,34,35
 551 909 551 909 503 880.5 c 128,-1,36
 455 852 455 852 424 803 c 128,-1,37
 393 754 393 754 378 688.5 c 128,-1,38
 363 623 363 623 363 550 c 2,39,-1
 363 529 l 2,22,23
EndSplineSet
Substitution2: "'smcp' Lowercase to Small Capitals lookup 0 subtable" Q.smcp
EndChar
StartChar: r
Encoding: 114 114 84
Width: 1229
Flags: W
LayerCount: 2
Back
Fore
SplineSet
898 1102 m 0,0,1
 927 1102 927 1102 956 1100 c 128,-1,2
 985 1098 985 1098 1011.5 1094 c 128,-1,3
 1038 1090 1038 1090 1060 1085.5 c 128,-1,4
 1082 1081 1082 1081 1097 1075 c 1,5,-1
 1063 840 l 1,6,7
 953 865 953 865 846 865 c 0,8,9
 726 865 726 865 652.5 815 c 128,-1,10
 579 765 579 765 544 676 c 1,11,-1
 544 0 l 1,12,-1
 305 0 l 1,13,-1
 305 1082 l 1,14,-1
 529 1082 l 1,15,-1
 540 913 l 1,16,17
 606 1001 606 1001 696.5 1051.5 c 128,-1,18
 787 1102 787 1102 898 1102 c 0,0,1
EndSplineSet
Substitution2: "'smcp' Lowercase to Small Capitals lookup 0 subtable" R.smcp
EndChar
StartChar: s
Encoding: 115 115 85
Width: 1229
Flags: W
LayerCount: 2
Back
Fore
SplineSet
860 293 m 0,0,1
 860 320 860 320 849 342.5 c 128,-1,2
 838 365 838 365 809.5 383.5 c 128,-1,3
 781 402 781 402 731.5 418 c 128,-1,4
 682 434 682 434 605 449 c 0,5,6
 509 469 509 469 431.5 497 c 128,-1,7
 354 525 354 525 298.5 564 c 128,-1,8
 243 603 243 603 213 654.5 c 128,-1,9
 183 706 183 706 183 774 c 0,10,11
 183 840 183 840 214 899.5 c 128,-1,12
 245 959 245 959 302.5 1004 c 128,-1,13
 360 1049 360 1049 442.5 1075.5 c 128,-1,14
 525 1102 525 1102 627 1102 c 0,15,16
 735 1102 735 1102 820.5 1075 c 128,-1,17
 906 1048 906 1048 965 1001.5 c 128,-1,18
 1024 955 1024 955 1055.5 892 c 128,-1,19
 1087 829 1087 829 1087 757 c 1,20,-1
 848 757 l 1,21,22
 848 789 848 789 834 818.5 c 128,-1,23
 820 848 820 848 792 871 c 128,-1,24
 764 894 764 894 722.5 907.5 c 128,-1,25
 681 921 681 921 627 921 c 256,26,27
 573 921 573 921 533.5 909.5 c 128,-1,28
 494 898 494 898 468 879.5 c 128,-1,29
 442 861 442 861 429.5 836 c 128,-1,30
 417 811 417 811 417 784 c 256,31,32
 417 757 417 757 426.5 735 c 128,-1,33
 436 713 436 713 462 695 c 128,-1,34
 488 677 488 677 534 662.5 c 128,-1,35
 580 648 580 648 653 635 c 0,36,37
 755 617 755 617 836.5 590 c 128,-1,38
 918 563 918 563 975.5 524 c 128,-1,39
 1033 485 1033 485 1064 431.5 c 128,-1,40
 1095 378 1095 378 1095 306 c 256,41,42
 1095 234 1095 234 1062 174 c 128,-1,43
 1029 114 1029 114 968 70.5 c 128,-1,44
 907 27 907 27 821.5 3 c 128,-1,45
 736 -21 736 -21 630 -21 c 0,46,47
 512 -21 512 -21 422 10.5 c 128,-1,48
 332 42 332 42 271 93 c 128,-1,49
 210 144 210 144 178.5 209 c 128,-1,50
 147 274 147 274 147 341 c 1,51,-1
 379 341 l 1,52,53
 382 291 382 291 405 256 c 128,-1,54
 428 221 428 221 464 199.5 c 128,-1,55
 500 178 500 178 544 168.5 c 128,-1,56
 588 159 588 159 633 159 c 0,57,58
 744 159 744 159 802 196.5 c 128,-1,59
 860 234 860 234 860 293 c 0,0,1
EndSplineSet
Substitution2: "'smcp' Lowercase to Small Capitals lookup 0 subtable" S.smcp
EndChar
StartChar: t
Encoding: 116 116 86
Width: 1229
Flags: W
LayerCount: 2
Back
Fore
SplineSet
634 1344 m 1,0,-1
 634 1082 l 1,1,-1
 1043 1082 l 1,2,-1
 1043 904 l 1,3,-1
 634 904 l 1,4,-1
 634 385 l 2,5,6
 634 324 634 324 648.5 284 c 128,-1,7
 663 244 663 244 689 220 c 128,-1,8
 715 196 715 196 750 186.5 c 128,-1,9
 785 177 785 177 827 177 c 0,10,11
 858 177 858 177 891.5 180.5 c 128,-1,12
 925 184 925 184 956.5 188.5 c 128,-1,13
 988 193 988 193 1014.5 198.5 c 128,-1,14
 1041 204 1041 204 1059 209 c 1,15,-1
 1086 44 l 1,16,17
 1060 29 1060 29 1023.5 16.5 c 128,-1,18
 987 4 987 4 944 -4 c 128,-1,19
 901 -12 901 -12 854.5 -16.5 c 128,-1,20
 808 -21 808 -21 763 -21 c 0,21,22
 682 -21 682 -21 614.5 1.5 c 128,-1,23
 547 24 547 24 498.5 71.5 c 128,-1,24
 450 119 450 119 422.5 193.5 c 128,-1,25
 395 268 395 268 395 372 c 2,26,-1
 395 904 l 1,27,-1
 131 904 l 1,28,-1
 131 1082 l 1,29,-1
 395 1082 l 1,30,-1
 395 1344 l 1,31,-1
 634 1344 l 1,0,-1
EndSplineSet
Substitution2: "'smcp' Lowercase to Small Capitals lookup 0 subtable" T.smcp
EndChar
StartChar: u
Encoding: 117 117 87
Width: 1229
Flags: W
LayerCount: 2
Back
Fore
SplineSet
849 148 m 1,0,1
 794 68 794 68 715.5 23.5 c 128,-1,2
 637 -21 637 -21 540 -21 c 0,3,4
 456 -21 456 -21 386.5 5 c 128,-1,5
 317 31 317 31 267.5 87.5 c 128,-1,6
 218 144 218 144 190.5 231.5 c 128,-1,7
 163 319 163 319 163 442 c 2,8,-1
 163 1082 l 1,9,-1
 402 1082 l 1,10,-1
 402 440 l 2,11,12
 402 362 402 362 413.5 311 c 128,-1,13
 425 260 425 260 449 230 c 128,-1,14
 473 200 473 200 509 187.5 c 128,-1,15
 545 175 545 175 595 175 c 0,16,17
 691 175 691 175 750 212.5 c 128,-1,18
 809 250 809 250 839 314 c 1,19,-1
 839 1082 l 1,20,-1
 1079 1082 l 1,21,-1
 1079 0 l 1,22,-1
 863 0 l 1,23,-1
 849 148 l 1,0,1
EndSplineSet
Substitution2: "'smcp' Lowercase to Small Capitals lookup 0 subtable" U.smcp
EndChar
StartChar: v
Encoding: 118 118 88
Width: 1229
Flags: W
LayerCount: 2
Back
Fore
SplineSet
598 302 m 1,0,-1
 615 222 l 1,1,-1
 633 301 l 1,2,-1
 895 1082 l 1,3,-1
 1142 1082 l 1,4,-1
 718 0 l 1,5,-1
 512 0 l 1,6,-1
 84 1082 l 1,7,-1
 331 1082 l 1,8,-1
 598 302 l 1,0,-1
EndSplineSet
Substitution2: "'smcp' Lowercase to Small Capitals lookup 0 subtable" V.smcp
EndChar
StartChar: w
Encoding: 119 119 89
Width: 1229
Flags: W
LayerCount: 2
Back
Fore
SplineSet
360 356 m 1,0,-1
 367 287 l 1,1,-1
 378 356 l 1,2,-1
 533 1082 l 1,3,-1
 690 1082 l 1,4,-1
 847 348 l 1,5,-1
 858 276 l 1,6,-1
 867 355 l 1,7,-1
 972 1082 l 1,8,-1
 1188 1082 l 1,9,-1
 977 0 l 1,10,-1
 776 0 l 1,11,-1
 612 724 l 1,12,-1
 610 737 l 1,13,-1
 608 725 l 1,14,-1
 447 0 l 1,15,-1
 247 0 l 1,16,-1
 36 1082 l 1,17,-1
 251 1082 l 1,18,-1
 360 356 l 1,0,-1
EndSplineSet
Substitution2: "'smcp' Lowercase to Small Capitals lookup 0 subtable" W.smcp
EndChar
StartChar: x
Encoding: 120 120 90
Width: 1229
Flags: W
LayerCount: 2
Back
Fore
SplineSet
628 716 m 1,0,-1
 886 1082 l 1,1,-1
 1152 1082 l 1,2,-1
 770 549 l 1,3,-1
 1164 0 l 1,4,-1
 899 0 l 1,5,-1
 631 379 l 1,6,-1
 364 0 l 1,7,-1
 97 0 l 1,8,-1
 491 549 l 1,9,-1
 109 1082 l 1,10,-1
 374 1082 l 1,11,-1
 628 716 l 1,0,-1
EndSplineSet
Substitution2: "'smcp' Lowercase to Small Capitals lookup 0 subtable" X.smcp
EndChar
StartChar: y
Encoding: 121 121 91
Width: 1229
Flags: W
LayerCount: 2
Back
Fore
SplineSet
584 433 m 1,0,-1
 625 303 l 1,1,-1
 929 1082 l 1,2,-1
 1194 1082 l 1,3,-1
 646 -164 l 2,4,5
 628 -205 628 -205 599 -252.5 c 128,-1,6
 570 -300 570 -300 527.5 -341 c 128,-1,7
 485 -382 485 -382 426 -409.5 c 128,-1,8
 367 -437 367 -437 288 -437 c 0,9,10
 255 -437 255 -437 221.5 -431.5 c 128,-1,11
 188 -426 188 -426 162 -419 c 1,12,-1
 196 -233 l 1,13,14
 203 -233 203 -233 215 -233.5 c 128,-1,15
 227 -234 227 -234 240 -235 c 128,-1,16
 253 -236 253 -236 264.5 -236.5 c 128,-1,17
 276 -237 276 -237 283 -237 c 0,18,19
 318 -237 318 -237 345.5 -216.5 c 128,-1,20
 373 -196 373 -196 394 -169.5 c 128,-1,21
 415 -143 415 -143 428.5 -117.5 c 128,-1,22
 442 -92 442 -92 448 -83 c 2,23,-1
 519 51 l 1,24,-1
 59 1082 l 1,25,-1
 323 1082 l 1,26,-1
 584 433 l 1,0,-1
EndSplineSet
Substitution2: "'smcp' Lowercase to Small Capitals lookup 0 subtable" Y.smcp
EndChar
StartChar: braceleft
Encoding: 123 123 93
Width: 1229
Flags: W
LayerCount: 2
Back
Fore
SplineSet
960 -360 m 1,0,1
 894 -360 894 -360 840 -340 c 128,-1,2
 786 -320 786 -320 743.5 -286 c 128,-1,3
 701 -252 701 -252 670.5 -206 c 128,-1,4
 640 -160 640 -160 619.5 -108 c 128,-1,5
 599 -56 599 -56 589.5 -1.5 c 128,-1,6
 580 53 580 53 580 106 c 2,7,-1
 580 269 l 2,8,9
 580 408 580 408 514.5 469 c 128,-1,10
 449 530 449 530 315 530 c 1,11,-1
 315 706 l 1,12,13
 449 706 449 706 514.5 767.5 c 128,-1,14
 580 829 580 829 580 969 c 2,15,-1
 580 1132 l 2,16,17
 580 1184 580 1184 588.5 1239 c 128,-1,18
 597 1294 597 1294 616 1346 c 128,-1,19
 635 1398 635 1398 664.5 1443.5 c 128,-1,20
 694 1489 694 1489 736.5 1523 c 128,-1,21
 779 1557 779 1557 834.5 1577 c 128,-1,22
 890 1597 890 1597 960 1597 c 1,23,-1
 987 1458 l 1,24,25
 921 1459 921 1459 884 1429.5 c 128,-1,26
 847 1400 847 1400 830 1353 c 128,-1,27
 813 1306 813 1306 809.5 1247.5 c 128,-1,28
 806 1189 806 1189 806 1132 c 2,29,-1
 806 969 l 2,30,31
 806 850 806 850 749 758 c 128,-1,32
 692 666 692 666 572 618 c 1,33,34
 693 570 693 570 749.5 479 c 128,-1,35
 806 388 806 388 806 269 c 2,36,-1
 806 106 l 2,37,38
 806 49 806 49 813.5 -9.5 c 128,-1,39
 821 -68 821 -68 841.5 -115 c 128,-1,40
 862 -162 862 -162 897 -191.5 c 128,-1,41
 932 -221 932 -221 987 -220 c 1,42,-1
 960 -360 l 1,0,1
EndSplineSet
EndChar
StartChar: bar
Encoding: 124 124 94
Width: 1229
Flags: W
LayerCount: 2
Back
Fore
SplineSet
701 -410 m 1,0,-1
 534 -410 l 1,1,-1
 534 1456 l 1,2,-1
 701 1456 l 1,3,-1
 701 -410 l 1,0,-1
EndSplineSet
EndChar
StartChar: braceright
Encoding: 125 125 95
Width: 1229
Flags: W
LayerCount: 2
Back
Fore
SplineSet
327 -220 m 1,0,1
 382 -221 382 -221 417 -191.5 c 128,-1,2
 452 -162 452 -162 472 -115 c 128,-1,3
 492 -68 492 -68 500 -9.5 c 128,-1,4
 508 49 508 49 508 106 c 2,5,-1
 508 269 l 2,6,7
 508 386 508 386 563 477.5 c 128,-1,8
 618 569 618 569 735 618 c 1,9,10
 618 667 618 667 563 759 c 128,-1,11
 508 851 508 851 508 969 c 2,12,-1
 508 1132 l 2,13,14
 508 1189 508 1189 504.5 1247.5 c 128,-1,15
 501 1306 501 1306 484 1353 c 128,-1,16
 467 1400 467 1400 430 1429.5 c 128,-1,17
 393 1459 393 1459 327 1458 c 1,18,-1
 354 1597 l 1,19,20
 424 1597 424 1597 479.5 1577 c 128,-1,21
 535 1557 535 1557 577.5 1523 c 128,-1,22
 620 1489 620 1489 649.5 1443.5 c 128,-1,23
 679 1398 679 1398 698 1346 c 128,-1,24
 717 1294 717 1294 725.5 1239 c 128,-1,25
 734 1184 734 1184 734 1132 c 2,26,-1
 734 969 l 2,27,28
 734 829 734 829 799 767.5 c 128,-1,29
 864 706 864 706 999 706 c 1,30,-1
 999 530 l 1,31,32
 864 530 864 530 799 469 c 128,-1,33
 734 408 734 408 734 269 c 2,34,-1
 734 106 l 2,35,36
 734 54 734 54 724.5 -1 c 128,-1,37
 715 -56 715 -56 694.5 -108 c 128,-1,38
 674 -160 674 -160 643.5 -206 c 128,-1,39
 613 -252 613 -252 570.5 -286 c 128,-1,40
 528 -320 528 -320 474 -340 c 128,-1,41
 420 -360 420 -360 354 -360 c 1,42,-1
 327 -220 l 1,0,1
EndSplineSet
EndChar
StartChar: asciitilde
Encoding: 126 126 96
Width: 1229
Flags: W
LayerCount: 2
Back
Fore
SplineSet
1163 746 m 1,0,1
 1163 672 1163 672 1140.5 606.5 c 128,-1,2
 1118 541 1118 541 1077.5 492.5 c 128,-1,3
 1037 444 1037 444 980.5 416 c 128,-1,4
 924 388 924 388 857 388 c 0,5,6
 812 388 812 388 772 396.5 c 128,-1,7
 732 405 732 405 694.5 422 c 128,-1,8
 657 439 657 439 620 464.5 c 128,-1,9
 583 490 583 490 543 525 c 0,10,11
 491 567 491 567 444 590.5 c 128,-1,12
 397 614 397 614 347 614 c 0,13,14
 317 614 317 614 290 600 c 128,-1,15
 263 586 263 586 242.5 563 c 128,-1,16
 222 540 222 540 209.5 509.5 c 128,-1,17
 197 479 197 479 197 445 c 1,18,-1
 36 465 l 1,19,20
 36 539 36 539 58 603 c 128,-1,21
 80 667 80 667 120.5 714 c 128,-1,22
 161 761 161 761 217 787.5 c 128,-1,23
 273 814 273 814 341 814 c 0,24,25
 431 814 431 814 505.5 779 c 128,-1,26
 580 744 580 744 656 679 c 0,27,28
 710 634 710 634 755.5 611.5 c 128,-1,29
 801 589 801 589 850 589 c 0,30,31
 880 589 880 589 907 603.5 c 128,-1,32
 934 618 934 618 954 642.5 c 128,-1,33
 974 667 974 667 986 699 c 128,-1,34
 998 731 998 731 998 765 c 1,35,-1
 1163 746 l 1,0,1
EndSplineSet
EndChar
StartChar: exclamdown
Encoding: 161 161 97
Width: 1229
Flags: W
LayerCount: 2
Back
Fore
SplineSet
514 584 m 1,0,-1
 740 584 l 1,1,-1
 748 -377 l 1,2,-1
 505 -377 l 1,3,-1
 514 584 l 1,0,-1
771 966 m 0,4,5
 771 909 771 909 733.5 871.5 c 128,-1,6
 696 834 696 834 628 834 c 256,7,8
 560 834 560 834 523.5 871.5 c 128,-1,9
 487 909 487 909 487 966 c 0,10,11
 487 1024 487 1024 523.5 1063.5 c 128,-1,12
 560 1103 560 1103 628 1103 c 256,13,14
 696 1103 696 1103 733.5 1063.5 c 128,-1,15
 771 1024 771 1024 771 966 c 0,4,5
EndSplineSet
EndChar
StartChar: cent
Encoding: 162 162 98
Width: 1229
Flags: W
LayerCount: 2
Back
Fore
SplineSet
642 170 m 0,0,1
 686 170 686 170 727.5 184 c 128,-1,2
 769 198 769 198 801 223 c 128,-1,3
 833 248 833 248 851.5 282 c 128,-1,4
 870 316 870 316 869 356 c 1,5,-1
 1095 356 l 1,6,7
 1096 288 1096 288 1067.5 227 c 128,-1,8
 1039 166 1039 166 990 117 c 128,-1,9
 941 68 941 68 874.5 34 c 128,-1,10
 808 0 808 0 733 -13 c 1,11,-1
 733 -245 l 1,12,-1
 533 -245 l 1,13,-1
 533 -11 l 1,14,15
 435 7 435 7 362 56 c 128,-1,16
 289 105 289 105 240 176 c 128,-1,17
 191 247 191 247 166.5 335.5 c 128,-1,18
 142 424 142 424 142 522 c 2,19,-1
 142 558 l 2,20,21
 142 656 142 656 166.5 744.5 c 128,-1,22
 191 833 191 833 240 904.5 c 128,-1,23
 289 976 289 976 362.5 1025 c 128,-1,24
 436 1074 436 1074 533 1092 c 1,25,-1
 533 1318 l 1,26,-1
 733 1318 l 1,27,-1
 733 1095 l 1,28,29
 814 1082 814 1082 880.5 1047.5 c 128,-1,30
 947 1013 947 1013 995 961 c 128,-1,31
 1043 909 1043 909 1069.5 841.5 c 128,-1,32
 1096 774 1096 774 1095 695 c 1,33,-1
 869 695 l 1,34,35
 870 739 870 739 853.5 778 c 128,-1,36
 837 817 837 817 806 846 c 128,-1,37
 775 875 775 875 733 892 c 128,-1,38
 691 909 691 909 641 909 c 0,39,40
 566 909 566 909 516 878.5 c 128,-1,41
 466 848 466 848 436 798.5 c 128,-1,42
 406 749 406 749 393.5 686 c 128,-1,43
 381 623 381 623 381 558 c 2,44,-1
 381 522 l 2,45,46
 381 456 381 456 393.5 393 c 128,-1,47
 406 330 406 330 436 280.5 c 128,-1,48
 466 231 466 231 516 200.5 c 128,-1,49
 566 170 566 170 642 170 c 0,0,1
EndSplineSet
EndChar
StartChar: sterling
Encoding: 163 163 99
Width: 1229
Flags: W
LayerCount: 2
Back
Fore
SplineSet
514 604 m 1,0,-1
 521 418 l 2,1,2
 521 352 521 352 506 295 c 128,-1,3
 491 238 491 238 458 193 c 1,4,-1
 1162 193 l 1,5,-1
 1162 0 l 1,6,-1
 115 0 l 1,7,-1
 115 193 l 1,8,-1
 195 193 l 1,9,10
 220 199 220 199 236.5 222.5 c 128,-1,11
 253 246 253 246 262.5 277.5 c 128,-1,12
 272 309 272 309 275.5 345 c 128,-1,13
 279 381 279 381 279 412 c 2,14,-1
 273 604 l 1,15,-1
 112 604 l 1,16,-1
 112 794 l 1,17,-1
 267 794 l 1,18,-1
 259 1040 l 2,19,20
 259 1143 259 1143 293 1224.5 c 128,-1,21
 327 1306 327 1306 387 1361.5 c 128,-1,22
 447 1417 447 1417 530 1446.5 c 128,-1,23
 613 1476 613 1476 712 1476 c 0,24,25
 814 1476 814 1476 894 1447.5 c 128,-1,26
 974 1419 974 1419 1028.5 1366.5 c 128,-1,27
 1083 1314 1083 1314 1112 1240.5 c 128,-1,28
 1141 1167 1141 1167 1141 1077 c 1,29,-1
 906 1077 l 1,30,31
 906 1133 906 1133 889 1172.5 c 128,-1,32
 872 1212 872 1212 843.5 1236.5 c 128,-1,33
 815 1261 815 1261 777.5 1272 c 128,-1,34
 740 1283 740 1283 700 1283 c 0,35,36
 658 1283 658 1283 621.5 1267 c 128,-1,37
 585 1251 585 1251 557.5 1220.5 c 128,-1,38
 530 1190 530 1190 514.5 1144.5 c 128,-1,39
 499 1099 499 1099 499 1040 c 2,40,-1
 507 794 l 1,41,-1
 819 794 l 1,42,-1
 819 604 l 1,43,-1
 514 604 l 1,0,-1
EndSplineSet
EndChar
StartChar: currency
Encoding: 164 164 100
Width: 1229
Flags: W
LayerCount: 2
Back
Fore
SplineSet
914 78 m 1,0,1
 853 30 853 30 779 5 c 128,-1,2
 705 -20 705 -20 624 -20 c 256,3,4
 543 -20 543 -20 469.5 5 c 128,-1,5
 396 30 396 30 334 76 c 1,6,-1
 234 -26 l 1,7,-1
 93 118 l 1,8,-1
 201 228 l 1,9,10
 166 288 166 288 147 359 c 128,-1,11
 128 430 128 430 128 508 c 0,12,13
 128 591 128 591 149.5 665 c 128,-1,14
 171 739 171 739 209 801 c 1,15,-1
 93 920 l 1,16,-1
 234 1064 l 1,17,-1
 348 947 l 1,18,19
 408 989 408 989 477.5 1011.5 c 128,-1,20
 547 1034 547 1034 624 1034 c 256,21,22
 701 1034 701 1034 771 1011 c 128,-1,23
 841 988 841 988 901 946 c 1,24,-1
 1017 1065 l 1,25,-1
 1159 920 l 1,26,-1
 1039 797 l 1,27,28
 1077 735 1077 735 1097.5 662 c 128,-1,29
 1118 589 1118 589 1118 508 c 0,30,31
 1118 430 1118 430 1099.5 360.5 c 128,-1,32
 1081 291 1081 291 1047 231 c 1,33,-1
 1159 118 l 1,34,-1
 1017 -27 l 1,35,-1
 914 78 l 1,0,1
314 508 m 256,36,37
 314 436 314 436 338 373.5 c 128,-1,38
 362 311 362 311 404 264.5 c 128,-1,39
 446 218 446 218 502.5 191.5 c 128,-1,40
 559 165 559 165 624 165 c 0,41,42
 688 165 688 165 744.5 191.5 c 128,-1,43
 801 218 801 218 843 264.5 c 128,-1,44
 885 311 885 311 909 373.5 c 128,-1,45
 933 436 933 436 933 508 c 256,46,47
 933 580 933 580 909 642 c 128,-1,48
 885 704 885 704 843 749.5 c 128,-1,49
 801 795 801 795 744.5 821.5 c 128,-1,50
 688 848 688 848 624 848 c 0,51,52
 559 848 559 848 502.5 821.5 c 128,-1,53
 446 795 446 795 404 749.5 c 128,-1,54
 362 704 362 704 338 642 c 128,-1,55
 314 580 314 580 314 508 c 256,36,37
EndSplineSet
EndChar
StartChar: yen
Encoding: 165 165 101
Width: 1229
Flags: W
LayerCount: 2
Back
Fore
SplineSet
619 814 m 1,0,-1
 943 1456 l 1,1,-1
 1212 1456 l 1,2,-1
 814 742 l 1,3,-1
 1092 742 l 1,4,-1
 1092 595 l 1,5,-1
 735 595 l 1,6,-1
 735 452 l 1,7,-1
 1092 452 l 1,8,-1
 1092 306 l 1,9,-1
 735 306 l 1,10,-1
 735 0 l 1,11,-1
 495 0 l 1,12,-1
 495 306 l 1,13,-1
 137 306 l 1,14,-1
 137 452 l 1,15,-1
 495 452 l 1,16,-1
 495 595 l 1,17,-1
 137 595 l 1,18,-1
 137 742 l 1,19,-1
 424 742 l 1,20,-1
 25 1456 l 1,21,-1
 294 1456 l 1,22,-1
 619 814 l 1,0,-1
EndSplineSet
EndChar
StartChar: brokenbar
Encoding: 166 166 102
Width: 1229
Flags: W
LayerCount: 2
Back
Fore
SplineSet
496 -270 m 1,0,-1
 496 525 l 1,1,-1
 722 525 l 1,2,-1
 722 -270 l 1,3,-1
 496 -270 l 1,0,-1
722 698 m 1,4,-1
 496 698 l 1,5,-1
 496 1456 l 1,6,-1
 722 1456 l 1,7,-1
 722 698 l 1,4,-1
EndSplineSet
EndChar
StartChar: section
Encoding: 167 167 103
Width: 1229
Flags: W
LayerCount: 2
Back
Fore
SplineSet
1157 453 m 0,0,1
 1157 359 1157 359 1112.5 290.5 c 128,-1,2
 1068 222 1068 222 987 180 c 1,3,4
 1052 130 1052 130 1086.5 62 c 128,-1,5
 1121 -6 1121 -6 1121 -105 c 0,6,7
 1121 -194 1121 -194 1085.5 -263 c 128,-1,8
 1050 -332 1050 -332 984 -379.5 c 128,-1,9
 918 -427 918 -427 825 -451.5 c 128,-1,10
 732 -476 732 -476 618 -476 c 0,11,12
 552 -476 552 -476 487 -467 c 128,-1,13
 422 -458 422 -458 362.5 -437.5 c 128,-1,14
 303 -417 303 -417 252 -384.5 c 128,-1,15
 201 -352 201 -352 163.5 -304.5 c 128,-1,16
 126 -257 126 -257 105 -194.5 c 128,-1,17
 84 -132 84 -132 84 -51 c 1,18,-1
 323 -49 l 1,19,20
 323 -117 323 -117 349.5 -162 c 128,-1,21
 376 -207 376 -207 418 -234 c 128,-1,22
 460 -261 460 -261 512.5 -272 c 128,-1,23
 565 -283 565 -283 618 -283 c 0,24,25
 682 -283 682 -283 731 -270 c 128,-1,26
 780 -257 780 -257 813.5 -233.5 c 128,-1,27
 847 -210 847 -210 864.5 -177.5 c 128,-1,28
 882 -145 882 -145 882 -107 c 0,29,30
 882 -67 882 -67 866.5 -37.5 c 128,-1,31
 851 -8 851 -8 813.5 17.5 c 128,-1,32
 776 43 776 43 714 66.5 c 128,-1,33
 652 90 652 90 559 118 c 0,34,35
 448 148 448 148 361 183 c 128,-1,36
 274 218 274 218 213.5 267.5 c 128,-1,37
 153 317 153 317 121 383.5 c 128,-1,38
 89 450 89 450 89 543 c 0,39,40
 89 635 89 635 133 704 c 128,-1,41
 177 773 177 773 258 816 c 1,42,43
 193 866 193 866 159 934 c 128,-1,44
 125 1002 125 1002 125 1102 c 0,45,46
 125 1187 125 1187 160.5 1256 c 128,-1,47
 196 1325 196 1325 262 1374 c 128,-1,48
 328 1423 328 1423 421.5 1449.5 c 128,-1,49
 515 1476 515 1476 630 1476 c 0,50,51
 748 1476 748 1476 841.5 1448 c 128,-1,52
 935 1420 935 1420 1000.5 1365.5 c 128,-1,53
 1066 1311 1066 1311 1101 1231 c 128,-1,54
 1136 1151 1136 1151 1136 1047 c 1,55,-1
 897 1047 l 1,56,57
 897 1096 897 1096 879.5 1139 c 128,-1,58
 862 1182 862 1182 828.5 1214.5 c 128,-1,59
 795 1247 795 1247 745 1265.5 c 128,-1,60
 695 1284 695 1284 630 1284 c 0,61,62
 561 1284 561 1284 511 1269.5 c 128,-1,63
 461 1255 461 1255 428.5 1230.5 c 128,-1,64
 396 1206 396 1206 380.5 1173.5 c 128,-1,65
 365 1141 365 1141 365 1104 c 0,66,67
 365 1060 365 1060 378.5 1029.5 c 128,-1,68
 392 999 392 999 428 974 c 128,-1,69
 464 949 464 949 526 926.5 c 128,-1,70
 588 904 588 904 685 878 c 0,71,72
 798 848 798 848 886 812 c 128,-1,73
 974 776 974 776 1034 727 c 128,-1,74
 1094 678 1094 678 1125.5 611.5 c 128,-1,75
 1157 545 1157 545 1157 453 c 0,0,1
596 674 m 0,76,77
 553 685 553 685 513.5 697.5 c 128,-1,78
 474 710 474 710 438 723 c 1,79,80
 381 702 381 702 354 658.5 c 128,-1,81
 327 615 327 615 327 557 c 0,82,83
 327 512 327 512 340.5 480 c 128,-1,84
 354 448 354 448 390 422 c 128,-1,85
 426 396 426 396 488 372.5 c 128,-1,86
 550 349 550 349 647 321 c 0,87,88
 690 309 690 309 729.5 297 c 128,-1,89
 769 285 769 285 804 272 c 1,90,91
 861 295 861 295 891 338 c 128,-1,92
 921 381 921 381 921 438 c 0,93,94
 921 479 921 479 905 510.5 c 128,-1,95
 889 542 889 542 851.5 569 c 128,-1,96
 814 596 814 596 751.5 621 c 128,-1,97
 689 646 689 646 596 674 c 0,76,77
EndSplineSet
EndChar
StartChar: dieresis
Encoding: 168 168 104
Width: 1229
Flags: W
LayerCount: 2
Back
Fore
SplineSet
273 1366 m 256,0,1
 273 1416 273 1416 306.5 1450 c 128,-1,2
 340 1484 340 1484 399 1484 c 256,3,4
 458 1484 458 1484 491.5 1450 c 128,-1,5
 525 1416 525 1416 525 1366 c 256,6,7
 525 1316 525 1316 491.5 1282.5 c 128,-1,8
 458 1249 458 1249 399 1249 c 256,9,10
 340 1249 340 1249 306.5 1282.5 c 128,-1,11
 273 1316 273 1316 273 1366 c 256,0,1
728 1365 m 256,12,13
 728 1415 728 1415 761 1448.5 c 128,-1,14
 794 1482 794 1482 853 1482 c 256,15,16
 912 1482 912 1482 945.5 1448.5 c 128,-1,17
 979 1415 979 1415 979 1365 c 256,18,19
 979 1315 979 1315 945.5 1281 c 128,-1,20
 912 1247 912 1247 853 1247 c 256,21,22
 794 1247 794 1247 761 1281 c 128,-1,23
 728 1315 728 1315 728 1365 c 256,12,13
EndSplineSet
EndChar
StartChar: copyright
Encoding: 169 169 105
Width: 1229
Flags: W
LayerCount: 2
Back
Fore
SplineSet
863 442 m 1,0,1
 863 323 863 323 795.5 265 c 128,-1,2
 728 207 728 207 612 207 c 0,3,4
 552 207 552 207 503.5 228 c 128,-1,5
 455 249 455 249 421 287 c 128,-1,6
 387 325 387 325 369 378 c 128,-1,7
 351 431 351 431 351 496 c 2,8,-1
 351 586 l 2,9,10
 351 650 351 650 369 703.5 c 128,-1,11
 387 757 387 757 421 795.5 c 128,-1,12
 455 834 455 834 503.5 855.5 c 128,-1,13
 552 877 552 877 612 877 c 0,14,15
 729 877 729 877 796.5 817.5 c 128,-1,16
 864 758 864 758 864 640 c 1,17,-1
 747 640 l 1,18,19
 747 712 747 712 713 743.5 c 128,-1,20
 679 775 679 775 612 775 c 0,21,22
 576 775 576 775 548.5 761 c 128,-1,23
 521 747 521 747 503 722 c 128,-1,24
 485 697 485 697 475.5 662.5 c 128,-1,25
 466 628 466 628 466 587 c 2,26,-1
 466 496 l 2,27,28
 466 454 466 454 475.5 419.5 c 128,-1,29
 485 385 485 385 503 360.5 c 128,-1,30
 521 336 521 336 548.5 322 c 128,-1,31
 576 308 576 308 612 308 c 0,32,33
 679 308 679 308 712.5 338 c 128,-1,34
 746 368 746 368 746 442 c 1,35,-1
 863 442 l 1,0,1
181 542 m 256,36,37
 181 443 181 443 215.5 357 c 128,-1,38
 250 271 250 271 310 207.5 c 128,-1,39
 370 144 370 144 450.5 108 c 128,-1,40
 531 72 531 72 623 72 c 0,41,42
 714 72 714 72 794 108 c 128,-1,43
 874 144 874 144 934 207.5 c 128,-1,44
 994 271 994 271 1028.5 357 c 128,-1,45
 1063 443 1063 443 1063 542 c 256,46,47
 1063 641 1063 641 1028.5 726 c 128,-1,48
 994 811 994 811 934 874 c 128,-1,49
 874 937 874 937 794 972.5 c 128,-1,50
 714 1008 714 1008 623 1008 c 0,51,52
 531 1008 531 1008 450.5 972.5 c 128,-1,53
 370 937 370 937 310 874 c 128,-1,54
 250 811 250 811 215.5 726 c 128,-1,55
 181 641 181 641 181 542 c 256,36,37
90 542 m 0,56,57
 90 660 90 660 132 762.5 c 128,-1,58
 174 865 174 865 246.5 940.5 c 128,-1,59
 319 1016 319 1016 416 1059 c 128,-1,60
 513 1102 513 1102 623 1102 c 256,61,62
 733 1102 733 1102 829.5 1059 c 128,-1,63
 926 1016 926 1016 998 940.5 c 128,-1,64
 1070 865 1070 865 1112 762.5 c 128,-1,65
 1154 660 1154 660 1154 542 c 0,66,67
 1154 423 1154 423 1112 320.5 c 128,-1,68
 1070 218 1070 218 998 142 c 128,-1,69
 926 66 926 66 829.5 23 c 128,-1,70
 733 -20 733 -20 623 -20 c 256,71,72
 513 -20 513 -20 416 23 c 128,-1,73
 319 66 319 66 246.5 142 c 128,-1,74
 174 218 174 218 132 320.5 c 128,-1,75
 90 423 90 423 90 542 c 0,56,57
EndSplineSet
EndChar
StartChar: ordfeminine
Encoding: 170 170 106
Width: 1229
Flags: W
LayerCount: 2
Back
Fore
SplineSet
768 705 m 1,0,1
 753 748 753 748 747 799 c 1,2,3
 733 778 733 778 712.5 758.5 c 128,-1,4
 692 739 692 739 664.5 724 c 128,-1,5
 637 709 637 709 602 700 c 128,-1,6
 567 691 567 691 525 691 c 0,7,8
 465 691 465 691 418.5 707 c 128,-1,9
 372 723 372 723 340.5 753 c 128,-1,10
 309 783 309 783 292.5 825 c 128,-1,11
 276 867 276 867 276 919 c 0,12,13
 276 1030 276 1030 359.5 1090 c 128,-1,14
 443 1150 443 1150 607 1150 c 2,15,-1
 744 1150 l 1,16,-1
 744 1201 l 2,17,18
 744 1263 744 1263 715.5 1295.5 c 128,-1,19
 687 1328 687 1328 628 1328 c 0,20,21
 563 1328 563 1328 526.5 1302.5 c 128,-1,22
 490 1277 490 1277 490 1229 c 1,23,-1
 317 1243 l 1,24,25
 317 1294 317 1294 339 1336.5 c 128,-1,26
 361 1379 361 1379 402 1410 c 128,-1,27
 443 1441 443 1441 500 1458.5 c 128,-1,28
 557 1476 557 1476 628 1476 c 0,29,30
 694 1476 694 1476 747.5 1458.5 c 128,-1,31
 801 1441 801 1441 839 1406.5 c 128,-1,32
 877 1372 877 1372 898 1320.5 c 128,-1,33
 919 1269 919 1269 919 1200 c 2,34,-1
 919 886 l 2,35,36
 919 837 919 837 925 793 c 128,-1,37
 931 749 931 749 945 705 c 1,38,-1
 768 705 l 1,0,1
568 835 m 0,39,40
 594 835 594 835 621.5 843 c 128,-1,41
 649 851 649 851 673.5 864.5 c 128,-1,42
 698 878 698 878 716.5 894.5 c 128,-1,43
 735 911 735 911 744 928 c 1,44,-1
 744 1033 l 1,45,-1
 608 1033 l 2,46,47
 569 1033 569 1033 540 1024 c 128,-1,48
 511 1015 511 1015 491 1000 c 128,-1,49
 471 985 471 985 461 965 c 128,-1,50
 451 945 451 945 451 923 c 0,51,52
 451 881 451 881 479.5 858 c 128,-1,53
 508 835 508 835 568 835 c 0,39,40
EndSplineSet
EndChar
StartChar: macron
Encoding: 175 175 110
AltUni2: 0002c9.ffffffff.0
Width: 1229
Flags: W
LayerCount: 2
Back
Fore
SplineSet
989 1299 m 1,0,-1
 263 1299 l 1,1,-1
 263 1456 l 1,2,-1
 989 1456 l 1,3,-1
 989 1299 l 1,0,-1
EndSplineSet
EndChar
StartChar: degree
Encoding: 176 176 111
Width: 1229
Flags: W
LayerCount: 2
Back
Fore
SplineSet
358 1208 m 256,0,1
 358 1263 358 1263 379 1311.5 c 128,-1,2
 400 1360 400 1360 436 1396.5 c 128,-1,3
 472 1433 472 1433 520 1454.5 c 128,-1,4
 568 1476 568 1476 622 1476 c 0,5,6
 675 1476 675 1476 722 1454.5 c 128,-1,7
 769 1433 769 1433 804.5 1396.5 c 128,-1,8
 840 1360 840 1360 860.5 1311.5 c 128,-1,9
 881 1263 881 1263 881 1208 c 256,10,11
 881 1153 881 1153 860.5 1105 c 128,-1,12
 840 1057 840 1057 804.5 1021 c 128,-1,13
 769 985 769 985 722 964.5 c 128,-1,14
 675 944 675 944 622 944 c 0,15,16
 568 944 568 944 520 964.5 c 128,-1,17
 472 985 472 985 436 1021 c 128,-1,18
 400 1057 400 1057 379 1105 c 128,-1,19
 358 1153 358 1153 358 1208 c 256,0,1
496 1208 m 256,20,21
 496 1181 496 1181 506 1158.5 c 128,-1,22
 516 1136 516 1136 533.5 1119.5 c 128,-1,23
 551 1103 551 1103 573.5 1093.5 c 128,-1,24
 596 1084 596 1084 622 1084 c 0,25,26
 647 1084 647 1084 669.5 1093.5 c 128,-1,27
 692 1103 692 1103 708 1119.5 c 128,-1,28
 724 1136 724 1136 733.5 1158.5 c 128,-1,29
 743 1181 743 1181 743 1208 c 256,30,31
 743 1235 743 1235 733.5 1258.5 c 128,-1,32
 724 1282 724 1282 708 1299.5 c 128,-1,33
 692 1317 692 1317 669.5 1326.5 c 128,-1,34
 647 1336 647 1336 622 1336 c 0,35,36
 596 1336 596 1336 573.5 1326.5 c 128,-1,37
 551 1317 551 1317 533.5 1299.5 c 128,-1,38
 516 1282 516 1282 506 1258.5 c 128,-1,39
 496 1235 496 1235 496 1208 c 256,20,21
EndSplineSet
EndChar
StartChar: plusminus
Encoding: 177 177 112
Width: 1229
Flags: W
LayerCount: 2
Back
Fore
SplineSet
723 896 m 1,0,-1
 1068 896 l 1,1,-1
 1068 700 l 1,2,-1
 723 700 l 1,3,-1
 723 310 l 1,4,-1
 511 310 l 1,5,-1
 511 700 l 1,6,-1
 152 700 l 1,7,-1
 152 896 l 1,8,-1
 511 896 l 1,9,-1
 511 1275 l 1,10,-1
 723 1275 l 1,11,-1
 723 896 l 1,0,-1
1029 1 m 1,12,-1
 182 1 l 1,13,-1
 182 194 l 1,14,-1
 1029 194 l 1,15,-1
 1029 1 l 1,12,-1
EndSplineSet
EndChar
StartChar: twosuperior
Encoding: 178 178 113
Width: 1229
Flags: W
LayerCount: 2
Back
Fore
SplineSet
935 667 m 1,0,-1
 324 667 l 1,1,-1
 324 791 l 1,2,-1
 611 1055 l 2,3,4
 673 1110 673 1110 698 1152.5 c 128,-1,5
 723 1195 723 1195 723 1223 c 0,6,7
 723 1265 723 1265 695.5 1292 c 128,-1,8
 668 1319 668 1319 616 1319 c 0,9,10
 584 1319 584 1319 560.5 1309.5 c 128,-1,11
 537 1300 537 1300 521.5 1283.5 c 128,-1,12
 506 1267 506 1267 498.5 1245.5 c 128,-1,13
 491 1224 491 1224 491 1199 c 1,14,-1
 306 1199 l 1,15,16
 306 1254 306 1254 327 1302.5 c 128,-1,17
 348 1351 348 1351 387 1387.5 c 128,-1,18
 426 1424 426 1424 482.5 1445.5 c 128,-1,19
 539 1467 539 1467 610 1467 c 0,20,21
 752 1467 752 1467 830.5 1402.5 c 128,-1,22
 909 1338 909 1338 909 1224 c 0,23,24
 909 1182 909 1182 895.5 1146.5 c 128,-1,25
 882 1111 882 1111 856 1076.5 c 128,-1,26
 830 1042 830 1042 792 1006 c 128,-1,27
 754 970 754 970 705 929 c 2,28,-1
 563 814 l 1,29,-1
 935 814 l 1,30,-1
 935 667 l 1,0,-1
EndSplineSet
EndChar
StartChar: threesuperior
Encoding: 179 179 114
Width: 1229
Flags: W
LayerCount: 2
Back
Fore
SplineSet
520 1131 m 1,0,-1
 607 1131 l 2,1,2
 671 1131 671 1131 702 1158 c 128,-1,3
 733 1185 733 1185 733 1229 c 0,4,5
 733 1247 733 1247 726.5 1263 c 128,-1,6
 720 1279 720 1279 706 1291 c 128,-1,7
 692 1303 692 1303 670 1310.5 c 128,-1,8
 648 1318 648 1318 617 1318 c 0,9,10
 568 1318 568 1318 535.5 1298 c 128,-1,11
 503 1278 503 1278 503 1243 c 1,12,-1
 318 1243 l 1,13,14
 318 1296 318 1296 341.5 1337.5 c 128,-1,15
 365 1379 365 1379 405 1407.5 c 128,-1,16
 445 1436 445 1436 498.5 1451 c 128,-1,17
 552 1466 552 1466 612 1466 c 0,18,19
 680 1466 680 1466 736.5 1451.5 c 128,-1,20
 793 1437 793 1437 833.5 1408.5 c 128,-1,21
 874 1380 874 1380 896 1337.5 c 128,-1,22
 918 1295 918 1295 918 1240 c 0,23,24
 918 1182 918 1182 882.5 1138 c 128,-1,25
 847 1094 847 1094 783 1070 c 1,26,27
 856 1050 856 1050 894 1005 c 128,-1,28
 932 960 932 960 932 887 c 0,29,30
 932 831 932 831 907.5 788 c 128,-1,31
 883 745 883 745 840 715.5 c 128,-1,32
 797 686 797 686 738.5 670.5 c 128,-1,33
 680 655 680 655 612 655 c 0,34,35
 556 655 556 655 501 668.5 c 128,-1,36
 446 682 446 682 403 710.5 c 128,-1,37
 360 739 360 739 333.5 784.5 c 128,-1,38
 307 830 307 830 307 894 c 1,39,-1
 492 894 l 1,40,41
 492 856 492 856 526.5 829 c 128,-1,42
 561 802 561 802 621 802 c 0,43,44
 685 802 685 802 715.5 830 c 128,-1,45
 746 858 746 858 746 900 c 0,46,47
 746 957 746 957 709.5 980 c 128,-1,48
 673 1003 673 1003 607 1003 c 2,49,-1
 520 1003 l 1,50,-1
 520 1131 l 1,0,-1
EndSplineSet
EndChar
StartChar: acute
Encoding: 180 180 115
Width: 1229
Flags: W
LayerCount: 2
Back
Fore
SplineSet
577 1478 m 1,0,-1
 851 1478 l 1,1,-1
 574 1205 l 1,2,-1
 392 1205 l 1,3,-1
 577 1478 l 1,0,-1
EndSplineSet
EndChar
StartChar: mu
Encoding: 181 181 116
Width: 1229
Flags: W
LayerCount: 2
Back
Fore
SplineSet
417 1082 m 1,0,-1
 417 462 l 2,1,2
 417 371 417 371 432 314.5 c 128,-1,3
 447 258 447 258 473.5 226.5 c 128,-1,4
 500 195 500 195 536 183.5 c 128,-1,5
 572 172 572 172 615 172 c 0,6,7
 706 172 706 172 760.5 204.5 c 128,-1,8
 815 237 815 237 844 295 c 1,9,-1
 844 1082 l 1,10,-1
 1083 1082 l 1,11,-1
 1083 0 l 1,12,-1
 864 0 l 1,13,-1
 857 88 l 1,14,15
 813 36 813 36 753.5 7.5 c 128,-1,16
 694 -21 694 -21 616 -21 c 0,17,18
 494 -21 494 -21 417 35 c 1,19,-1
 417 -416 l 1,20,-1
 178 -416 l 1,21,-1
 178 1082 l 1,22,-1
 417 1082 l 1,0,-1
EndSplineSet
EndChar
StartChar: paragraph
Encoding: 182 182 117
Width: 1229
Flags: W
LayerCount: 2
Back
Fore
SplineSet
786 0 m 1,0,-1
 786 520 l 1,1,-1
 703 520 l 2,2,3
 584 520 584 520 492 555 c 128,-1,4
 400 590 400 590 337.5 652.5 c 128,-1,5
 275 715 275 715 243 801 c 128,-1,6
 211 887 211 887 211 988 c 0,7,8
 211 1088 211 1088 243 1174 c 128,-1,9
 275 1260 275 1260 337.5 1322.5 c 128,-1,10
 400 1385 400 1385 492 1420.5 c 128,-1,11
 584 1456 584 1456 703 1456 c 2,12,-1
 994 1456 l 1,13,-1
 994 0 l 1,14,-1
 786 0 l 1,0,-1
EndSplineSet
EndChar
StartChar: periodcentered
Encoding: 183 183 118
Width: 1229
Flags: W
LayerCount: 2
Back
Fore
SplineSet
496 716 m 256,0,1
 496 744 496 744 505.5 768.5 c 128,-1,2
 515 793 515 793 532.5 811 c 128,-1,3
 550 829 550 829 576 839 c 128,-1,4
 602 849 602 849 635 849 c 256,5,6
 668 849 668 849 694 839 c 128,-1,7
 720 829 720 829 738 811 c 128,-1,8
 756 793 756 793 765.5 768.5 c 128,-1,9
 775 744 775 744 775 716 c 256,10,11
 775 688 775 688 765.5 664 c 128,-1,12
 756 640 756 640 738 622 c 128,-1,13
 720 604 720 604 694 594 c 128,-1,14
 668 584 668 584 635 584 c 256,15,16
 602 584 602 584 576 594 c 128,-1,17
 550 604 550 604 532.5 622 c 128,-1,18
 515 640 515 640 505.5 664 c 128,-1,19
 496 688 496 688 496 716 c 256,0,1
EndSplineSet
EndChar
StartChar: cedilla
Encoding: 184 184 119
Width: 1229
Flags: W
LayerCount: 2
Back
Fore
SplineSet
654 2 m 1,0,-1
 642 -51 l 1,1,2
 670 -56 670 -56 697 -67.5 c 128,-1,3
 724 -79 724 -79 745 -99.5 c 128,-1,4
 766 -120 766 -120 779 -150.5 c 128,-1,5
 792 -181 792 -181 792 -224 c 0,6,7
 792 -274 792 -274 771.5 -315 c 128,-1,8
 751 -356 751 -356 710 -385 c 128,-1,9
 669 -414 669 -414 608.5 -430 c 128,-1,10
 548 -446 548 -446 468 -446 c 1,11,-1
 461 -310 l 1,12,13
 491 -310 491 -310 516 -305 c 128,-1,14
 541 -300 541 -300 559.5 -289.5 c 128,-1,15
 578 -279 578 -279 588.5 -262 c 128,-1,16
 599 -245 599 -245 599 -221 c 0,17,18
 599 -176 599 -176 563.5 -158.5 c 128,-1,19
 528 -141 528 -141 448 -136 c 1,20,-1
 479 2 l 1,21,-1
 654 2 l 1,0,-1
EndSplineSet
EndChar
StartChar: onesuperior
Encoding: 185 185 120
Width: 1229
Flags: W
LayerCount: 2
Back
Fore
SplineSet
773 662 m 1,0,-1
 589 662 l 1,1,-1
 589 1234 l 1,2,-1
 388 1185 l 1,3,-1
 388 1330 l 1,4,-1
 754 1449 l 1,5,-1
 773 1449 l 1,6,-1
 773 662 l 1,0,-1
EndSplineSet
EndChar
StartChar: ordmasculine
Encoding: 186 186 121
Width: 1229
Flags: W
LayerCount: 2
Back
Fore
SplineSet
267 1141 m 2,0,1
 267 1214 267 1214 291 1275.5 c 128,-1,2
 315 1337 315 1337 360 1381.5 c 128,-1,3
 405 1426 405 1426 469 1451 c 128,-1,4
 533 1476 533 1476 613 1476 c 0,5,6
 694 1476 694 1476 758 1451 c 128,-1,7
 822 1426 822 1426 867 1381.5 c 128,-1,8
 912 1337 912 1337 936 1275.5 c 128,-1,9
 960 1214 960 1214 960 1141 c 2,10,-1
 960 1024 l 2,11,12
 960 951 960 951 936 889.5 c 128,-1,13
 912 828 912 828 867.5 784 c 128,-1,14
 823 740 823 740 759 715 c 128,-1,15
 695 690 695 690 615 690 c 256,16,17
 535 690 535 690 470.5 715 c 128,-1,18
 406 740 406 740 361 784 c 128,-1,19
 316 828 316 828 291.5 889.5 c 128,-1,20
 267 951 267 951 267 1024 c 2,21,-1
 267 1141 l 2,0,1
442 1024 m 2,22,23
 442 983 442 983 452.5 949 c 128,-1,24
 463 915 463 915 484.5 889.5 c 128,-1,25
 506 864 506 864 538.5 850 c 128,-1,26
 571 836 571 836 615 836 c 0,27,28
 658 836 658 836 690 850 c 128,-1,29
 722 864 722 864 743 889.5 c 128,-1,30
 764 915 764 915 774.5 949 c 128,-1,31
 785 983 785 983 785 1024 c 2,32,-1
 785 1141 l 2,33,34
 785 1181 785 1181 774.5 1215 c 128,-1,35
 764 1249 764 1249 742.5 1274 c 128,-1,36
 721 1299 721 1299 688.5 1313.5 c 128,-1,37
 656 1328 656 1328 613 1328 c 256,38,39
 570 1328 570 1328 538 1313.5 c 128,-1,40
 506 1299 506 1299 484.5 1274 c 128,-1,41
 463 1249 463 1249 452.5 1215 c 128,-1,42
 442 1181 442 1181 442 1141 c 2,43,-1
 442 1024 l 2,22,23
EndSplineSet
EndChar
StartChar: questiondown
Encoding: 191 191 126
Width: 1229
Flags: W
LayerCount: 2
Back
Fore
SplineSet
761 655 m 1,0,1
 760 584 760 584 756.5 536.5 c 128,-1,2
 753 489 753 489 739.5 452.5 c 128,-1,3
 726 416 726 416 698 383 c 128,-1,4
 670 350 670 350 621 309 c 1,5,6
 591 275 591 275 558.5 239 c 128,-1,7
 526 203 526 203 499.5 164.5 c 128,-1,8
 473 126 473 126 456 84 c 128,-1,9
 439 42 439 42 439 -4 c 0,10,11
 439 -98 439 -98 488.5 -146 c 128,-1,12
 538 -194 538 -194 628 -194 c 0,13,14
 665 -194 665 -194 700.5 -184 c 128,-1,15
 736 -174 736 -174 763 -152 c 128,-1,16
 790 -130 790 -130 807 -96 c 128,-1,17
 824 -62 824 -62 824 -14 c 1,18,-1
 1064 -14 l 1,19,20
 1062 -107 1062 -107 1028.5 -178 c 128,-1,21
 995 -249 995 -249 937 -297 c 128,-1,22
 879 -345 879 -345 800 -369 c 128,-1,23
 721 -393 721 -393 630 -393 c 0,24,25
 528 -393 528 -393 448.5 -367.5 c 128,-1,26
 369 -342 369 -342 313.5 -293 c 128,-1,27
 258 -244 258 -244 229 -172 c 128,-1,28
 200 -100 200 -100 200 -7 c 0,29,30
 200 63 200 63 223.5 124.5 c 128,-1,31
 247 186 247 186 284 240 c 128,-1,32
 321 294 321 294 367.5 342 c 128,-1,33
 414 390 414 390 459 433 c 0,34,35
 489 462 489 462 504.5 485.5 c 128,-1,36
 520 509 520 509 527 533.5 c 128,-1,37
 534 558 534 558 535 587 c 128,-1,38
 536 616 536 616 536 655 c 1,39,-1
 761 655 l 1,0,1
520 963 m 0,40,41
 520 989 520 989 527 1012 c 128,-1,42
 534 1035 534 1035 549 1052 c 128,-1,43
 564 1069 564 1069 588 1078.5 c 128,-1,44
 612 1088 612 1088 646 1088 c 256,45,46
 680 1088 680 1088 704.5 1078.5 c 128,-1,47
 729 1069 729 1069 744.5 1052 c 128,-1,48
 760 1035 760 1035 767.5 1012 c 128,-1,49
 775 989 775 989 775 963 c 0,50,51
 775 938 775 938 767.5 916 c 128,-1,52
 760 894 760 894 744.5 878 c 128,-1,53
 729 862 729 862 704.5 852.5 c 128,-1,54
 680 843 680 843 646 843 c 256,55,56
 612 843 612 843 588 852.5 c 128,-1,57
 564 862 564 862 549 878 c 128,-1,58
 534 894 534 894 527 916 c 128,-1,59
 520 938 520 938 520 963 c 0,40,41
EndSplineSet
EndChar
StartChar: AE
Encoding: 198 198 127
Width: 1229
Flags: W
LayerCount: 2
Back
Fore
SplineSet
1189 0 m 1,0,-1
 652 0 l 1,1,-1
 652 340 l 1,2,-1
 392 340 l 1,3,-1
 286 0 l 1,4,-1
 37 0 l 1,5,-1
 558 1456 l 1,6,-1
 1167 1456 l 1,7,-1
 1167 1262 l 1,8,-1
 880 1262 l 1,9,-1
 880 850 l 1,10,-1
 1136 850 l 1,11,-1
 1136 656 l 1,12,-1
 880 656 l 1,13,-1
 880 193 l 1,14,-1
 1189 193 l 1,15,-1
 1189 0 l 1,0,-1
652 553 m 1,16,-1
 652 1167 l 1,17,-1
 459 553 l 1,18,-1
 652 553 l 1,16,-1
EndSplineSet
EndChar
StartChar: multiply
Encoding: 215 215 128
Width: 1229
Flags: W
LayerCount: 2
Back
Fore
SplineSet
167 363 m 1,0,-1
 484 686 l 1,1,-1
 167 1009 l 1,2,-1
 314 1157 l 1,3,-1
 630 835 l 1,4,-1
 946 1157 l 1,5,-1
 1093 1009 l 1,6,-1
 776 686 l 1,7,-1
 1093 363 l 1,8,-1
 946 215 l 1,9,-1
 630 537 l 1,10,-1
 314 215 l 1,11,-1
 167 363 l 1,0,-1
EndSplineSet
EndChar
StartChar: Oslash
Encoding: 216 216 129
Width: 1229
Flags: W
LayerCount: 2
Back
Fore
SplineSet
1134 634 m 2,0,1
 1134 505 1134 505 1101 386.5 c 128,-1,2
 1068 268 1068 268 1002.5 177.5 c 128,-1,3
 937 87 937 87 838.5 33.5 c 128,-1,4
 740 -20 740 -20 608 -20 c 0,5,6
 520 -20 520 -20 448.5 4.5 c 128,-1,7
 377 29 377 29 319 73 c 1,8,-1
 222 -95 l 1,9,-1
 55 -95 l 1,10,-1
 215 182 l 1,11,12
 152 273 152 273 120.5 389.5 c 128,-1,13
 89 506 89 506 89 634 c 2,14,-1
 89 820 l 2,15,16
 89 906 89 906 103.5 988 c 128,-1,17
 118 1070 118 1070 146.5 1142.5 c 128,-1,18
 175 1215 175 1215 217.5 1276.5 c 128,-1,19
 260 1338 260 1338 317.5 1382 c 128,-1,20
 375 1426 375 1426 447.5 1451 c 128,-1,21
 520 1476 520 1476 607 1476 c 0,22,23
 698 1476 698 1476 772 1450 c 128,-1,24
 846 1424 846 1424 906 1377 c 1,25,-1
 988 1518 l 1,26,-1
 1156 1518 l 1,27,-1
 1010 1265 l 1,28,29
 1072 1175 1072 1175 1102.5 1060.5 c 128,-1,30
 1133 946 1133 946 1134 820 c 2,31,-1
 1134 634 l 2,0,1
330 634 m 2,32,33
 330 580 330 580 335.5 526.5 c 128,-1,34
 341 473 341 473 354 422 c 1,35,-1
 795 1185 l 1,36,37
 762 1225 762 1225 716 1248.5 c 128,-1,38
 670 1272 670 1272 607 1272 c 0,39,40
 526 1272 526 1272 472.5 1232.5 c 128,-1,41
 419 1193 419 1193 387.5 1129 c 128,-1,42
 356 1065 356 1065 343.5 984.5 c 128,-1,43
 331 904 331 904 330 822 c 2,44,-1
 330 634 l 2,32,33
893 822 m 2,45,46
 892 874 892 874 886.5 925 c 128,-1,47
 881 976 881 976 870 1024 c 1,48,-1
 429 263 l 1,49,50
 461 225 461 225 504.5 203.5 c 128,-1,51
 548 182 548 182 608 182 c 0,52,53
 690 182 690 182 744.5 222 c 128,-1,54
 799 262 799 262 832 326 c 128,-1,55
 865 390 865 390 878.5 471 c 128,-1,56
 892 552 892 552 893 634 c 2,57,-1
 893 822 l 2,45,46
EndSplineSet
EndChar
StartChar: Thorn
Encoding: 222 222 130
Width: 1229
Flags: W
LayerCount: 2
Back
Fore
SplineSet
389 1456 m 1,0,-1
 389 1175 l 1,1,-1
 636 1175 l 2,2,3
 760 1175 760 1175 855.5 1142.5 c 128,-1,4
 951 1110 951 1110 1016 1051.5 c 128,-1,5
 1081 993 1081 993 1114.5 913 c 128,-1,6
 1148 833 1148 833 1148 738 c 256,7,8
 1148 643 1148 643 1114.5 563 c 128,-1,9
 1081 483 1081 483 1016 424.5 c 128,-1,10
 951 366 951 366 855.5 333 c 128,-1,11
 760 300 760 300 636 300 c 2,12,-1
 389 300 l 1,13,-1
 389 0 l 1,14,-1
 149 0 l 1,15,-1
 149 1456 l 1,16,-1
 389 1456 l 1,0,-1
389 983 m 1,17,-1
 389 492 l 1,18,-1
 636 492 l 2,19,20
 709 492 709 492 760.5 512.5 c 128,-1,21
 812 533 812 533 845 567.5 c 128,-1,22
 878 602 878 602 893 645.5 c 128,-1,23
 908 689 908 689 908 736 c 256,24,25
 908 783 908 783 893 827.5 c 128,-1,26
 878 872 878 872 845 906.5 c 128,-1,27
 812 941 812 941 760.5 962 c 128,-1,28
 709 983 709 983 636 983 c 2,29,-1
 389 983 l 1,17,-1
EndSplineSet
EndChar
StartChar: germandbls
Encoding: 223 223 131
Width: 1229
Flags: W
LayerCount: 2
Back
Fore
SplineSet
401 0 m 1,0,-1
 163 0 l 1,1,-1
 163 1079 l 2,2,3
 163 1196 163 1196 195.5 1286 c 128,-1,4
 228 1376 228 1376 285.5 1437 c 128,-1,5
 343 1498 343 1498 422.5 1529.5 c 128,-1,6
 502 1561 502 1561 595 1561 c 0,7,8
 673 1561 673 1561 742 1539.5 c 128,-1,9
 811 1518 811 1518 863 1474 c 128,-1,10
 915 1430 915 1430 945.5 1363 c 128,-1,11
 976 1296 976 1296 976 1206 c 0,12,13
 976 1154 976 1154 967 1115.5 c 128,-1,14
 958 1077 958 1077 945 1047 c 128,-1,15
 932 1017 932 1017 916 992 c 128,-1,16
 900 967 900 967 887 942 c 128,-1,17
 874 917 874 917 865 889.5 c 128,-1,18
 856 862 856 862 856 827 c 0,19,20
 856 787 856 787 877.5 752.5 c 128,-1,21
 899 718 899 718 930.5 684.5 c 128,-1,22
 962 651 962 651 999.5 616 c 128,-1,23
 1037 581 1037 581 1068.5 539.5 c 128,-1,24
 1100 498 1100 498 1121.5 447.5 c 128,-1,25
 1143 397 1143 397 1143 334 c 0,26,27
 1143 246 1143 246 1117 179.5 c 128,-1,28
 1091 113 1091 113 1042.5 68.5 c 128,-1,29
 994 24 994 24 925 1.5 c 128,-1,30
 856 -21 856 -21 770 -21 c 0,31,32
 730 -21 730 -21 687 -16.5 c 128,-1,33
 644 -12 644 -12 604.5 -3.5 c 128,-1,34
 565 5 565 5 532.5 17 c 128,-1,35
 500 29 500 29 480 43 c 1,36,-1
 529 236 l 1,37,38
 545 226 545 226 569.5 214.5 c 128,-1,39
 594 203 594 203 624 193 c 128,-1,40
 654 183 654 183 687.5 176.5 c 128,-1,41
 721 170 721 170 755 170 c 0,42,43
 793 170 793 170 821 181.5 c 128,-1,44
 849 193 849 193 867.5 214 c 128,-1,45
 886 235 886 235 895 263.5 c 128,-1,46
 904 292 904 292 904 326 c 0,47,48
 904 370 904 370 882.5 405.5 c 128,-1,49
 861 441 861 441 829.5 474 c 128,-1,50
 798 507 798 507 760.5 540.5 c 128,-1,51
 723 574 723 574 691.5 614.5 c 128,-1,52
 660 655 660 655 638.5 705.5 c 128,-1,53
 617 756 617 756 617 823 c 0,54,55
 617 864 617 864 626.5 897 c 128,-1,56
 636 930 636 930 650 958 c 128,-1,57
 664 986 664 986 681 1011.5 c 128,-1,58
 698 1037 698 1037 712 1064 c 128,-1,59
 726 1091 726 1091 735.5 1121.5 c 128,-1,60
 745 1152 745 1152 745 1190 c 0,61,62
 745 1233 745 1233 731.5 1266.5 c 128,-1,63
 718 1300 718 1300 696 1323 c 128,-1,64
 674 1346 674 1346 646.5 1357.5 c 128,-1,65
 619 1369 619 1369 592 1369 c 0,66,67
 551 1369 551 1369 516.5 1351 c 128,-1,68
 482 1333 482 1333 456 1297 c 128,-1,69
 430 1261 430 1261 415.5 1206 c 128,-1,70
 401 1151 401 1151 401 1077 c 2,71,-1
 401 0 l 1,0,-1
EndSplineSet
Substitution2: "'smcp' Lowercase to Small Capitals lookup 0 subtable" Germandbls.smcp
EndChar
StartChar: ae
Encoding: 230 230 132
Width: 1229
Flags: W
LayerCount: 2
Back
Fore
SplineSet
882 -20 m 0,0,1
 786 -20 786 -20 715 13 c 128,-1,2
 644 46 644 46 598 109 c 1,3,4
 580 83 580 83 555.5 59.5 c 128,-1,5
 531 36 531 36 500.5 18.5 c 128,-1,6
 470 1 470 1 432.5 -9.5 c 128,-1,7
 395 -20 395 -20 351 -20 c 0,8,9
 277 -20 277 -20 219.5 2 c 128,-1,10
 162 24 162 24 123 64.5 c 128,-1,11
 84 105 84 105 64 162.5 c 128,-1,12
 44 220 44 220 44 291 c 0,13,14
 44 460 44 460 154 551 c 128,-1,15
 264 642 264 642 477 642 c 2,16,-1
 503 642 l 1,17,-1
 503 773 l 2,18,19
 503 838 503 838 478.5 873.5 c 128,-1,20
 454 909 454 909 403 909 c 0,21,22
 351 909 351 909 321.5 877.5 c 128,-1,23
 292 846 292 846 292 782 c 1,24,-1
 64 791 l 1,25,26
 64 862 64 862 87 919.5 c 128,-1,27
 110 977 110 977 153 1017.5 c 128,-1,28
 196 1058 196 1058 257.5 1080 c 128,-1,29
 319 1102 319 1102 395 1102 c 0,30,31
 470 1102 470 1102 530.5 1080 c 128,-1,32
 591 1058 591 1058 633 1015 c 1,33,34
 676 1057 676 1057 733.5 1080 c 128,-1,35
 791 1103 791 1103 863 1102 c 0,36,37
 940 1102 940 1102 1001.5 1075 c 128,-1,38
 1063 1048 1063 1048 1106 998 c 128,-1,39
 1149 948 1149 948 1172 876.5 c 128,-1,40
 1195 805 1195 805 1195 715 c 2,41,-1
 1195 472 l 1,42,-1
 719 472 l 1,43,-1
 719 387 l 2,44,45
 719 284 719 284 767 227.5 c 128,-1,46
 815 171 815 171 927 171 c 0,47,48
 963 171 963 171 990.5 176.5 c 128,-1,49
 1018 182 1018 182 1041 190 c 128,-1,50
 1064 198 1064 198 1083.5 208.5 c 128,-1,51
 1103 219 1103 219 1121 228 c 1,52,-1
 1172 60 l 1,53,54
 1156 48 1156 48 1129.5 34 c 128,-1,55
 1103 20 1103 20 1066.5 8 c 128,-1,56
 1030 -4 1030 -4 983.5 -12 c 128,-1,57
 937 -20 937 -20 882 -20 c 0,0,1
719 642 m 1,58,-1
 972 642 l 1,59,-1
 972 763 l 2,60,61
 972 794 972 794 964 821 c 128,-1,62
 956 848 956 848 941 867.5 c 128,-1,63
 926 887 926 887 904 898 c 128,-1,64
 882 909 882 909 853 909 c 0,65,66
 815 909 815 909 789.5 893.5 c 128,-1,67
 764 878 764 878 748 850 c 128,-1,68
 732 822 732 822 725.5 784.5 c 128,-1,69
 719 747 719 747 719 704 c 2,70,-1
 719 642 l 1,58,-1
406 162 m 0,71,72
 430 162 430 162 456 174 c 128,-1,73
 482 186 482 186 503 206 c 1,74,-1
 503 476 l 1,75,-1
 479 476 l 2,76,77
 432 476 432 476 395 460.5 c 128,-1,78
 358 445 358 445 332.5 419 c 128,-1,79
 307 393 307 393 293.5 358.5 c 128,-1,80
 280 324 280 324 280 287 c 0,81,82
 280 233 280 233 311.5 197.5 c 128,-1,83
 343 162 343 162 406 162 c 0,71,72
EndSplineSet
EndChar
StartChar: eth
Encoding: 240 240 133
Width: 1229
Flags: W
LayerCount: 2
Back
Fore
SplineSet
877 1275 m 1,0,1
 976 1158 976 1158 1031.5 998.5 c 128,-1,2
 1087 839 1087 839 1087 641 c 2,3,-1
 1087 577 l 2,4,5
 1087 439 1087 439 1047 328 c 128,-1,6
 1007 217 1007 217 936.5 139.5 c 128,-1,7
 866 62 866 62 770 20.5 c 128,-1,8
 674 -21 674 -21 563 -21 c 0,9,10
 450 -21 450 -21 356 17 c 128,-1,11
 262 55 262 55 195 121.5 c 128,-1,12
 128 188 128 188 91 277 c 128,-1,13
 54 366 54 366 54 468 c 0,14,15
 54 582 54 582 90 675 c 128,-1,16
 126 768 126 768 190.5 834 c 128,-1,17
 255 900 255 900 345.5 936.5 c 128,-1,18
 436 973 436 973 545 973 c 0,19,20
 626 973 626 973 696.5 945.5 c 128,-1,21
 767 918 767 918 822 871 c 1,22,23
 800 963 800 963 762 1034.5 c 128,-1,24
 724 1106 724 1106 673 1160 c 1,25,-1
 416 1016 l 1,26,-1
 338 1124 l 1,27,-1
 565 1252 l 1,28,29
 495 1297 495 1297 420 1323 c 1,30,-1
 494 1516 l 1,31,32
 653 1476 653 1476 779 1372 c 1,33,-1
 994 1493 l 1,34,-1
 1072 1384 l 1,35,-1
 877 1275 l 1,0,1
847 643 m 2,36,37
 847 651 847 651 847 658.5 c 128,-1,38
 847 666 847 666 846 674 c 0,39,40
 830 696 830 696 804 716.5 c 128,-1,41
 778 737 778 737 741 752.5 c 128,-1,42
 704 768 704 768 657 777.5 c 128,-1,43
 610 787 610 787 552 787 c 0,44,45
 492 787 492 787 444.5 761 c 128,-1,46
 397 735 397 735 363 691 c 128,-1,47
 329 647 329 647 311 589.5 c 128,-1,48
 293 532 293 532 293 468 c 0,49,50
 293 411 293 411 311 357.5 c 128,-1,51
 329 304 329 304 364 262 c 128,-1,52
 399 220 399 220 450 195 c 128,-1,53
 501 170 501 170 567 170 c 0,54,55
 631 170 631 170 682.5 198.5 c 128,-1,56
 734 227 734 227 770.5 278.5 c 128,-1,57
 807 330 807 330 827 402.5 c 128,-1,58
 847 475 847 475 847 564 c 2,59,-1
 847 643 l 2,36,37
EndSplineSet
Substitution2: "'smcp' Lowercase to Small Capitals lookup 0 subtable" Eth.smcp
EndChar
StartChar: divide
Encoding: 247 247 134
Width: 1229
Flags: W
LayerCount: 2
Back
Fore
SplineSet
1122 583 m 1,0,-1
 111 583 l 1,1,-1
 111 794 l 1,2,-1
 1122 794 l 1,3,-1
 1122 583 l 1,0,-1
482 1094 m 0,4,5
 482 1121 482 1121 491 1144 c 128,-1,6
 500 1167 500 1167 517 1184 c 128,-1,7
 534 1201 534 1201 559 1210.5 c 128,-1,8
 584 1220 584 1220 616 1220 c 256,9,10
 648 1220 648 1220 673 1210.5 c 128,-1,11
 698 1201 698 1201 715 1184 c 128,-1,12
 732 1167 732 1167 741 1144 c 128,-1,13
 750 1121 750 1121 750 1094 c 0,14,15
 750 1040 750 1040 715 1004.5 c 128,-1,16
 680 969 680 969 616 969 c 256,17,18
 552 969 552 969 517 1004.5 c 128,-1,19
 482 1040 482 1040 482 1094 c 0,4,5
480 279 m 256,20,21
 480 333 480 333 515 369.5 c 128,-1,22
 550 406 550 406 614 406 c 256,23,24
 678 406 678 406 713 369.5 c 128,-1,25
 748 333 748 333 748 279 c 256,26,27
 748 225 748 225 713 189.5 c 128,-1,28
 678 154 678 154 614 154 c 256,29,30
 550 154 550 154 515 189.5 c 128,-1,31
 480 225 480 225 480 279 c 256,20,21
EndSplineSet
EndChar
StartChar: oslash
Encoding: 248 248 135
Width: 1229
Flags: W
LayerCount: 2
Back
Fore
SplineSet
111 551 m 2,0,1
 111 668 111 668 145.5 769 c 128,-1,2
 180 870 180 870 244.5 944 c 128,-1,3
 309 1018 309 1018 402 1060 c 128,-1,4
 495 1102 495 1102 613 1102 c 0,5,6
 720 1102 720 1102 811 1065 c 1,7,-1
 883 1212 l 1,8,-1
 1027 1212 l 1,9,-1
 923 1001 l 1,10,11
 1017 926 1017 926 1066.5 810 c 128,-1,12
 1116 694 1116 694 1116 551 c 2,13,-1
 1116 530 l 2,14,15
 1116 412 1116 412 1082 311 c 128,-1,16
 1048 210 1048 210 983.5 136.5 c 128,-1,17
 919 63 919 63 826 21 c 128,-1,18
 733 -21 733 -21 615 -21 c 0,19,20
 517 -21 517 -21 435 8 c 1,21,-1
 364 -138 l 1,22,-1
 220 -138 l 1,23,-1
 321 67 l 1,24,25
 219 140 219 140 165 260 c 128,-1,26
 111 380 111 380 111 530 c 2,27,-1
 111 551 l 2,0,1
350 530 m 2,28,29
 350 452 350 452 367 385 c 128,-1,30
 384 318 384 318 419 268 c 1,31,-1
 722 885 l 1,32,33
 699 896 699 896 671.5 902.5 c 128,-1,34
 644 909 644 909 613 909 c 0,35,36
 545 909 545 909 495 880 c 128,-1,37
 445 851 445 851 413 802 c 128,-1,38
 381 753 381 753 365.5 688 c 128,-1,39
 350 623 350 623 350 551 c 2,40,-1
 350 530 l 2,28,29
877 551 m 2,41,42
 877 620 877 620 863 681.5 c 128,-1,43
 849 743 849 743 820 791 c 1,44,-1
 523 186 l 1,45,46
 562 170 562 170 615 170 c 0,47,48
 682 170 682 170 731.5 198.5 c 128,-1,49
 781 227 781 227 813.5 276.5 c 128,-1,50
 846 326 846 326 861.5 391 c 128,-1,51
 877 456 877 456 877 530 c 2,52,-1
 877 551 l 2,41,42
EndSplineSet
EndChar
StartChar: thorn
Encoding: 254 254 136
Width: 1229
Flags: W
LayerCount: 2
Back
Fore
SplineSet
1102 530 m 2,0,1
 1102 412 1102 412 1074.5 311 c 128,-1,2
 1047 210 1047 210 993.5 136.5 c 128,-1,3
 940 63 940 63 861.5 21.5 c 128,-1,4
 783 -20 783 -20 681 -20 c 0,5,6
 588 -20 588 -20 517.5 10 c 128,-1,7
 447 40 447 40 395 97 c 1,8,-1
 395 -416 l 1,9,-1
 156 -416 l 1,10,-1
 156 1551 l 1,11,-1
 395 1551 l 1,12,-1
 395 982 l 1,13,14
 447 1040 447 1040 517 1071 c 128,-1,15
 587 1102 587 1102 679 1102 c 0,16,17
 782 1102 782 1102 861 1062 c 128,-1,18
 940 1022 940 1022 993.5 949.5 c 128,-1,19
 1047 877 1047 877 1074.5 775.5 c 128,-1,20
 1102 674 1102 674 1102 551 c 2,21,-1
 1102 530 l 2,0,1
863 551 m 2,22,23
 863 624 863 624 848.5 688.5 c 128,-1,24
 834 753 834 753 803.5 801.5 c 128,-1,25
 773 850 773 850 725 878 c 128,-1,26
 677 906 677 906 611 906 c 0,27,28
 530 906 530 906 478 871.5 c 128,-1,29
 426 837 426 837 395 780 c 1,30,-1
 395 299 l 1,31,32
 425 242 425 242 477 206.5 c 128,-1,33
 529 171 529 171 613 171 c 0,34,35
 679 171 679 171 726.5 200 c 128,-1,36
 774 229 774 229 804.5 278 c 128,-1,37
 835 327 835 327 849 392 c 128,-1,38
 863 457 863 457 863 530 c 2,39,-1
 863 551 l 2,22,23
EndSplineSet
EndChar
StartChar: Aogonek
Encoding: 260 260 549
Width: 1229
Flags: W
LayerCount: 2
Back
Fore
SplineSet
736 1456 m 1,0,-1
 1200 0 l 1,1,-1
 1139 0 l 1,2,3
 1054 -39 1054 -39 1015 -88 c 128,-1,4
 976 -137 976 -137 976 -197 c 0,5,6
 976 -228 976 -228 992 -248 c 128,-1,7
 1008 -268 1008 -268 1048 -268 c 0,8,9
 1079 -268 1079 -268 1101.5 -260 c 128,-1,10
 1124 -252 1124 -252 1139 -245 c 1,11,-1
 1179 -386 l 1,12,13
 1151 -401 1151 -401 1107 -415.5 c 128,-1,14
 1063 -430 1063 -430 994 -430 c 0,15,16
 950 -430 950 -430 912 -417 c 128,-1,17
 874 -404 874 -404 845.5 -379 c 128,-1,18
 817 -354 817 -354 800.5 -316.5 c 128,-1,19
 784 -279 784 -279 784 -230 c 0,20,21
 784 -164 784 -164 826 -97.5 c 128,-1,22
 868 -31 868 -31 947 21 c 1,23,-1
 855 338 l 1,24,-1
 400 338 l 1,25,-1
 300 0 l 1,26,-1
 52 0 l 1,27,-1
 525 1456 l 1,28,-1
 736 1456 l 1,0,-1
461 543 m 1,29,-1
 795 543 l 1,30,-1
 630 1114 l 1,31,-1
 461 543 l 1,29,-1
EndSplineSet
Substitution2: "'smcp' Lowercase to Small Capitals lookup 0 subtable" Aogonek.smcp
EndChar
StartChar: aogonek
Encoding: 261 261 550
Width: 1229
Flags: W
LayerCount: 2
Back
Fore
SplineSet
840 12 m 1,0,1
 825 50 825 50 817 105 c 1,2,3
 792 79 792 79 760.5 56.5 c 128,-1,4
 729 34 729 34 690.5 17 c 128,-1,5
 652 0 652 0 607.5 -10 c 128,-1,6
 563 -20 563 -20 512 -20 c 0,7,8
 426 -20 426 -20 356.5 4.5 c 128,-1,9
 287 29 287 29 237.5 72.5 c 128,-1,10
 188 116 188 116 161 175 c 128,-1,11
 134 234 134 234 134 303 c 0,12,13
 134 477 134 477 263.5 569 c 128,-1,14
 393 661 393 661 635 661 c 2,15,-1
 810 661 l 1,16,-1
 810 732 l 2,17,18
 810 818 810 818 752 868.5 c 128,-1,19
 694 919 694 919 588 919 c 0,20,21
 540 919 540 919 504 907.5 c 128,-1,22
 468 896 468 896 444 876 c 128,-1,23
 420 856 420 856 408 829 c 128,-1,24
 396 802 396 802 396 771 c 1,25,-1
 157 771 l 1,26,27
 157 834 157 834 186.5 893.5 c 128,-1,28
 216 953 216 953 273 999.5 c 128,-1,29
 330 1046 330 1046 412.5 1074 c 128,-1,30
 495 1102 495 1102 601 1102 c 0,31,32
 697 1102 697 1102 779 1078.5 c 128,-1,33
 861 1055 861 1055 921 1008.5 c 128,-1,34
 981 962 981 962 1015 892.5 c 128,-1,35
 1049 823 1049 823 1049 730 c 2,36,-1
 1049 248 l 2,37,38
 1049 177 1049 177 1059.5 118.5 c 128,-1,39
 1070 60 1070 60 1090 17 c 1,40,-1
 1090 0 l 1,41,-1
 1045 0 l 1,42,43
 960 -39 960 -39 921 -88 c 128,-1,44
 882 -137 882 -137 882 -197 c 0,45,46
 882 -228 882 -228 898 -248 c 128,-1,47
 914 -268 914 -268 954 -268 c 0,48,49
 985 -268 985 -268 1007.5 -260 c 128,-1,50
 1030 -252 1030 -252 1045 -245 c 1,51,-1
 1085 -386 l 1,52,53
 1057 -401 1057 -401 1013 -415.5 c 128,-1,54
 969 -430 969 -430 900 -430 c 0,55,56
 856 -430 856 -430 818 -417 c 128,-1,57
 780 -404 780 -404 751.5 -379 c 128,-1,58
 723 -354 723 -354 706.5 -316.5 c 128,-1,59
 690 -279 690 -279 690 -230 c 0,60,61
 690 -167 690 -167 728.5 -103 c 128,-1,62
 767 -39 767 -39 840 12 c 1,0,1
557 173 m 0,63,64
 603 173 603 173 643.5 184.5 c 128,-1,65
 684 196 684 196 716.5 214.5 c 128,-1,66
 749 233 749 233 772.5 257 c 128,-1,67
 796 281 796 281 810 306 c 1,68,-1
 810 509 l 1,69,-1
 658 509 l 2,70,71
 512 509 512 509 442.5 462 c 128,-1,72
 373 415 373 415 373 328 c 0,73,74
 373 295 373 295 384 266.5 c 128,-1,75
 395 238 395 238 417.5 217.5 c 128,-1,76
 440 197 440 197 474.5 185 c 128,-1,77
 509 173 509 173 557 173 c 0,63,64
EndSplineSet
Substitution2: "'smcp' Lowercase to Small Capitals lookup 0 subtable" Aogonek.smcp
EndChar
StartChar: Dcroat
Encoding: 272 272 485
Width: 1259
Flags: W
LayerCount: 2
Back
Fore
SplineSet
167 0 m 1,0,-1
 167 651 l 1,1,-1
 -35 651 l 1,2,-1
 -35 821 l 1,3,-1
 167 821 l 1,4,-1
 167 1456 l 1,5,-1
 523 1456 l 2,6,7
 673 1455 673 1455 792.5 1406 c 128,-1,8
 912 1357 912 1357 995.5 1268 c 128,-1,9
 1079 1179 1079 1179 1124 1055.5 c 128,-1,10
 1169 932 1169 932 1170 782 c 2,11,-1
 1170 672 l 2,12,13
 1169 522 1169 522 1124 398.5 c 128,-1,14
 1079 275 1079 275 996 186.5 c 128,-1,15
 913 98 913 98 795 49 c 128,-1,16
 677 0 677 0 530 0 c 2,17,-1
 167 0 l 1,0,-1
632 651 m 1,18,-1
 411 651 l 1,19,-1
 411 193 l 1,20,-1
 530 193 l 2,21,22
 629 194 629 194 703 228.5 c 128,-1,23
 777 263 777 263 826.5 325.5 c 128,-1,24
 876 388 876 388 900.5 476 c 128,-1,25
 925 564 925 564 926 672 c 2,26,-1
 926 784 l 2,27,28
 925 889 925 889 900.5 976 c 128,-1,29
 876 1063 876 1063 826 1126.5 c 128,-1,30
 776 1190 776 1190 700.5 1225.5 c 128,-1,31
 625 1261 625 1261 523 1262 c 2,32,-1
 411 1262 l 1,33,-1
 411 821 l 1,34,-1
 632 821 l 1,35,-1
 632 651 l 1,18,-1
EndSplineSet
Substitution2: "'smcp' Lowercase to Small Capitals lookup 0 subtable" Dcroat.smcp
EndChar
StartChar: dcroat
Encoding: 273 273 995
Width: 1259
Flags: W
LayerCount: 2
Back
Fore
SplineSet
1252 1224 m 1,0,-1
 1069 1224 l 1,1,-1
 1069 0 l 1,2,-1
 852 0 l 1,3,-1
 840 110 l 1,4,5
 789 47 789 47 717.5 13.5 c 128,-1,6
 646 -20 646 -20 551 -20 c 0,7,8
 453 -20 453 -20 374 21.5 c 128,-1,9
 295 63 295 63 239.5 136 c 128,-1,10
 184 209 184 209 153.5 309.5 c 128,-1,11
 123 410 123 410 123 528 c 2,12,-1
 123 549 l 2,13,14
 123 672 123 672 153 774 c 128,-1,15
 183 876 183 876 239 949 c 128,-1,16
 295 1022 295 1022 374.5 1062 c 128,-1,17
 454 1102 454 1102 553 1102 c 0,18,19
 642 1102 642 1102 710 1071.5 c 128,-1,20
 778 1041 778 1041 829 984 c 1,21,-1
 829 1224 l 1,22,-1
 585 1224 l 1,23,-1
 585 1394 l 1,24,-1
 829 1394 l 1,25,-1
 829 1536 l 1,26,-1
 1069 1536 l 1,27,-1
 1069 1394 l 1,28,-1
 1252 1394 l 1,29,-1
 1252 1224 l 1,0,-1
362 528 m 2,30,31
 362 455 362 455 376 391 c 128,-1,32
 390 327 390 327 420.5 279 c 128,-1,33
 451 231 451 231 498.5 203.5 c 128,-1,34
 546 176 546 176 612 176 c 0,35,36
 694 176 694 176 746 211.5 c 128,-1,37
 798 247 798 247 829 307 c 1,38,-1
 829 777 l 1,39,40
 798 836 798 836 745.5 871 c 128,-1,41
 693 906 693 906 614 906 c 0,42,43
 547 906 547 906 499.5 878 c 128,-1,44
 452 850 452 850 421.5 801 c 128,-1,45
 391 752 391 752 376.5 687 c 128,-1,46
 362 622 362 622 362 549 c 2,47,-1
 362 528 l 2,30,31
EndSplineSet
Substitution2: "'smcp' Lowercase to Small Capitals lookup 0 subtable" Dcroat.smcp
EndChar
StartChar: Eogonek
Encoding: 280 280 567
Width: 1229
Flags: W
LayerCount: 2
Back
Fore
SplineSet
1002 653 m 1,0,-1
 403 653 l 1,1,-1
 403 196 l 1,2,-1
 1104 196 l 1,3,-1
 1104 0 l 1,4,-1
 1002 0 l 1,5,6
 917 -39 917 -39 878 -88 c 128,-1,7
 839 -137 839 -137 839 -197 c 0,8,9
 839 -228 839 -228 855 -248 c 128,-1,10
 871 -268 871 -268 911 -268 c 0,11,12
 942 -268 942 -268 964.5 -260 c 128,-1,13
 987 -252 987 -252 1002 -245 c 1,14,-1
 1042 -386 l 1,15,16
 1014 -401 1014 -401 970 -415.5 c 128,-1,17
 926 -430 926 -430 857 -430 c 0,18,19
 813 -430 813 -430 775 -417 c 128,-1,20
 737 -404 737 -404 708.5 -379 c 128,-1,21
 680 -354 680 -354 663.5 -316.5 c 128,-1,22
 647 -279 647 -279 647 -230 c 0,23,24
 647 -170 647 -170 681 -110.5 c 128,-1,25
 715 -51 715 -51 780 0 c 1,26,-1
 162 0 l 1,27,-1
 162 1456 l 1,28,-1
 1097 1456 l 1,29,-1
 1097 1258 l 1,30,-1
 403 1258 l 1,31,-1
 403 847 l 1,32,-1
 1002 847 l 1,33,-1
 1002 653 l 1,0,-1
EndSplineSet
Substitution2: "'smcp' Lowercase to Small Capitals lookup 0 subtable" Eogonek.smcp
EndChar
StartChar: eogonek
Encoding: 281 281 568
Width: 1229
Flags: W
LayerCount: 2
Back
Fore
SplineSet
1095 184 m 1,0,1
 1063 136 1063 136 1008.5 92 c 128,-1,2
 954 48 954 48 878 19 c 1,3,4
 793 -20 793 -20 754 -69 c 128,-1,5
 715 -118 715 -118 715 -178 c 0,6,7
 715 -209 715 -209 731 -229 c 128,-1,8
 747 -249 747 -249 787 -249 c 0,9,10
 818 -249 818 -249 840.5 -241 c 128,-1,11
 863 -233 863 -233 878 -226 c 1,12,-1
 918 -367 l 1,13,14
 890 -382 890 -382 846 -396.5 c 128,-1,15
 802 -411 802 -411 733 -411 c 0,16,17
 689 -411 689 -411 651 -398 c 128,-1,18
 613 -385 613 -385 584.5 -360 c 128,-1,19
 556 -335 556 -335 539.5 -297.5 c 128,-1,20
 523 -260 523 -260 523 -211 c 256,21,22
 523 -162 523 -162 546 -112.5 c 128,-1,23
 569 -63 569 -63 614 -18 c 1,24,25
 503 -11 503 -11 412.5 31.5 c 128,-1,26
 322 74 322 74 257.5 143 c 128,-1,27
 193 212 193 212 157.5 304 c 128,-1,28
 122 396 122 396 122 502 c 2,29,-1
 122 543 l 2,30,31
 122 672 122 672 163.5 775 c 128,-1,32
 205 878 205 878 274.5 951 c 128,-1,33
 344 1024 344 1024 436.5 1063 c 128,-1,34
 529 1102 529 1102 631 1102 c 0,35,36
 749 1102 749 1102 839 1062.5 c 128,-1,37
 929 1023 929 1023 989.5 951.5 c 128,-1,38
 1050 880 1050 880 1081 782 c 128,-1,39
 1112 684 1112 684 1112 567 c 2,40,-1
 1112 466 l 1,41,-1
 362 466 l 1,42,43
 368 403 368 403 393 349 c 128,-1,44
 418 295 418 295 458.5 255.5 c 128,-1,45
 499 216 499 216 553.5 193.5 c 128,-1,46
 608 171 608 171 673 171 c 0,47,48
 764 171 764 171 840.5 207 c 128,-1,49
 917 243 917 243 965 306 c 1,50,-1
 1095 184 l 1,0,1
630 909 m 0,51,52
 580 909 580 909 537 891 c 128,-1,53
 494 873 494 873 460 838.5 c 128,-1,54
 426 804 426 804 402.5 754.5 c 128,-1,55
 379 705 379 705 369 642 c 1,56,-1
 876 642 l 1,57,-1
 876 660 l 2,58,59
 873 708 873 708 857.5 752.5 c 128,-1,60
 842 797 842 797 812 832 c 128,-1,61
 782 867 782 867 736.5 888 c 128,-1,62
 691 909 691 909 630 909 c 0,51,52
EndSplineSet
Substitution2: "'smcp' Lowercase to Small Capitals lookup 0 subtable" Eogonek.smcp
EndChar
StartChar: Hbar
Encoding: 294 294 137
Width: 1229
Flags: W
LayerCount: 2
Back
Fore
SplineSet
1066 1196 m 1,0,-1
 1227 1196 l 1,1,-1
 1227 1036 l 1,2,-1
 1066 1036 l 1,3,-1
 1066 0 l 1,4,-1
 832 0 l 1,5,-1
 832 650 l 1,6,-1
 337 650 l 1,7,-1
 337 0 l 1,8,-1
 104 0 l 1,9,-1
 104 1036 l 1,10,-1
 22 1036 l 1,11,-1
 22 1196 l 1,12,-1
 104 1196 l 1,13,-1
 104 1456 l 1,14,-1
 337 1456 l 1,15,-1
 337 1196 l 1,16,-1
 832 1196 l 1,17,-1
 832 1456 l 1,18,-1
 1066 1456 l 1,19,-1
 1066 1196 l 1,0,-1
337 847 m 1,20,-1
 832 847 l 1,21,-1
 832 1036 l 1,22,-1
 337 1036 l 1,23,-1
 337 847 l 1,20,-1
EndSplineSet
EndChar
StartChar: hbar
Encoding: 295 295 487
Width: 1259
Flags: W
LayerCount: 2
Back
Fore
SplineSet
686 1222 m 1,0,-1
 424 1222 l 1,1,-1
 424 932 l 1,2,3
 480 1012 480 1012 560.5 1057 c 128,-1,4
 641 1102 641 1102 740 1102 c 0,5,6
 824 1102 824 1102 894.5 1077 c 128,-1,7
 965 1052 965 1052 1015 999.5 c 128,-1,8
 1065 947 1065 947 1093 864.5 c 128,-1,9
 1121 782 1121 782 1121 667 c 2,10,-1
 1121 0 l 1,11,-1
 882 0 l 1,12,-1
 882 669 l 2,13,14
 882 731 882 731 866.5 775.5 c 128,-1,15
 851 820 851 820 822.5 849 c 128,-1,16
 794 878 794 878 753 892 c 128,-1,17
 712 906 712 906 660 906 c 0,18,19
 582 906 582 906 522 873.5 c 128,-1,20
 462 841 462 841 424 786 c 1,21,-1
 424 0 l 1,22,-1
 185 0 l 1,23,-1
 185 1222 l 1,24,-1
 19 1222 l 1,25,-1
 19 1392 l 1,26,-1
 185 1392 l 1,27,-1
 185 1536 l 1,28,-1
 424 1536 l 1,29,-1
 424 1392 l 1,30,-1
 686 1392 l 1,31,-1
 686 1222 l 1,0,-1
EndSplineSet
EndChar
StartChar: Iogonek
Encoding: 302 302 587
Width: 1229
Flags: W
LayerCount: 2
Back
Fore
SplineSet
181 1456 m 1,0,-1
 1047 1456 l 1,1,-1
 1047 1257 l 1,2,-1
 732 1257 l 1,3,-1
 732 198 l 1,4,-1
 1047 198 l 1,5,-1
 1047 0 l 1,6,-1
 772 0 l 1,7,8
 687 -39 687 -39 648 -88 c 128,-1,9
 609 -137 609 -137 609 -197 c 0,10,11
 609 -228 609 -228 625 -248 c 128,-1,12
 641 -268 641 -268 681 -268 c 0,13,14
 712 -268 712 -268 734.5 -260 c 128,-1,15
 757 -252 757 -252 772 -245 c 1,16,-1
 812 -386 l 1,17,18
 784 -401 784 -401 740 -415.5 c 128,-1,19
 696 -430 696 -430 627 -430 c 0,20,21
 583 -430 583 -430 545 -417 c 128,-1,22
 507 -404 507 -404 478.5 -379 c 128,-1,23
 450 -354 450 -354 433.5 -316.5 c 128,-1,24
 417 -279 417 -279 417 -230 c 0,25,26
 417 -170 417 -170 451 -110.5 c 128,-1,27
 485 -51 485 -51 550 0 c 1,28,-1
 181 0 l 1,29,-1
 181 198 l 1,30,-1
 489 198 l 1,31,-1
 489 1257 l 1,32,-1
 181 1257 l 1,33,-1
 181 1456 l 1,0,-1
EndSplineSet
Substitution2: "'smcp' Lowercase to Small Capitals lookup 0 subtable" Iogonek.smcp
EndChar
StartChar: iogonek
Encoding: 303 303 588
Width: 1229
Flags: W
LayerCount: 2
Back
Fore
SplineSet
207 1082 m 1,0,-1
 784 1082 l 1,1,-1
 784 198 l 1,2,-1
 1105 198 l 1,3,-1
 1105 0 l 1,4,-1
 764 0 l 1,5,6
 679 -39 679 -39 640 -88 c 128,-1,7
 601 -137 601 -137 601 -197 c 0,8,9
 601 -228 601 -228 617 -248 c 128,-1,10
 633 -268 633 -268 673 -268 c 0,11,12
 704 -268 704 -268 726.5 -260 c 128,-1,13
 749 -252 749 -252 764 -245 c 1,14,-1
 804 -386 l 1,15,16
 776 -401 776 -401 732 -415.5 c 128,-1,17
 688 -430 688 -430 619 -430 c 0,18,19
 575 -430 575 -430 537 -417 c 128,-1,20
 499 -404 499 -404 470.5 -379 c 128,-1,21
 442 -354 442 -354 425.5 -316.5 c 128,-1,22
 409 -279 409 -279 409 -230 c 0,23,24
 409 -170 409 -170 443 -110.5 c 128,-1,25
 477 -51 477 -51 542 0 c 1,26,-1
 207 0 l 1,27,-1
 207 198 l 1,28,-1
 543 198 l 1,29,-1
 543 883 l 1,30,-1
 207 883 l 1,31,-1
 207 1082 l 1,0,-1
523 1362 m 256,32,33
 523 1418 523 1418 559 1454.5 c 128,-1,34
 595 1491 595 1491 660 1491 c 0,35,36
 726 1491 726 1491 762.5 1454.5 c 128,-1,37
 799 1418 799 1418 799 1362 c 256,38,39
 799 1306 799 1306 762.5 1269.5 c 128,-1,40
 726 1233 726 1233 660 1233 c 0,41,42
 595 1233 595 1233 559 1269.5 c 128,-1,43
 523 1306 523 1306 523 1362 c 256,32,33
EndSplineSet
Substitution2: "'smcp' Lowercase to Small Capitals lookup 0 subtable" Iogonek.smcp
EndChar
StartChar: IJ
Encoding: 306 306 139
Width: 1229
Flags: W
LayerCount: 2
Back
Fore
SplineSet
326 0 m 1,0,-1
 126 0 l 1,1,-1
 126 1456 l 1,2,-1
 326 1456 l 1,3,-1
 326 0 l 1,0,-1
902 1456 m 1,4,-1
 1102 1456 l 1,5,-1
 1102 322 l 2,6,7
 1102 242 1102 242 1081.5 178.5 c 128,-1,8
 1061 115 1061 115 1018.5 71 c 128,-1,9
 976 27 976 27 911.5 4 c 128,-1,10
 847 -19 847 -19 760 -19 c 0,11,12
 688 -19 688 -19 627 1.5 c 128,-1,13
 566 22 566 22 521.5 64 c 128,-1,14
 477 106 477 106 452.5 170 c 128,-1,15
 428 234 428 234 428 321 c 1,16,-1
 628 321 l 1,17,18
 628 227 628 227 664 184 c 128,-1,19
 700 141 700 141 760 141 c 0,20,21
 801 141 801 141 828.5 153.5 c 128,-1,22
 856 166 856 166 872.5 189.5 c 128,-1,23
 889 213 889 213 895.5 246.5 c 128,-1,24
 902 280 902 280 902 322 c 2,25,-1
 902 1456 l 1,4,-1
EndSplineSet
EndChar
StartChar: ij
Encoding: 307 307 140
Width: 1229
Flags: W
LayerCount: 2
Back
Fore
SplineSet
688 1082 m 1,0,-1
 1104 1082 l 1,1,-1
 1104 -6 l 2,2,3
 1104 -110 1104 -110 1075.5 -190 c 128,-1,4
 1047 -270 1047 -270 992 -324 c 128,-1,5
 937 -378 937 -378 858 -406 c 128,-1,6
 779 -434 779 -434 678 -434 c 0,7,8
 621 -434 621 -434 571 -430.5 c 128,-1,9
 521 -427 521 -427 466 -417 c 1,10,-1
 480 -250 l 1,11,12
 497 -253 497 -253 522.5 -255.5 c 128,-1,13
 548 -258 548 -258 575 -259.5 c 128,-1,14
 602 -261 602 -261 626 -261.5 c 128,-1,15
 650 -262 650 -262 664 -262 c 0,16,17
 714 -262 714 -262 758 -250 c 128,-1,18
 802 -238 802 -238 834.5 -208.5 c 128,-1,19
 867 -179 867 -179 885.5 -130 c 128,-1,20
 904 -81 904 -81 904 -6 c 2,21,-1
 904 912 l 1,22,-1
 688 912 l 1,23,-1
 688 1082 l 1,0,-1
81 1082 m 1,24,-1
 510 1082 l 1,25,-1
 510 170 l 1,26,-1
 735 170 l 1,27,-1
 735 0 l 1,28,-1
 75 0 l 1,29,-1
 75 170 l 1,30,-1
 310 170 l 1,31,-1
 310 912 l 1,32,-1
 81 912 l 1,33,-1
 81 1082 l 1,24,-1
297 1360 m 0,34,35
 297 1407 297 1407 326 1439 c 128,-1,36
 355 1471 355 1471 412 1471 c 256,37,38
 469 1471 469 1471 498.5 1439 c 128,-1,39
 528 1407 528 1407 528 1360 c 0,40,41
 528 1314 528 1314 498.5 1282.5 c 128,-1,42
 469 1251 469 1251 412 1251 c 256,43,44
 355 1251 355 1251 326 1282.5 c 128,-1,45
 297 1314 297 1314 297 1360 c 0,34,35
880 1361 m 0,46,47
 880 1408 880 1408 909 1440 c 128,-1,48
 938 1472 938 1472 995 1472 c 256,49,50
 1052 1472 1052 1472 1081.5 1440 c 128,-1,51
 1111 1408 1111 1408 1111 1361 c 0,52,53
 1111 1315 1111 1315 1081.5 1283.5 c 128,-1,54
 1052 1252 1052 1252 995 1252 c 256,55,56
 938 1252 938 1252 909 1283.5 c 128,-1,57
 880 1315 880 1315 880 1361 c 0,46,47
EndSplineSet
EndChar
StartChar: kgreenlandic
Encoding: 312 312 141
Width: 1229
Flags: W
LayerCount: 2
Back
Fore
SplineSet
565 450 m 1,0,-1
 408 315 l 1,1,-1
 408 0 l 1,2,-1
 169 0 l 1,3,-1
 169 1082 l 1,4,-1
 408 1082 l 1,5,-1
 408 586 l 1,6,-1
 513 706 l 1,7,-1
 853 1082 l 1,8,-1
 1148 1082 l 1,9,-1
 729 619 l 1,10,-1
 1174 0 l 1,11,-1
 870 0 l 1,12,-1
 565 450 l 1,0,-1
EndSplineSet
EndChar
StartChar: Lslash
Encoding: 321 321 142
Width: 1229
Flags: W
LayerCount: 2
Back
Fore
SplineSet
426 868 m 1,0,-1
 670 942 l 1,1,-1
 670 759 l 1,2,-1
 426 685 l 1,3,-1
 426 196 l 1,4,-1
 1120 196 l 1,5,-1
 1120 0 l 1,6,-1
 186 0 l 1,7,-1
 186 612 l 1,8,-1
 54 572 l 1,9,-1
 54 755 l 1,10,-1
 186 795 l 1,11,-1
 186 1456 l 1,12,-1
 426 1456 l 1,13,-1
 426 868 l 1,0,-1
EndSplineSet
EndChar
StartChar: lslash
Encoding: 322 322 143
Width: 1229
Flags: W
LayerCount: 2
Back
Fore
SplineSet
791 1004 m 1,0,-1
 1070 1132 l 1,1,-1
 1070 949 l 1,2,-1
 791 821 l 1,3,-1
 791 198 l 1,4,-1
 1121 198 l 1,5,-1
 1121 0 l 1,6,-1
 206 0 l 1,7,-1
 206 198 l 1,8,-1
 550 198 l 1,9,-1
 550 710 l 1,10,-1
 228 562 l 1,11,-1
 228 745 l 1,12,-1
 550 893 l 1,13,-1
 550 1337 l 1,14,-1
 206 1337 l 1,15,-1
 206 1536 l 1,16,-1
 791 1536 l 1,17,-1
 791 1004 l 1,0,-1
EndSplineSet
EndChar
StartChar: Eng
Encoding: 330 330 144
Width: 1229
Flags: W
LayerCount: 2
Back
Fore
SplineSet
1075 1456 m 1,0,-1
 1075 -64 l 2,1,2
 1075 -154 1075 -154 1051 -224 c 128,-1,3
 1027 -294 1027 -294 981.5 -341 c 128,-1,4
 936 -388 936 -388 870.5 -412.5 c 128,-1,5
 805 -437 805 -437 723 -437 c 0,6,7
 689 -437 689 -437 660 -433.5 c 128,-1,8
 631 -430 631 -430 597 -420 c 1,9,-1
 611 -231 l 1,10,11
 630 -237 630 -237 660.5 -240 c 128,-1,12
 691 -243 691 -243 710 -243 c 0,13,14
 769 -243 769 -243 801.5 -196 c 128,-1,15
 834 -149 834 -149 834 -64 c 2,16,-1
 834 0 l 1,17,-1
 401 962 l 1,18,-1
 401 0 l 1,19,-1
 161 0 l 1,20,-1
 161 1456 l 1,21,-1
 401 1456 l 1,22,-1
 834 496 l 1,23,-1
 834 1456 l 1,24,-1
 1075 1456 l 1,0,-1
EndSplineSet
EndChar
StartChar: eng
Encoding: 331 331 145
Width: 1229
Flags: W
LayerCount: 2
Back
Fore
SplineSet
383 1082 m 1,0,-1
 396 932 l 1,1,2
 449 1012 449 1012 527.5 1057 c 128,-1,3
 606 1102 606 1102 707 1102 c 0,4,5
 788 1102 788 1102 854.5 1078 c 128,-1,6
 921 1054 921 1054 968 1002.5 c 128,-1,7
 1015 951 1015 951 1040.5 870 c 128,-1,8
 1066 789 1066 789 1066 674 c 2,9,-1
 1066 -64 l 2,10,11
 1066 -154 1066 -154 1042 -224 c 128,-1,12
 1018 -294 1018 -294 972.5 -341 c 128,-1,13
 927 -388 927 -388 862 -412.5 c 128,-1,14
 797 -437 797 -437 715 -437 c 0,15,16
 681 -437 681 -437 651.5 -433.5 c 128,-1,17
 622 -430 622 -430 589 -420 c 1,18,-1
 603 -225 l 1,19,20
 622 -231 622 -231 652.5 -234 c 128,-1,21
 683 -237 683 -237 702 -237 c 0,22,23
 761 -237 761 -237 793.5 -193.5 c 128,-1,24
 826 -150 826 -150 826 -64 c 2,25,-1
 826 672 l 2,26,27
 826 738 826 738 813 782.5 c 128,-1,28
 800 827 800 827 774.5 854.5 c 128,-1,29
 749 882 749 882 711.5 894 c 128,-1,30
 674 906 674 906 625 906 c 0,31,32
 547 906 547 906 492.5 877.5 c 128,-1,33
 438 849 438 849 403 800 c 1,34,-1
 403 0 l 1,35,-1
 164 0 l 1,36,-1
 164 1082 l 1,37,-1
 383 1082 l 1,0,-1
EndSplineSet
EndChar
StartChar: OE
Encoding: 338 338 146
Width: 1229
Flags: W
LayerCount: 2
Back
Fore
SplineSet
1190 0 m 1,0,-1
 769 0 l 1,1,2
 706 -8 706 -8 639 -14.5 c 128,-1,3
 572 -21 572 -21 501 -21 c 0,4,5
 408 -21 408 -21 329.5 10 c 128,-1,6
 251 41 251 41 194.5 105 c 128,-1,7
 138 169 138 169 106.5 266.5 c 128,-1,8
 75 364 75 364 75 496 c 2,9,-1
 75 960 l 2,10,11
 75 1092 75 1092 106 1189.5 c 128,-1,12
 137 1287 137 1287 193.5 1351 c 128,-1,13
 250 1415 250 1415 328 1446 c 128,-1,14
 406 1477 406 1477 499 1477 c 0,15,16
 570 1477 570 1477 638 1470.5 c 128,-1,17
 706 1464 706 1464 769 1456 c 1,18,-1
 1179 1456 l 1,19,-1
 1179 1267 l 1,20,-1
 812 1267 l 1,21,-1
 812 849 l 1,22,-1
 1128 849 l 1,23,-1
 1128 660 l 1,24,-1
 812 660 l 1,25,-1
 812 196 l 1,26,-1
 1190 196 l 1,27,-1
 1190 0 l 1,0,-1
501 175 m 0,28,29
 547 175 547 175 592 178 c 1,30,-1
 592 1284 l 1,31,32
 569 1286 569 1286 545.5 1287 c 128,-1,33
 522 1288 522 1288 499 1288 c 0,34,35
 451 1288 451 1288 413.5 1274 c 128,-1,36
 376 1260 376 1260 350 1223 c 128,-1,37
 324 1186 324 1186 310 1123 c 128,-1,38
 296 1060 296 1060 296 962 c 2,39,-1
 296 496 l 2,40,41
 296 400 296 400 310 337.5 c 128,-1,42
 324 275 324 275 350.5 239 c 128,-1,43
 377 203 377 203 415 189 c 128,-1,44
 453 175 453 175 501 175 c 0,28,29
EndSplineSet
EndChar
StartChar: oe
Encoding: 339 339 147
Width: 1229
Flags: W
LayerCount: 2
Back
Fore
SplineSet
44 641 m 2,0,1
 44 749 44 749 68 834.5 c 128,-1,2
 92 920 92 920 137.5 979.5 c 128,-1,3
 183 1039 183 1039 248.5 1070.5 c 128,-1,4
 314 1102 314 1102 398 1102 c 0,5,6
 473 1102 473 1102 533.5 1076 c 128,-1,7
 594 1050 594 1050 638 1000 c 1,8,9
 681 1051 681 1051 737.5 1077 c 128,-1,10
 794 1103 794 1103 860 1102 c 0,11,12
 941 1102 941 1102 1003 1070.5 c 128,-1,13
 1065 1039 1065 1039 1107 982.5 c 128,-1,14
 1149 926 1149 926 1170 847.5 c 128,-1,15
 1191 769 1191 769 1191 674 c 2,16,-1
 1191 472 l 1,17,-1
 758 472 l 1,18,-1
 758 426 l 2,19,20
 758 304 758 304 797 237.5 c 128,-1,21
 836 171 836 171 919 171 c 0,22,23
 977 171 977 171 1015 186.5 c 128,-1,24
 1053 202 1053 202 1085 224 c 1,25,-1
 1144 68 l 1,26,27
 1109 33 1109 33 1051 6.5 c 128,-1,28
 993 -20 993 -20 905 -20 c 0,29,30
 739 -20 739 -20 642 85 c 1,31,32
 597 34 597 34 537 7 c 128,-1,33
 477 -20 477 -20 400 -20 c 0,34,35
 316 -20 316 -20 249.5 11 c 128,-1,36
 183 42 183 42 137.5 101.5 c 128,-1,37
 92 161 92 161 68 246.5 c 128,-1,38
 44 332 44 332 44 440 c 2,39,-1
 44 641 l 2,0,1
275 440 m 2,40,41
 275 312 275 312 303 241.5 c 128,-1,42
 331 171 331 171 400 171 c 0,43,44
 467 171 467 171 495.5 241.5 c 128,-1,45
 524 312 524 312 524 440 c 2,46,-1
 524 641 l 2,47,48
 524 703 524 703 517 753 c 128,-1,49
 510 803 510 803 495 837.5 c 128,-1,50
 480 872 480 872 456 890.5 c 128,-1,51
 432 909 432 909 398 909 c 0,52,53
 365 909 365 909 341.5 890.5 c 128,-1,54
 318 872 318 872 303 837.5 c 128,-1,55
 288 803 288 803 281.5 753 c 128,-1,56
 275 703 275 703 275 641 c 2,57,-1
 275 440 l 2,40,41
860 909 m 0,58,59
 804 909 804 909 781 841 c 128,-1,60
 758 773 758 773 758 649 c 1,61,-1
 963 649 l 1,62,-1
 963 734 l 2,63,64
 963 771 963 771 957 803 c 128,-1,65
 951 835 951 835 938.5 858.5 c 128,-1,66
 926 882 926 882 906.5 895.5 c 128,-1,67
 887 909 887 909 860 909 c 0,58,59
EndSplineSet
EndChar
StartChar: Tbar
Encoding: 358 358 488
Width: 1229
Flags: W
LayerCount: 2
Back
Fore
SplineSet
940 788 m 1,0,-1
 733 788 l 1,1,-1
 733 0 l 1,2,-1
 494 0 l 1,3,-1
 494 788 l 1,4,-1
 273 788 l 1,5,-1
 273 958 l 1,6,-1
 494 958 l 1,7,-1
 494 1258 l 1,8,-1
 50 1258 l 1,9,-1
 50 1456 l 1,10,-1
 1180 1456 l 1,11,-1
 1180 1258 l 1,12,-1
 733 1258 l 1,13,-1
 733 958 l 1,14,-1
 940 958 l 1,15,-1
 940 788 l 1,0,-1
EndSplineSet
Substitution2: "'smcp' Lowercase to Small Capitals lookup 0 subtable" Tbar.smcp
EndChar
StartChar: tbar
Encoding: 359 359 489
Width: 1229
Flags: W
LayerCount: 2
Back
Fore
SplineSet
634 1344 m 1,0,-1
 634 1082 l 1,1,-1
 1043 1082 l 1,2,-1
 1043 904 l 1,3,-1
 634 904 l 1,4,-1
 634 738 l 1,5,-1
 857 738 l 1,6,-1
 857 568 l 1,7,-1
 634 568 l 1,8,-1
 634 385 l 2,9,10
 634 324 634 324 648.5 284 c 128,-1,11
 663 244 663 244 689 220 c 128,-1,12
 715 196 715 196 750 186.5 c 128,-1,13
 785 177 785 177 827 177 c 0,14,15
 858 177 858 177 891.5 180.5 c 128,-1,16
 925 184 925 184 956.5 188.5 c 128,-1,17
 988 193 988 193 1014.5 198.5 c 128,-1,18
 1041 204 1041 204 1059 209 c 1,19,-1
 1086 44 l 1,20,21
 1060 29 1060 29 1023.5 16.5 c 128,-1,22
 987 4 987 4 944 -4 c 128,-1,23
 901 -12 901 -12 854.5 -16.5 c 128,-1,24
 808 -21 808 -21 763 -21 c 0,25,26
 682 -21 682 -21 614.5 1.5 c 128,-1,27
 547 24 547 24 498.5 71.5 c 128,-1,28
 450 119 450 119 422.5 193.5 c 128,-1,29
 395 268 395 268 395 372 c 2,30,-1
 395 568 l 1,31,-1
 190 568 l 1,32,-1
 190 738 l 1,33,-1
 395 738 l 1,34,-1
 395 904 l 1,35,-1
 131 904 l 1,36,-1
 131 1082 l 1,37,-1
 395 1082 l 1,38,-1
 395 1344 l 1,39,-1
 634 1344 l 1,0,-1
EndSplineSet
Substitution2: "'smcp' Lowercase to Small Capitals lookup 0 subtable" Tbar.smcp
EndChar
StartChar: Uogonek
Encoding: 370 370 648
Width: 1229
Flags: W
LayerCount: 2
Back
Fore
SplineSet
1096 1456 m 1,0,-1
 1098 481 l 2,1,2
 1097 398 1097 398 1078 326 c 128,-1,3
 1059 254 1059 254 1023 194.5 c 128,-1,4
 987 135 987 135 935.5 90.5 c 128,-1,5
 884 46 884 46 819 19 c 1,6,7
 770 -14 770 -14 747 -54 c 128,-1,8
 724 -94 724 -94 724 -140 c 0,9,10
 724 -171 724 -171 740 -191 c 128,-1,11
 756 -211 756 -211 796 -211 c 0,12,13
 827 -211 827 -211 849.5 -203 c 128,-1,14
 872 -195 872 -195 887 -188 c 1,15,-1
 927 -329 l 1,16,17
 899 -344 899 -344 855 -358.5 c 128,-1,18
 811 -373 811 -373 742 -373 c 0,19,20
 698 -373 698 -373 660 -360 c 128,-1,21
 622 -347 622 -347 593.5 -322 c 128,-1,22
 565 -297 565 -297 548.5 -259.5 c 128,-1,23
 532 -222 532 -222 532 -173 c 0,24,25
 532 -94 532 -94 589 -19 c 1,26,27
 486 -15 486 -15 401.5 22 c 128,-1,28
 317 59 317 59 257 124.5 c 128,-1,29
 197 190 197 190 164 280.5 c 128,-1,30
 131 371 131 371 130 481 c 2,31,-1
 132 1456 l 1,32,-1
 368 1456 l 1,33,-1
 370 481 l 2,34,35
 371 414 371 414 387 358 c 128,-1,36
 403 302 403 302 433 261.5 c 128,-1,37
 463 221 463 221 507.5 198.5 c 128,-1,38
 552 176 552 176 611 176 c 0,39,40
 671 176 671 176 717 198.5 c 128,-1,41
 763 221 763 221 794 261.5 c 128,-1,42
 825 302 825 302 841 358 c 128,-1,43
 857 414 857 414 858 481 c 2,44,-1
 860 1456 l 1,45,-1
 1096 1456 l 1,0,-1
EndSplineSet
Substitution2: "'smcp' Lowercase to Small Capitals lookup 0 subtable" Uogonek.smcp
EndChar
StartChar: uogonek
Encoding: 371 371 649
Width: 1229
Flags: W
LayerCount: 2
Back
Fore
SplineSet
1069 0 m 1,0,1
 984 -39 984 -39 945 -88 c 128,-1,2
 906 -137 906 -137 906 -197 c 0,3,4
 906 -228 906 -228 922 -248 c 128,-1,5
 938 -268 938 -268 978 -268 c 0,6,7
 1009 -268 1009 -268 1031.5 -260 c 128,-1,8
 1054 -252 1054 -252 1069 -245 c 1,9,-1
 1109 -386 l 1,10,11
 1081 -401 1081 -401 1037 -415.5 c 128,-1,12
 993 -430 993 -430 924 -430 c 0,13,14
 880 -430 880 -430 842 -417 c 128,-1,15
 804 -404 804 -404 775.5 -379 c 128,-1,16
 747 -354 747 -354 730.5 -316.5 c 128,-1,17
 714 -279 714 -279 714 -230 c 0,18,19
 714 -167 714 -167 752 -103.5 c 128,-1,20
 790 -40 790 -40 862 11 c 1,21,-1
 849 148 l 1,22,23
 794 68 794 68 715.5 23.5 c 128,-1,24
 637 -21 637 -21 540 -21 c 0,25,26
 456 -21 456 -21 386.5 5 c 128,-1,27
 317 31 317 31 267.5 87.5 c 128,-1,28
 218 144 218 144 190.5 231.5 c 128,-1,29
 163 319 163 319 163 442 c 2,30,-1
 163 1082 l 1,31,-1
 402 1082 l 1,32,-1
 402 440 l 2,33,34
 402 362 402 362 413.5 311 c 128,-1,35
 425 260 425 260 449 230 c 128,-1,36
 473 200 473 200 509 187.5 c 128,-1,37
 545 175 545 175 595 175 c 0,38,39
 691 175 691 175 750 212.5 c 128,-1,40
 809 250 809 250 839 314 c 1,41,-1
 839 1082 l 1,42,-1
 1079 1082 l 1,43,-1
 1079 0 l 1,44,-1
 1069 0 l 1,0,1
EndSplineSet
Substitution2: "'smcp' Lowercase to Small Capitals lookup 0 subtable" Uogonek.smcp
EndChar
StartChar: longs
Encoding: 383 383 148
Width: 1229
Flags: W
LayerCount: 2
Back
Fore
SplineSet
430 0 m 1,0,-1
 430 1109 l 2,1,2
 430 1223 430 1223 462.5 1311 c 128,-1,3
 495 1399 495 1399 555.5 1459 c 128,-1,4
 616 1519 616 1519 703 1550 c 128,-1,5
 790 1581 790 1581 898 1581 c 0,6,7
 937 1581 937 1581 974.5 1575 c 128,-1,8
 1012 1569 1012 1569 1050 1560 c 1,9,-1
 1025 1377 l 1,10,11
 1006 1382 1006 1382 985 1385 c 128,-1,12
 964 1388 964 1388 933 1388 c 0,13,14
 804 1388 804 1388 736.5 1313 c 128,-1,15
 669 1238 669 1238 669 1109 c 2,16,-1
 669 0 l 1,17,-1
 430 0 l 1,0,-1
EndSplineSet
EndChar
StartChar: florin
Encoding: 402 402 149
Width: 1229
Flags: W
LayerCount: 2
Back
Fore
SplineSet
914 904 m 1,0,-1
 714 904 l 1,1,-1
 714 -31 l 2,2,3
 714 -129 714 -129 688 -205 c 128,-1,4
 662 -281 662 -281 612.5 -332.5 c 128,-1,5
 563 -384 563 -384 491.5 -410.5 c 128,-1,6
 420 -437 420 -437 330 -437 c 0,7,8
 285 -437 285 -437 241.5 -429 c 128,-1,9
 198 -421 198 -421 154 -400 c 1,10,-1
 169 -211 l 1,11,12
 179 -219 179 -219 199 -225 c 128,-1,13
 219 -231 219 -231 241 -235 c 128,-1,14
 263 -239 263 -239 283 -241.5 c 128,-1,15
 303 -244 303 -244 314 -244 c 0,16,17
 395 -244 395 -244 434.5 -188 c 128,-1,18
 474 -132 474 -132 474 -31 c 2,19,-1
 474 904 l 1,20,-1
 309 904 l 1,21,-1
 309 1082 l 1,22,-1
 474 1082 l 1,23,-1
 474 1169 l 2,24,25
 474 1269 474 1269 505 1345.5 c 128,-1,26
 536 1422 536 1422 594 1474.5 c 128,-1,27
 652 1527 652 1527 735 1554 c 128,-1,28
 818 1581 818 1581 923 1581 c 0,29,30
 972 1581 972 1581 1018.5 1569 c 128,-1,31
 1065 1557 1065 1557 1114 1540 c 1,32,-1
 1090 1354 l 1,33,34
 1064 1368 1064 1368 1029 1376 c 128,-1,35
 994 1384 994 1384 952 1384 c 0,36,37
 830 1384 830 1384 772 1328.5 c 128,-1,38
 714 1273 714 1273 714 1169 c 2,39,-1
 714 1082 l 1,40,-1
 914 1082 l 1,41,-1
 914 904 l 1,0,-1
EndSplineSet
EndChar
StartChar: Ohorn
Encoding: 416 416 150
Width: 1229
Flags: W
LayerCount: 2
Back
Fore
SplineSet
1138 634 m 2,0,1
 1138 505 1138 505 1105 386.5 c 128,-1,2
 1072 268 1072 268 1006.5 177.5 c 128,-1,3
 941 87 941 87 842.5 33.5 c 128,-1,4
 744 -20 744 -20 612 -20 c 0,5,6
 481 -20 481 -20 384 34 c 128,-1,7
 287 88 287 88 222.5 178.5 c 128,-1,8
 158 269 158 269 125.5 387 c 128,-1,9
 93 505 93 505 93 634 c 2,10,-1
 93 820 l 2,11,12
 93 906 93 906 107.5 988 c 128,-1,13
 122 1070 122 1070 150.5 1142.5 c 128,-1,14
 179 1215 179 1215 221.5 1276.5 c 128,-1,15
 264 1338 264 1338 321.5 1382 c 128,-1,16
 379 1426 379 1426 451.5 1451 c 128,-1,17
 524 1476 524 1476 611 1476 c 0,18,19
 728 1476 728 1476 818 1433 c 128,-1,20
 908 1390 908 1390 974 1316 c 1,21,22
 1012 1339 1012 1339 1029.5 1390 c 128,-1,23
 1047 1441 1047 1441 1047 1516 c 1,24,-1
 1234 1516 l 1,25,26
 1234 1390 1234 1390 1190 1305 c 128,-1,27
 1146 1220 1146 1220 1062 1182 c 1,28,29
 1100 1102 1100 1102 1118.5 1010 c 128,-1,30
 1137 918 1137 918 1138 820 c 2,31,-1
 1138 634 l 2,0,1
897 822 m 2,32,33
 896 904 896 904 882 985 c 128,-1,34
 868 1066 868 1066 835 1129.5 c 128,-1,35
 802 1193 802 1193 747.5 1232.5 c 128,-1,36
 693 1272 693 1272 611 1272 c 0,37,38
 530 1272 530 1272 476.5 1232.5 c 128,-1,39
 423 1193 423 1193 391.5 1129 c 128,-1,40
 360 1065 360 1065 347.5 984.5 c 128,-1,41
 335 904 335 904 334 822 c 2,42,-1
 334 634 l 2,43,44
 335 552 335 552 348 471.5 c 128,-1,45
 361 391 361 391 392.5 326.5 c 128,-1,46
 424 262 424 262 477.5 222 c 128,-1,47
 531 182 531 182 612 182 c 0,48,49
 694 182 694 182 748.5 222 c 128,-1,50
 803 262 803 262 836 326 c 128,-1,51
 869 390 869 390 882.5 471 c 128,-1,52
 896 552 896 552 897 634 c 2,53,-1
 897 822 l 2,32,33
EndSplineSet
EndChar
StartChar: ohorn
Encoding: 417 417 151
Width: 1229
Flags: W
LayerCount: 2
Back
Fore
SplineSet
107 551 m 2,0,1
 107 668 107 668 141.5 769 c 128,-1,2
 176 870 176 870 240.5 944 c 128,-1,3
 305 1018 305 1018 398 1060 c 128,-1,4
 491 1102 491 1102 609 1102 c 0,5,6
 709 1102 709 1102 789.5 1072.5 c 128,-1,7
 870 1043 870 1043 932 990 c 1,8,9
 970 1014 970 1014 989 1064 c 128,-1,10
 1008 1114 1008 1114 1008 1186 c 1,11,-1
 1194 1186 l 1,12,13
 1194 1070 1194 1070 1152 989.5 c 128,-1,14
 1110 909 1110 909 1033 867 c 1,15,16
 1071 801 1071 801 1091.5 721 c 128,-1,17
 1112 641 1112 641 1112 551 c 2,18,-1
 1112 530 l 2,19,20
 1112 412 1112 412 1078 311 c 128,-1,21
 1044 210 1044 210 979.5 136.5 c 128,-1,22
 915 63 915 63 822 21 c 128,-1,23
 729 -21 729 -21 611 -21 c 0,24,25
 492 -21 492 -21 398.5 21 c 128,-1,26
 305 63 305 63 240.5 136.5 c 128,-1,27
 176 210 176 210 141.5 311 c 128,-1,28
 107 412 107 412 107 530 c 2,29,-1
 107 551 l 2,0,1
346 530 m 2,30,31
 346 456 346 456 361.5 391 c 128,-1,32
 377 326 377 326 409.5 276.5 c 128,-1,33
 442 227 442 227 492 198.5 c 128,-1,34
 542 170 542 170 611 170 c 0,35,36
 678 170 678 170 727.5 198.5 c 128,-1,37
 777 227 777 227 809.5 276.5 c 128,-1,38
 842 326 842 326 857.5 391 c 128,-1,39
 873 456 873 456 873 530 c 2,40,-1
 873 551 l 2,41,42
 873 623 873 623 857.5 688 c 128,-1,43
 842 753 842 753 809.5 802 c 128,-1,44
 777 851 777 851 727.5 880 c 128,-1,45
 678 909 678 909 609 909 c 0,46,47
 541 909 541 909 491 880 c 128,-1,48
 441 851 441 851 409 802 c 128,-1,49
 377 753 377 753 361.5 688 c 128,-1,50
 346 623 346 623 346 551 c 2,51,-1
 346 530 l 2,30,31
EndSplineSet
EndChar
StartChar: Uhorn
Encoding: 431 431 152
Width: 1229
Flags: W
LayerCount: 2
Back
Fore
SplineSet
1100 1456 m 1,0,-1
 1100 1266 l 1,1,2
 1148 1270 1148 1270 1178 1286.5 c 128,-1,3
 1208 1303 1208 1303 1225 1333 c 128,-1,4
 1242 1363 1242 1363 1248 1407 c 128,-1,5
 1254 1451 1254 1451 1254 1509 c 1,6,-1
 1444 1509 l 1,7,8
 1444 1318 1444 1318 1362.5 1221.5 c 128,-1,9
 1281 1125 1281 1125 1101 1117 c 1,10,-1
 1102 481 l 2,11,12
 1101 369 1101 369 1066 276.5 c 128,-1,13
 1031 184 1031 184 968 118 c 128,-1,14
 905 52 905 52 815.5 16 c 128,-1,15
 726 -20 726 -20 615 -20 c 0,16,17
 507 -20 507 -20 419 16 c 128,-1,18
 331 52 331 52 268 117.5 c 128,-1,19
 205 183 205 183 170 275.5 c 128,-1,20
 135 368 135 368 134 481 c 2,21,-1
 136 1456 l 1,22,-1
 372 1456 l 1,23,-1
 374 481 l 2,24,25
 375 414 375 414 391 358 c 128,-1,26
 407 302 407 302 437 261.5 c 128,-1,27
 467 221 467 221 511.5 198.5 c 128,-1,28
 556 176 556 176 615 176 c 0,29,30
 675 176 675 176 721 198.5 c 128,-1,31
 767 221 767 221 798 261.5 c 128,-1,32
 829 302 829 302 845 358 c 128,-1,33
 861 414 861 414 862 481 c 2,34,-1
 864 1456 l 1,35,-1
 1100 1456 l 1,0,-1
EndSplineSet
EndChar
StartChar: uhorn
Encoding: 432 432 153
Width: 1229
Flags: W
LayerCount: 2
Back
Fore
SplineSet
1363 1173 m 1,0,1
 1363 995 1363 995 1289 899.5 c 128,-1,2
 1215 804 1215 804 1063 781 c 1,3,-1
 1063 0 l 1,4,-1
 847 0 l 1,5,-1
 833 148 l 1,6,7
 778 68 778 68 699.5 23.5 c 128,-1,8
 621 -21 621 -21 524 -21 c 0,9,10
 440 -21 440 -21 370.5 5 c 128,-1,11
 301 31 301 31 251.5 87.5 c 128,-1,12
 202 144 202 144 174.5 231.5 c 128,-1,13
 147 319 147 319 147 442 c 2,14,-1
 147 1082 l 1,15,-1
 386 1082 l 1,16,-1
 386 440 l 2,17,18
 386 362 386 362 397.5 311 c 128,-1,19
 409 260 409 260 433 230 c 128,-1,20
 457 200 457 200 493 187.5 c 128,-1,21
 529 175 529 175 579 175 c 0,22,23
 675 175 675 175 734 212.5 c 128,-1,24
 793 250 793 250 823 314 c 1,25,-1
 823 1082 l 1,26,-1
 1063 1082 l 1,27,-1
 1063 939 l 1,28,29
 1125 962 1125 962 1149.5 1019 c 128,-1,30
 1174 1076 1174 1076 1174 1173 c 1,31,-1
 1363 1173 l 1,0,1
EndSplineSet
EndChar
StartChar: uni0237
Encoding: 567 567 154
Width: 1229
Flags: W
LayerCount: 2
Back
Fore
SplineSet
284 1082 m 1,0,-1
 838 1082 l 1,1,-1
 838 -17 l 2,2,3
 838 -123 838 -123 808.5 -201.5 c 128,-1,4
 779 -280 779 -280 722 -332.5 c 128,-1,5
 665 -385 665 -385 583 -411 c 128,-1,6
 501 -437 501 -437 396 -437 c 0,7,8
 345 -437 345 -437 297 -433.5 c 128,-1,9
 249 -430 249 -430 200 -420 c 1,10,-1
 214 -226 l 1,11,12
 229 -229 229 -229 252.5 -231.5 c 128,-1,13
 276 -234 276 -234 300.5 -235.5 c 128,-1,14
 325 -237 325 -237 347.5 -237.5 c 128,-1,15
 370 -238 370 -238 382 -238 c 0,16,17
 427 -238 427 -238 466.5 -227 c 128,-1,18
 506 -216 506 -216 535.5 -190.5 c 128,-1,19
 565 -165 565 -165 581.5 -122.5 c 128,-1,20
 598 -80 598 -80 598 -17 c 2,21,-1
 598 883 l 1,22,-1
 284 883 l 1,23,-1
 284 1082 l 1,0,-1
EndSplineSet
EndChar
StartChar: schwa
Encoding: 601 601 155
Width: 1229
Flags: W
LayerCount: 2
Back
Fore
SplineSet
608 1103 m 0,0,1
 729 1103 729 1103 826 1062.5 c 128,-1,2
 923 1022 923 1022 990.5 950 c 128,-1,3
 1058 878 1058 878 1094.5 779.5 c 128,-1,4
 1131 681 1131 681 1131 566 c 2,5,-1
 1131 525 l 2,6,7
 1131 406 1131 406 1093 306 c 128,-1,8
 1055 206 1055 206 988.5 133.5 c 128,-1,9
 922 61 922 61 831.5 20.5 c 128,-1,10
 741 -20 741 -20 637 -19 c 0,11,12
 519 -19 519 -19 430.5 16.5 c 128,-1,13
 342 52 342 52 283.5 116 c 128,-1,14
 225 180 225 180 195.5 270 c 128,-1,15
 166 360 166 360 166 468 c 2,16,-1
 166 609 l 1,17,-1
 890 609 l 1,18,19
 885 672 885 672 864 727 c 128,-1,20
 843 782 843 782 806 823 c 128,-1,21
 769 864 769 864 716.5 887.5 c 128,-1,22
 664 911 664 911 595 911 c 0,23,24
 538 911 538 911 491 903.5 c 128,-1,25
 444 896 444 896 405 883.5 c 128,-1,26
 366 871 366 871 333.5 853.5 c 128,-1,27
 301 836 301 836 272 817 c 1,28,-1
 193 974 l 1,29,30
 220 997 220 997 260 1020 c 128,-1,31
 300 1043 300 1043 351.5 1061.5 c 128,-1,32
 403 1080 403 1080 467 1091.5 c 128,-1,33
 531 1103 531 1103 608 1103 c 0,0,1
637 172 m 0,34,35
 687 172 687 172 728 192 c 128,-1,36
 769 212 769 212 800.5 247 c 128,-1,37
 832 282 832 282 853.5 329.5 c 128,-1,38
 875 377 875 377 884 433 c 1,39,-1
 402 433 l 1,40,-1
 402 408 l 2,41,42
 402 360 402 360 415.5 317 c 128,-1,43
 429 274 429 274 457.5 241.5 c 128,-1,44
 486 209 486 209 530.5 190.5 c 128,-1,45
 575 172 575 172 637 172 c 0,34,35
EndSplineSet
EndChar
StartChar: circumflex
Encoding: 710 710 156
Width: 1229
Flags: W
LayerCount: 2
Back
Fore
SplineSet
831 1275 m 1,0,-1
 831 1248 l 1,1,-1
 639 1248 l 1,2,-1
 489 1385 l 1,3,-1
 340 1248 l 1,4,-1
 150 1248 l 1,5,-1
 150 1277 l 1,6,-1
 419 1517 l 1,7,-1
 559 1517 l 1,8,-1
 831 1275 l 1,0,-1
EndSplineSet
EndChar
StartChar: breve
Encoding: 728 728 158
Width: 1229
Flags: W
LayerCount: 2
Back
Fore
SplineSet
945 1449 m 1,0,1
 945 1387 945 1387 922.5 1335 c 128,-1,2
 900 1283 900 1283 858.5 1246 c 128,-1,3
 817 1209 817 1209 757.5 1188.5 c 128,-1,4
 698 1168 698 1168 624 1168 c 256,5,6
 550 1168 550 1168 490.5 1188.5 c 128,-1,7
 431 1209 431 1209 389.5 1246 c 128,-1,8
 348 1283 348 1283 325.5 1335 c 128,-1,9
 303 1387 303 1387 303 1449 c 1,10,-1
 483 1449 l 1,11,12
 483 1421 483 1421 490.5 1396 c 128,-1,13
 498 1371 498 1371 515 1351.5 c 128,-1,14
 532 1332 532 1332 558.5 1320.5 c 128,-1,15
 585 1309 585 1309 624 1309 c 0,16,17
 662 1309 662 1309 689 1320.5 c 128,-1,18
 716 1332 716 1332 732.5 1351.5 c 128,-1,19
 749 1371 749 1371 756.5 1396 c 128,-1,20
 764 1421 764 1421 764 1449 c 1,21,-1
 945 1449 l 1,0,1
EndSplineSet
EndChar
StartChar: dotaccent
Encoding: 729 729 159
Width: 1229
Flags: W
LayerCount: 2
Back
Fore
SplineSet
482 1359 m 0,0,1
 482 1414 482 1414 517 1450.5 c 128,-1,2
 552 1487 552 1487 617 1487 c 0,3,4
 683 1487 683 1487 718 1450.5 c 128,-1,5
 753 1414 753 1414 753 1359 c 0,6,7
 753 1305 753 1305 718 1268.5 c 128,-1,8
 683 1232 683 1232 617 1232 c 0,9,10
 552 1232 552 1232 517 1268.5 c 128,-1,11
 482 1305 482 1305 482 1359 c 0,0,1
EndSplineSet
EndChar
StartChar: ring
Encoding: 730 730 160
Width: 1229
Flags: W
LayerCount: 2
Back
Fore
SplineSet
404 1269 m 0,0,1
 404 1312 404 1312 421 1348 c 128,-1,2
 438 1384 438 1384 466.5 1410.5 c 128,-1,3
 495 1437 495 1437 533.5 1452 c 128,-1,4
 572 1467 572 1467 616 1467 c 0,5,6
 659 1467 659 1467 697 1452 c 128,-1,7
 735 1437 735 1437 763 1410.5 c 128,-1,8
 791 1384 791 1384 807 1348 c 128,-1,9
 823 1312 823 1312 823 1269 c 0,10,11
 823 1225 823 1225 807 1189.5 c 128,-1,12
 791 1154 791 1154 763 1128 c 128,-1,13
 735 1102 735 1102 697 1088 c 128,-1,14
 659 1074 659 1074 616 1074 c 0,15,16
 572 1074 572 1074 533.5 1088 c 128,-1,17
 495 1102 495 1102 466.5 1128 c 128,-1,18
 438 1154 438 1154 421 1189.5 c 128,-1,19
 404 1225 404 1225 404 1269 c 0,0,1
513 1269 m 0,20,21
 513 1247 513 1247 521 1228.5 c 128,-1,22
 529 1210 529 1210 543.5 1196.5 c 128,-1,23
 558 1183 558 1183 576.5 1175 c 128,-1,24
 595 1167 595 1167 616 1167 c 0,25,26
 658 1167 658 1167 686 1195.5 c 128,-1,27
 714 1224 714 1224 714 1269 c 0,28,29
 714 1315 714 1315 686 1344 c 128,-1,30
 658 1373 658 1373 616 1373 c 0,31,32
 595 1373 595 1373 576.5 1365.5 c 128,-1,33
 558 1358 558 1358 543.5 1344 c 128,-1,34
 529 1330 529 1330 521 1311 c 128,-1,35
 513 1292 513 1292 513 1269 c 0,20,21
EndSplineSet
EndChar
StartChar: ogonek
Encoding: 731 731 161
Width: 1229
Flags: W
LayerCount: 2
Back
Fore
SplineSet
742 0 m 1,0,1
 657 -39 657 -39 618 -88 c 128,-1,2
 579 -137 579 -137 579 -197 c 0,3,4
 579 -228 579 -228 595 -248 c 128,-1,5
 611 -268 611 -268 651 -268 c 0,6,7
 682 -268 682 -268 704.5 -260 c 128,-1,8
 727 -252 727 -252 742 -245 c 1,9,-1
 782 -386 l 1,10,11
 754 -401 754 -401 710 -415.5 c 128,-1,12
 666 -430 666 -430 597 -430 c 0,13,14
 553 -430 553 -430 515 -417 c 128,-1,15
 477 -404 477 -404 448.5 -379 c 128,-1,16
 420 -354 420 -354 403.5 -316.5 c 128,-1,17
 387 -279 387 -279 387 -230 c 0,18,19
 387 -191 387 -191 402.5 -150.5 c 128,-1,20
 418 -110 418 -110 447.5 -72 c 128,-1,21
 477 -34 477 -34 520 0 c 128,-1,22
 563 34 563 34 619 60 c 1,23,-1
 742 0 l 1,0,1
EndSplineSet
EndChar
StartChar: tilde
Encoding: 732 732 162
Width: 1229
Flags: W
LayerCount: 2
Back
Fore
SplineSet
844 1502 m 1,0,1
 844 1456 844 1456 828.5 1413.5 c 128,-1,2
 813 1371 813 1371 785 1338 c 128,-1,3
 757 1305 757 1305 717.5 1285.5 c 128,-1,4
 678 1266 678 1266 631 1266 c 0,5,6
 581 1266 581 1266 546.5 1280 c 128,-1,7
 512 1294 512 1294 482 1311 c 128,-1,8
 452 1328 452 1328 421.5 1342 c 128,-1,9
 391 1356 391 1356 351 1356 c 0,10,11
 332 1356 332 1356 315 1348.5 c 128,-1,12
 298 1341 298 1341 285 1327 c 128,-1,13
 272 1313 272 1313 264.5 1294 c 128,-1,14
 257 1275 257 1275 257 1252 c 1,15,-1
 132 1280 l 1,16,17
 132 1325 132 1325 147.5 1368 c 128,-1,18
 163 1411 163 1411 190.5 1445 c 128,-1,19
 218 1479 218 1479 257 1499.5 c 128,-1,20
 296 1520 296 1520 344 1520 c 0,21,22
 385 1520 385 1520 419.5 1506 c 128,-1,23
 454 1492 454 1492 486.5 1475 c 128,-1,24
 519 1458 519 1458 552 1444 c 128,-1,25
 585 1430 585 1430 624 1430 c 0,26,27
 643 1430 643 1430 660.5 1437.5 c 128,-1,28
 678 1445 678 1445 691 1458.5 c 128,-1,29
 704 1472 704 1472 711.5 1491.5 c 128,-1,30
 719 1511 719 1511 719 1534 c 1,31,-1
 844 1502 l 1,0,1
EndSplineSet
EndChar
StartChar: hungarumlaut
Encoding: 733 733 163
Width: 1229
Flags: W
LayerCount: 2
Back
Fore
SplineSet
764 1518 m 1,0,-1
 1021 1518 l 1,1,-1
 715 1252 l 1,2,-1
 519 1252 l 1,3,-1
 764 1518 l 1,0,-1
417 1518 m 1,4,-1
 658 1518 l 1,5,-1
 407 1252 l 1,6,-1
 224 1252 l 1,7,-1
 417 1518 l 1,4,-1
EndSplineSet
EndChar
StartChar: uni02F3
Encoding: 755 755 164
Width: 1229
Flags: W
LayerCount: 2
Back
Fore
SplineSet
431 -228 m 256,0,1
 431 -195 431 -195 444 -167 c 128,-1,2
 457 -139 457 -139 479 -119 c 128,-1,3
 501 -99 501 -99 530.5 -87.5 c 128,-1,4
 560 -76 560 -76 594 -76 c 0,5,6
 627 -76 627 -76 656 -87.5 c 128,-1,7
 685 -99 685 -99 706 -119 c 128,-1,8
 727 -139 727 -139 739.5 -167 c 128,-1,9
 752 -195 752 -195 752 -228 c 256,10,11
 752 -261 752 -261 739.5 -288.5 c 128,-1,12
 727 -316 727 -316 706 -335.5 c 128,-1,13
 685 -355 685 -355 656 -365.5 c 128,-1,14
 627 -376 627 -376 594 -376 c 0,15,16
 560 -376 560 -376 530.5 -365 c 128,-1,17
 501 -354 501 -354 479 -334.5 c 128,-1,18
 457 -315 457 -315 444 -288 c 128,-1,19
 431 -261 431 -261 431 -228 c 256,0,1
531 -228 m 0,20,21
 531 -254 531 -254 549.5 -271 c 128,-1,22
 568 -288 568 -288 594 -288 c 0,23,24
 619 -288 619 -288 635.5 -271 c 128,-1,25
 652 -254 652 -254 652 -228 c 0,26,27
 652 -200 652 -200 635.5 -182 c 128,-1,28
 619 -164 619 -164 594 -164 c 0,29,30
 568 -164 568 -164 549.5 -182 c 128,-1,31
 531 -200 531 -200 531 -228 c 0,20,21
EndSplineSet
EndChar
StartChar: gravecomb
Encoding: 768 768 165
Width: 1229
Flags: W
LayerCount: 2
Back
Fore
SplineSet
-496 1210 m 1,0,-1
 -647 1210 l 1,1,-1
 -845 1560 l 1,2,-1
 -638 1560 l 1,3,-1
 -496 1210 l 1,0,-1
EndSplineSet
EndChar
StartChar: acutecomb
Encoding: 769 769 166
Width: 1229
Flags: W
LayerCount: 2
Back
Fore
SplineSet
-521 1561 m 1,0,-1
 -317 1561 l 1,1,-1
 -513 1209 l 1,2,-1
 -657 1209 l 1,3,-1
 -521 1561 l 1,0,-1
EndSplineSet
EndChar
StartChar: hook
Encoding: 777 777 168
Width: 1229
Flags: W
LayerCount: 2
Back
Fore
SplineSet
-684 1253 m 1,0,-1
 -691 1400 l 1,1,2
 -618 1405 -618 1405 -585 1419 c 128,-1,3
 -552 1433 -552 1433 -552 1468 c 0,4,5
 -552 1488 -552 1488 -563.5 1502 c 128,-1,6
 -575 1516 -575 1516 -595.5 1524.5 c 128,-1,7
 -616 1533 -616 1533 -643.5 1537 c 128,-1,8
 -671 1541 -671 1541 -704 1541 c 1,9,-1
 -697 1663 l 1,10,11
 -529 1663 -529 1663 -444 1610.5 c 128,-1,12
 -359 1558 -359 1558 -359 1470 c 0,13,14
 -359 1434 -359 1434 -372 1407.5 c 128,-1,15
 -385 1381 -385 1381 -406 1363.5 c 128,-1,16
 -427 1346 -427 1346 -454 1336 c 128,-1,17
 -481 1326 -481 1326 -509 1322 c 1,18,-1
 -510 1253 l 1,19,-1
 -684 1253 l 1,0,-1
EndSplineSet
EndChar
StartChar: uni030F
Encoding: 783 783 169
Width: 1229
Flags: W
LayerCount: 2
Back
Fore
SplineSet
-504 1252 m 1,0,-1
 -710 1252 l 1,1,-1
 -1010 1518 l 1,2,-1
 -749 1518 l 1,3,-1
 -504 1252 l 1,0,-1
-207 1252 m 1,4,-1
 -398 1252 l 1,5,-1
 -643 1518 l 1,6,-1
 -396 1518 l 1,7,-1
 -207 1252 l 1,4,-1
EndSplineSet
EndChar
StartChar: dotbelow
Encoding: 803 803 170
Width: 1229
Flags: W
LayerCount: 2
Back
Fore
SplineSet
-737 -230 m 0,0,1
 -737 -175 -737 -175 -700.5 -138 c 128,-1,2
 -664 -101 -664 -101 -596 -101 c 256,3,4
 -528 -101 -528 -101 -491 -138 c 128,-1,5
 -454 -175 -454 -175 -454 -230 c 0,6,7
 -454 -284 -454 -284 -491 -320.5 c 128,-1,8
 -528 -357 -528 -357 -596 -357 c 256,9,10
 -664 -357 -664 -357 -700.5 -320.5 c 128,-1,11
 -737 -284 -737 -284 -737 -230 c 0,0,1
EndSplineSet
EndChar
StartChar: tonos
Encoding: 900 900 171
Width: 1229
Flags: W
LayerCount: 2
Back
Fore
SplineSet
634 1665 m 1,0,-1
 878 1665 l 1,1,-1
 681 1267 l 1,2,-1
 564 1267 l 1,3,-1
 634 1665 l 1,0,-1
EndSplineSet
EndChar
StartChar: dieresistonos
Encoding: 901 901 172
Width: 1229
Flags: W
LayerCount: 2
Back
Fore
SplineSet
636 1767 m 1,0,-1
 882 1767 l 1,1,-1
 734 1472 l 1,2,-1
 589 1472 l 1,3,-1
 636 1767 l 1,0,-1
260 1354 m 0,4,5
 260 1407 260 1407 295 1442.5 c 128,-1,6
 330 1478 330 1478 392 1478 c 0,7,8
 453 1478 453 1478 488 1442.5 c 128,-1,9
 523 1407 523 1407 523 1354 c 0,10,11
 523 1302 523 1302 488 1267 c 128,-1,12
 453 1232 453 1232 392 1232 c 0,13,14
 330 1232 330 1232 295 1267 c 128,-1,15
 260 1302 260 1302 260 1354 c 0,4,5
793 1355 m 0,16,17
 793 1408 793 1408 828 1443 c 128,-1,18
 863 1478 863 1478 925 1478 c 0,19,20
 986 1478 986 1478 1021 1443 c 128,-1,21
 1056 1408 1056 1408 1056 1355 c 0,22,23
 1056 1303 1056 1303 1021 1267.5 c 128,-1,24
 986 1232 986 1232 925 1232 c 0,25,26
 863 1232 863 1232 828 1267.5 c 128,-1,27
 793 1303 793 1303 793 1355 c 0,16,17
EndSplineSet
EndChar
StartChar: Gamma
Encoding: 915 915 174
Width: 1229
Flags: W
LayerCount: 2
Back
Fore
SplineSet
1078 1262 m 1,0,-1
 401 1262 l 1,1,-1
 401 0 l 1,2,-1
 160 0 l 1,3,-1
 160 1456 l 1,4,-1
 1078 1456 l 1,5,-1
 1078 1262 l 1,0,-1
EndSplineSet
EndChar
StartChar: Delta
Encoding: 916 916 175
AltUni2: 002206.ffffffff.0
Width: 1229
Flags: W
LayerCount: 2
Back
Fore
SplineSet
541 1456 m 1,0,-1
 769 1456 l 1,1,-1
 1243 0 l 1,2,-1
 39 0 l 1,3,-1
 541 1456 l 1,0,-1
350 193 m 1,4,-1
 935 193 l 1,5,-1
 652 1131 l 1,6,-1
 350 193 l 1,4,-1
EndSplineSet
EndChar
StartChar: Theta
Encoding: 920 920 176
Width: 1229
Flags: W
LayerCount: 2
Back
Fore
SplineSet
831 635 m 1,0,-1
 407 635 l 1,1,-1
 407 827 l 1,2,-1
 831 827 l 1,3,-1
 831 635 l 1,0,-1
1142 634 m 2,4,5
 1142 505 1142 505 1109 386.5 c 128,-1,6
 1076 268 1076 268 1010.5 177.5 c 128,-1,7
 945 87 945 87 846.5 33.5 c 128,-1,8
 748 -20 748 -20 616 -20 c 0,9,10
 485 -20 485 -20 388 34 c 128,-1,11
 291 88 291 88 226.5 178.5 c 128,-1,12
 162 269 162 269 129.5 387 c 128,-1,13
 97 505 97 505 97 634 c 2,14,-1
 97 820 l 2,15,16
 97 906 97 906 111.5 988 c 128,-1,17
 126 1070 126 1070 154.5 1142.5 c 128,-1,18
 183 1215 183 1215 225.5 1276.5 c 128,-1,19
 268 1338 268 1338 325.5 1382 c 128,-1,20
 383 1426 383 1426 455.5 1451 c 128,-1,21
 528 1476 528 1476 615 1476 c 0,22,23
 747 1476 747 1476 845.5 1422 c 128,-1,24
 944 1368 944 1368 1010 1277.5 c 128,-1,25
 1076 1187 1076 1187 1109 1068 c 128,-1,26
 1142 949 1142 949 1142 820 c 2,27,-1
 1142 634 l 2,4,5
901 822 m 2,28,29
 900 904 900 904 886 985 c 128,-1,30
 872 1066 872 1066 839 1129.5 c 128,-1,31
 806 1193 806 1193 751.5 1232.5 c 128,-1,32
 697 1272 697 1272 615 1272 c 0,33,34
 534 1272 534 1272 480.5 1232.5 c 128,-1,35
 427 1193 427 1193 395.5 1129 c 128,-1,36
 364 1065 364 1065 351.5 984.5 c 128,-1,37
 339 904 339 904 338 822 c 2,38,-1
 338 634 l 2,39,40
 339 552 339 552 352 471.5 c 128,-1,41
 365 391 365 391 396.5 326.5 c 128,-1,42
 428 262 428 262 481.5 222 c 128,-1,43
 535 182 535 182 616 182 c 0,44,45
 698 182 698 182 752.5 222 c 128,-1,46
 807 262 807 262 840 326 c 128,-1,47
 873 390 873 390 886.5 471 c 128,-1,48
 900 552 900 552 901 634 c 2,49,-1
 901 822 l 2,28,29
EndSplineSet
EndChar
StartChar: Lambda
Encoding: 923 923 177
Width: 1229
Flags: W
LayerCount: 2
Back
Fore
SplineSet
615 1118 m 1,0,-1
 284 0 l 1,1,-1
 36 0 l 1,2,-1
 502 1456 l 1,3,-1
 730 1456 l 1,4,-1
 1196 0 l 1,5,-1
 947 0 l 1,6,-1
 615 1118 l 1,0,-1
EndSplineSet
EndChar
StartChar: Xi
Encoding: 926 926 178
Width: 1229
Flags: W
LayerCount: 2
Back
Fore
SplineSet
132 193 m 1,0,-1
 1088 193 l 1,1,-1
 1088 0 l 1,2,-1
 132 0 l 1,3,-1
 132 193 l 1,0,-1
227 843 m 1,4,-1
 987 843 l 1,5,-1
 987 654 l 1,6,-1
 227 654 l 1,7,-1
 227 843 l 1,4,-1
142 1456 m 1,8,-1
 1065 1456 l 1,9,-1
 1065 1262 l 1,10,-1
 142 1262 l 1,11,-1
 142 1456 l 1,8,-1
EndSplineSet
EndChar
StartChar: Pi
Encoding: 928 928 179
Width: 1229
Flags: W
LayerCount: 2
Back
Fore
SplineSet
1082 0 m 1,0,-1
 841 0 l 1,1,-1
 841 1262 l 1,2,-1
 381 1262 l 1,3,-1
 381 0 l 1,4,-1
 140 0 l 1,5,-1
 140 1456 l 1,6,-1
 1082 1456 l 1,7,-1
 1082 0 l 1,0,-1
EndSplineSet
EndChar
StartChar: Sigma
Encoding: 931 931 180
Width: 1229
Flags: W
LayerCount: 2
Back
Fore
SplineSet
828 718 m 1,0,-1
 423 193 l 1,1,-1
 1140 193 l 1,2,-1
 1140 1 l 1,3,-1
 111 1 l 1,4,-1
 111 152 l 1,5,-1
 574 729 l 1,6,-1
 111 1304 l 1,7,-1
 111 1456 l 1,8,-1
 1101 1456 l 1,9,-1
 1101 1262 l 1,10,-1
 424 1262 l 1,11,-1
 828 738 l 1,12,-1
 828 718 l 1,0,-1
EndSplineSet
EndChar
StartChar: Phi
Encoding: 934 934 181
Width: 1229
Flags: W
LayerCount: 2
Back
Fore
SplineSet
759 1254 m 1,0,1
 858 1244 858 1244 941 1202 c 128,-1,2
 1024 1160 1024 1160 1084 1091 c 128,-1,3
 1144 1022 1144 1022 1178 928 c 128,-1,4
 1212 834 1212 834 1212 722 c 256,5,6
 1212 610 1212 610 1178 517 c 128,-1,7
 1144 424 1144 424 1084 355.5 c 128,-1,8
 1024 287 1024 287 941 245 c 128,-1,9
 858 203 858 203 759 193 c 1,10,-1
 759 0 l 1,11,-1
 519 0 l 1,12,-1
 519 192 l 1,13,14
 420 201 420 201 336.5 243 c 128,-1,15
 253 285 253 285 193 353.5 c 128,-1,16
 133 422 133 422 99.5 515 c 128,-1,17
 66 608 66 608 66 720 c 256,18,19
 66 832 66 832 99.5 926 c 128,-1,20
 133 1020 133 1020 193 1090 c 128,-1,21
 253 1160 253 1160 336.5 1202.5 c 128,-1,22
 420 1245 420 1245 519 1254 c 1,23,-1
 519 1456 l 1,24,-1
 759 1456 l 1,25,-1
 759 1254 l 1,0,1
303 720 m 0,26,27
 303 580 303 580 359.5 496 c 128,-1,28
 416 412 416 412 519 394 c 1,29,-1
 519 1052 l 1,30,31
 416 1033 416 1033 359.5 947 c 128,-1,32
 303 861 303 861 303 720 c 0,26,27
973 722 m 256,33,34
 973 862 973 862 917 947.5 c 128,-1,35
 861 1033 861 1033 759 1052 c 1,36,-1
 759 394 l 1,37,38
 861 413 861 413 917 497.5 c 128,-1,39
 973 582 973 582 973 722 c 256,33,34
EndSplineSet
EndChar
StartChar: Psi
Encoding: 936 936 182
Width: 1229
Flags: W
LayerCount: 2
Back
Fore
SplineSet
763 528 m 1,0,1
 851 551 851 551 901.5 631.5 c 128,-1,2
 952 712 952 712 952 862 c 2,3,-1
 952 1456 l 1,4,-1
 1193 1456 l 1,5,-1
 1193 862 l 2,6,7
 1193 740 1193 740 1161.5 646.5 c 128,-1,8
 1130 553 1130 553 1073.5 487 c 128,-1,9
 1017 421 1017 421 938 382 c 128,-1,10
 859 343 859 343 763 331 c 1,11,-1
 763 0 l 1,12,-1
 523 0 l 1,13,-1
 523 330 l 1,14,15
 424 341 424 341 343 379 c 128,-1,16
 262 417 262 417 204.5 483 c 128,-1,17
 147 549 147 549 115 643.5 c 128,-1,18
 83 738 83 738 83 862 c 2,19,-1
 83 1456 l 1,20,-1
 323 1456 l 1,21,-1
 323 862 l 2,22,23
 323 712 323 712 377 631.5 c 128,-1,24
 431 551 431 551 523 528 c 1,25,-1
 523 1456 l 1,26,-1
 763 1456 l 1,27,-1
 763 528 l 1,0,1
EndSplineSet
EndChar
StartChar: Omega
Encoding: 937 937 183
AltUni2: 002126.ffffffff.0
Width: 1229
Flags: W
LayerCount: 2
Back
Fore
SplineSet
677 238 m 1,0,1
 726 251 726 251 765 291.5 c 128,-1,2
 804 332 804 332 831.5 399.5 c 128,-1,3
 859 467 859 467 874 562.5 c 128,-1,4
 889 658 889 658 889 783 c 2,5,-1
 889 849 l 2,6,7
 889 1063 889 1063 816 1172 c 128,-1,8
 743 1281 743 1281 616 1281 c 0,9,10
 490 1281 490 1281 417 1172 c 128,-1,11
 344 1063 344 1063 344 849 c 2,12,-1
 344 783 l 2,13,14
 344 532 344 532 403 398 c 128,-1,15
 462 264 462 264 563 238 c 1,16,-1
 563 0 l 1,17,-1
 100 0 l 1,18,-1
 100 194 l 1,19,-1
 361 194 l 1,20,21
 301 239 301 239 251 303 c 128,-1,22
 201 367 201 367 165.5 444 c 128,-1,23
 130 521 130 521 110 607 c 128,-1,24
 90 693 90 693 90 783 c 2,25,-1
 90 847 l 2,26,27
 90 986 90 986 128.5 1101.5 c 128,-1,28
 167 1217 167 1217 236 1300.5 c 128,-1,29
 305 1384 305 1384 402 1430 c 128,-1,30
 499 1476 499 1476 616 1476 c 256,31,32
 733 1476 733 1476 830.5 1430 c 128,-1,33
 928 1384 928 1384 997.5 1300.5 c 128,-1,34
 1067 1217 1067 1217 1105.5 1101.5 c 128,-1,35
 1144 986 1144 986 1144 847 c 2,36,-1
 1144 783 l 2,37,38
 1144 693 1144 693 1124.5 606.5 c 128,-1,39
 1105 520 1105 520 1069.5 443.5 c 128,-1,40
 1034 367 1034 367 984.5 303 c 128,-1,41
 935 239 935 239 875 194 c 1,42,-1
 1141 194 l 1,43,-1
 1141 0 l 1,44,-1
 677 0 l 1,45,-1
 677 238 l 1,0,1
EndSplineSet
EndChar
StartChar: alpha
Encoding: 945 945 184
Width: 1229
Flags: W
LayerCount: 2
Back
Fore
SplineSet
1020 1082 m 1,0,-1
 1020 301 l 2,1,2
 1020 265 1020 265 1025.5 242 c 128,-1,3
 1031 219 1031 219 1041 205.5 c 128,-1,4
 1051 192 1051 192 1064.5 187 c 128,-1,5
 1078 182 1078 182 1094 182 c 0,6,7
 1121 182 1121 182 1141 187 c 1,8,-1
 1165 10 l 1,9,10
 1133 -10 1133 -10 1102.5 -15.5 c 128,-1,11
 1072 -21 1072 -21 1038 -21 c 0,12,13
 957 -21 957 -21 899.5 11.5 c 128,-1,14
 842 44 842 44 812 116 c 1,15,16
 761 50 761 50 688.5 15 c 128,-1,17
 616 -20 616 -20 518 -20 c 0,18,19
 422 -20 422 -20 347 19 c 128,-1,20
 272 58 272 58 221 127.5 c 128,-1,21
 170 197 170 197 143.5 293.5 c 128,-1,22
 117 390 117 390 117 505 c 2,23,-1
 117 526 l 2,24,25
 117 652 117 652 143.5 758 c 128,-1,26
 170 864 170 864 221 940.5 c 128,-1,27
 272 1017 272 1017 347 1059.5 c 128,-1,28
 422 1102 422 1102 520 1102 c 0,29,30
 617 1102 617 1102 688.5 1065.5 c 128,-1,31
 760 1029 760 1029 811 963 c 1,32,-1
 865 1082 l 1,33,-1
 1020 1082 l 1,0,-1
356 505 m 2,34,35
 356 435 356 435 368 374 c 128,-1,36
 380 313 380 313 406.5 268 c 128,-1,37
 433 223 433 223 475.5 197 c 128,-1,38
 518 171 518 171 579 171 c 0,39,40
 652 171 652 171 701 198.5 c 128,-1,41
 750 226 750 226 781 273 c 1,42,-1
 781 301 l 1,43,-1
 781 810 l 1,44,45
 749 855 749 855 700 882 c 128,-1,46
 651 909 651 909 581 909 c 0,47,48
 520 909 520 909 477 878.5 c 128,-1,49
 434 848 434 848 407 795.5 c 128,-1,50
 380 743 380 743 368 673.5 c 128,-1,51
 356 604 356 604 356 526 c 2,52,-1
 356 505 l 2,34,35
EndSplineSet
EndChar
StartChar: beta
Encoding: 946 946 185
Width: 1229
Flags: W
LayerCount: 2
Back
Fore
SplineSet
630 1477 m 0,0,1
 732 1477 732 1477 814.5 1449 c 128,-1,2
 897 1421 897 1421 955.5 1369.5 c 128,-1,3
 1014 1318 1014 1318 1046 1245 c 128,-1,4
 1078 1172 1078 1172 1078 1082 c 0,5,6
 1078 988 1078 988 1028.5 910.5 c 128,-1,7
 979 833 979 833 891 785 c 1,8,9
 1012 740 1012 740 1076.5 645.5 c 128,-1,10
 1141 551 1141 551 1141 421 c 0,11,12
 1141 315 1141 315 1108 233 c 128,-1,13
 1075 151 1075 151 1016 94.5 c 128,-1,14
 957 38 957 38 873.5 8.5 c 128,-1,15
 790 -21 790 -21 690 -21 c 0,16,17
 615 -21 615 -21 540.5 -1 c 128,-1,18
 466 19 466 19 403 62 c 1,19,-1
 403 -392 l 1,20,-1
 164 -392 l 1,21,-1
 164 1056 l 2,22,23
 164 1146 164 1146 201 1223.5 c 128,-1,24
 238 1301 238 1301 301.5 1357 c 128,-1,25
 365 1413 365 1413 450 1445 c 128,-1,26
 535 1477 535 1477 630 1477 c 0,0,1
626 861 m 2,27,28
 683 861 683 861 723.5 876.5 c 128,-1,29
 764 892 764 892 789.5 919.5 c 128,-1,30
 815 947 815 947 827 986.5 c 128,-1,31
 839 1026 839 1026 839 1074 c 0,32,33
 839 1114 839 1114 825.5 1152 c 128,-1,34
 812 1190 812 1190 786 1219 c 128,-1,35
 760 1248 760 1248 721 1266 c 128,-1,36
 682 1284 682 1284 630 1284 c 0,37,38
 582 1284 582 1284 540.5 1267 c 128,-1,39
 499 1250 499 1250 468.5 1220 c 128,-1,40
 438 1190 438 1190 420.5 1148 c 128,-1,41
 403 1106 403 1106 403 1056 c 2,42,-1
 403 254 l 1,43,44
 445 216 445 216 507.5 193 c 128,-1,45
 570 170 570 170 650 170 c 0,46,47
 710 170 710 170 757 189 c 128,-1,48
 804 208 804 208 836 242 c 128,-1,49
 868 276 868 276 885 321.5 c 128,-1,50
 902 367 902 367 902 421 c 0,51,52
 902 472 902 472 887 519 c 128,-1,53
 872 566 872 566 843.5 601 c 128,-1,54
 815 636 815 636 772 657 c 128,-1,55
 729 678 729 678 674 678 c 2,56,-1
 551 678 l 1,57,-1
 551 861 l 1,58,-1
 626 861 l 2,27,28
EndSplineSet
EndChar
StartChar: gamma
Encoding: 947 947 186
Width: 1229
Flags: W
LayerCount: 2
Back
Fore
SplineSet
945 1082 m 1,0,-1
 1192 1082 l 1,1,-1
 742 37 l 1,2,-1
 742 -417 l 1,3,-1
 503 -417 l 1,4,-1
 503 41 l 1,5,-1
 53 1082 l 1,6,-1
 301 1082 l 1,7,-1
 609 306 l 1,8,-1
 626 232 l 1,9,-1
 645 309 l 1,10,-1
 945 1082 l 1,0,-1
EndSplineSet
EndChar
StartChar: delta
Encoding: 948 948 187
Width: 1229
Flags: W
LayerCount: 2
Back
Fore
SplineSet
250 1258 m 0,0,1
 250 1330 250 1330 277 1387.5 c 128,-1,2
 304 1445 304 1445 354.5 1485 c 128,-1,3
 405 1525 405 1525 478 1546 c 128,-1,4
 551 1567 551 1567 644 1567 c 0,5,6
 723 1567 723 1567 799 1544 c 128,-1,7
 875 1521 875 1521 953 1486 c 1,8,-1
 909 1325 l 1,9,10
 889 1332 889 1332 860.5 1342 c 128,-1,11
 832 1352 832 1352 798 1361 c 128,-1,12
 764 1370 764 1370 727 1376.5 c 128,-1,13
 690 1383 690 1383 652 1383 c 0,14,15
 573 1383 573 1383 528 1350 c 128,-1,16
 483 1317 483 1317 483 1264 c 0,17,18
 483 1247 483 1247 490.5 1228 c 128,-1,19
 498 1209 498 1209 519 1188 c 128,-1,20
 540 1167 540 1167 578 1145.5 c 128,-1,21
 616 1124 616 1124 677 1102 c 0,22,23
 909 1024 909 1024 1024.5 884.5 c 128,-1,24
 1140 745 1140 745 1140 536 c 2,25,-1
 1140 516 l 2,26,27
 1140 402 1140 402 1105.5 304 c 128,-1,28
 1071 206 1071 206 1005 134 c 128,-1,29
 939 62 939 62 843 21 c 128,-1,30
 747 -20 747 -20 625 -20 c 0,31,32
 501 -20 501 -20 404.5 20.5 c 128,-1,33
 308 61 308 61 241.5 132 c 128,-1,34
 175 203 175 203 140.5 300 c 128,-1,35
 106 397 106 397 106 510 c 2,36,-1
 106 530 l 2,37,38
 106 615 106 615 132.5 689.5 c 128,-1,39
 159 764 159 764 205 822.5 c 128,-1,40
 251 881 251 881 312 921 c 128,-1,41
 373 961 373 961 442 977 c 1,42,-1
 445 989 l 1,43,44
 354 1029 354 1029 302 1097.5 c 128,-1,45
 250 1166 250 1166 250 1258 c 0,0,1
345 522 m 2,46,47
 345 450 345 450 361.5 386 c 128,-1,48
 378 322 378 322 412 274 c 128,-1,49
 446 226 446 226 499 198 c 128,-1,50
 552 170 552 170 625 170 c 0,51,52
 697 170 697 170 749 198 c 128,-1,53
 801 226 801 226 834.5 274 c 128,-1,54
 868 322 868 322 884.5 386 c 128,-1,55
 901 450 901 450 901 522 c 2,56,-1
 901 542 l 2,57,58
 901 599 901 599 881.5 656 c 128,-1,59
 862 713 862 713 826 761 c 128,-1,60
 790 809 790 809 739 843.5 c 128,-1,61
 688 878 688 878 625 890 c 1,62,63
 553 890 553 890 500 861.5 c 128,-1,64
 447 833 447 833 412.5 785 c 128,-1,65
 378 737 378 737 361.5 674 c 128,-1,66
 345 611 345 611 345 542 c 2,67,-1
 345 522 l 2,46,47
EndSplineSet
EndChar
StartChar: epsilon
Encoding: 949 949 188
Width: 1229
Flags: W
LayerCount: 2
Back
Fore
SplineSet
134 306 m 0,0,1
 134 398 134 398 188 461.5 c 128,-1,2
 242 525 242 525 349 557 c 1,3,4
 254 593 254 593 203.5 653.5 c 128,-1,5
 153 714 153 714 153 786 c 0,6,7
 153 863 153 863 187 922 c 128,-1,8
 221 981 221 981 285 1020.5 c 128,-1,9
 349 1060 349 1060 441 1080.5 c 128,-1,10
 533 1101 533 1101 649 1101 c 0,11,12
 748 1101 748 1101 836.5 1078.5 c 128,-1,13
 925 1056 925 1056 991 1014 c 128,-1,14
 1057 972 1057 972 1095.5 911.5 c 128,-1,15
 1134 851 1134 851 1134 775 c 1,16,-1
 895 775 l 1,17,18
 895 806 895 806 875.5 831.5 c 128,-1,19
 856 857 856 857 822 876 c 128,-1,20
 788 895 788 895 742 905.5 c 128,-1,21
 696 916 696 916 643 916 c 0,22,23
 572 916 572 916 523.5 904 c 128,-1,24
 475 892 475 892 446 872 c 128,-1,25
 417 852 417 852 404.5 826.5 c 128,-1,26
 392 801 392 801 392 775 c 0,27,28
 392 745 392 745 404 719.5 c 128,-1,29
 416 694 416 694 444.5 676 c 128,-1,30
 473 658 473 658 519.5 648 c 128,-1,31
 566 638 566 638 635 638 c 2,32,-1
 875 638 l 1,33,-1
 875 466 l 1,34,-1
 635 466 l 2,35,36
 498 466 498 466 435.5 430.5 c 128,-1,37
 373 395 373 395 373 315 c 0,38,39
 373 285 373 285 388.5 258 c 128,-1,40
 404 231 404 231 437 210 c 128,-1,41
 470 189 470 189 521 176.5 c 128,-1,42
 572 164 572 164 642 164 c 0,43,44
 705 164 705 164 755 177 c 128,-1,45
 805 190 805 190 840.5 211.5 c 128,-1,46
 876 233 876 233 894.5 261.5 c 128,-1,47
 913 290 913 290 913 321 c 1,48,-1
 1151 321 l 1,49,50
 1151 232 1151 232 1107.5 167.5 c 128,-1,51
 1064 103 1064 103 993 61.5 c 128,-1,52
 922 20 922 20 832 0 c 128,-1,53
 742 -20 742 -20 649 -20 c 0,54,55
 533 -20 533 -20 438.5 2 c 128,-1,56
 344 24 344 24 276 66 c 128,-1,57
 208 108 208 108 171 168.5 c 128,-1,58
 134 229 134 229 134 306 c 0,0,1
EndSplineSet
EndChar
StartChar: zeta
Encoding: 950 950 189
Width: 1229
Flags: W
LayerCount: 2
Back
Fore
SplineSet
1070 1456 m 1,0,-1
 1070 1312 l 1,1,-1
 662 892 l 1,2,3
 594 829 594 829 541 774.5 c 128,-1,4
 488 720 488 720 451.5 665.5 c 128,-1,5
 415 611 415 611 396 551 c 128,-1,6
 377 491 377 491 377 418 c 0,7,8
 377 371 377 371 386.5 337 c 128,-1,9
 396 303 396 303 416.5 279 c 128,-1,10
 437 255 437 255 468.5 239.5 c 128,-1,11
 500 224 500 224 545 215 c 2,12,-1
 755 171 l 2,13,14
 815 157 815 157 866 141 c 128,-1,15
 917 125 917 125 953.5 99 c 128,-1,16
 990 73 990 73 1010.5 33 c 128,-1,17
 1031 -7 1031 -7 1031 -69 c 0,18,19
 1030 -110 1030 -110 1010.5 -155 c 128,-1,20
 991 -200 991 -200 961.5 -243 c 128,-1,21
 932 -286 932 -286 897 -323 c 128,-1,22
 862 -360 862 -360 829 -385 c 1,23,-1
 705 -286 l 1,24,25
 753 -232 753 -232 776 -190.5 c 128,-1,26
 799 -149 799 -149 798 -112 c 0,27,28
 799 -79 799 -79 768.5 -51.5 c 128,-1,29
 738 -24 738 -24 663 -10 c 2,30,-1
 480 23 l 2,31,32
 386 40 386 40 320.5 71.5 c 128,-1,33
 255 103 255 103 214.5 149 c 128,-1,34
 174 195 174 195 156 256.5 c 128,-1,35
 138 318 138 318 138 396 c 0,36,37
 138 531 138 531 225.5 676.5 c 128,-1,38
 313 822 313 822 498 991 c 1,39,-1
 759 1264 l 1,40,-1
 98 1264 l 1,41,-1
 98 1456 l 1,42,-1
 1070 1456 l 1,0,-1
EndSplineSet
EndChar
StartChar: eta
Encoding: 951 951 190
Width: 1229
Flags: W
LayerCount: 2
Back
Fore
SplineSet
363 1082 m 1,0,-1
 376 926 l 1,1,2
 432 1009 432 1009 515.5 1055.5 c 128,-1,3
 599 1102 599 1102 707 1102 c 0,4,5
 793 1102 793 1102 863 1080 c 128,-1,6
 933 1058 933 1058 982.5 1008.5 c 128,-1,7
 1032 959 1032 959 1059 879 c 128,-1,8
 1086 799 1086 799 1086 684 c 2,9,-1
 1086 -415 l 1,10,-1
 846 -415 l 1,11,-1
 846 682 l 2,12,13
 846 803 846 803 790 856 c 128,-1,14
 734 909 734 909 625 909 c 0,15,16
 540 909 540 909 480.5 880.5 c 128,-1,17
 421 852 421 852 383 803 c 1,18,-1
 383 0 l 1,19,-1
 144 0 l 1,20,-1
 144 1082 l 1,21,-1
 363 1082 l 1,0,-1
EndSplineSet
EndChar
StartChar: theta
Encoding: 952 952 191
Width: 1229
Flags: W
LayerCount: 2
Back
Fore
SplineSet
1073 537 m 2,0,1
 1073 400 1073 400 1042 296 c 128,-1,2
 1011 192 1011 192 953 121.5 c 128,-1,3
 895 51 895 51 812.5 15 c 128,-1,4
 730 -21 730 -21 627 -21 c 0,5,6
 525 -21 525 -21 442 15 c 128,-1,7
 359 51 359 51 300.5 121.5 c 128,-1,8
 242 192 242 192 210.5 296 c 128,-1,9
 179 400 179 400 179 537 c 2,10,-1
 179 914 l 2,11,12
 179 1051 179 1051 210.5 1156 c 128,-1,13
 242 1261 242 1261 300 1332.5 c 128,-1,14
 358 1404 358 1404 440.5 1440.5 c 128,-1,15
 523 1477 523 1477 625 1477 c 0,16,17
 728 1477 728 1477 811 1440.5 c 128,-1,18
 894 1404 894 1404 952 1332.5 c 128,-1,19
 1010 1261 1010 1261 1041.5 1156 c 128,-1,20
 1073 1051 1073 1051 1073 914 c 2,21,-1
 1073 537 l 2,0,1
834 644 m 1,22,-1
 419 644 l 1,23,-1
 419 493 l 2,24,25
 419 407 419 407 432 345.5 c 128,-1,26
 445 284 445 284 471 245 c 128,-1,27
 497 206 497 206 536 188 c 128,-1,28
 575 170 575 170 627 170 c 256,29,30
 679 170 679 170 717.5 188 c 128,-1,31
 756 206 756 206 782 245 c 128,-1,32
 808 284 808 284 821 345.5 c 128,-1,33
 834 407 834 407 834 493 c 2,34,-1
 834 644 l 1,22,-1
419 832 m 1,35,-1
 834 832 l 1,36,-1
 834 961 l 2,37,38
 834 1132 834 1132 782 1208 c 128,-1,39
 730 1284 730 1284 625 1284 c 0,40,41
 522 1284 522 1284 470.5 1208 c 128,-1,42
 419 1132 419 1132 419 961 c 2,43,-1
 419 832 l 1,35,-1
EndSplineSet
EndChar
StartChar: iota
Encoding: 953 953 192
Width: 1229
Flags: W
LayerCount: 2
Back
Fore
SplineSet
179 1082 m 1,0,-1
 739 1082 l 1,1,-1
 739 344 l 2,2,3
 739 285 739 285 751.5 251.5 c 128,-1,4
 764 218 764 218 785 201.5 c 128,-1,5
 806 185 806 185 833.5 181 c 128,-1,6
 861 177 861 177 891 177 c 0,7,8
 936 177 936 177 975.5 192 c 128,-1,9
 1015 207 1015 207 1042 224 c 1,10,-1
 1087 55 l 1,11,12
 1055 31 1055 31 1024 16 c 128,-1,13
 993 1 993 1 962.5 -7 c 128,-1,14
 932 -15 932 -15 901 -18 c 128,-1,15
 870 -21 870 -21 838 -21 c 0,16,17
 756 -21 756 -21 693 -2 c 128,-1,18
 630 17 630 17 586.5 60 c 128,-1,19
 543 103 543 103 520.5 173.5 c 128,-1,20
 498 244 498 244 498 347 c 2,21,-1
 498 883 l 1,22,-1
 179 883 l 1,23,-1
 179 1082 l 1,0,-1
EndSplineSet
EndChar
StartChar: lambda
Encoding: 955 955 193
Width: 1229
Flags: W
LayerCount: 2
Back
Fore
SplineSet
306 0 m 1,0,-1
 44 0 l 1,1,-1
 431 1042 l 1,2,-1
 389 1149 l 2,3,4
 376 1183 376 1183 358 1217 c 128,-1,5
 340 1251 340 1251 317 1277.5 c 128,-1,6
 294 1304 294 1304 265.5 1320.5 c 128,-1,7
 237 1337 237 1337 203 1337 c 0,8,9
 188 1337 188 1337 167.5 1335 c 128,-1,10
 147 1333 147 1333 130 1332 c 1,11,-1
 127 1511 l 1,12,13
 140 1514 140 1514 156.5 1517.5 c 128,-1,14
 173 1521 173 1521 191 1524 c 128,-1,15
 209 1527 209 1527 227.5 1528.5 c 128,-1,16
 246 1530 246 1530 262 1530 c 0,17,18
 335 1530 335 1530 390.5 1502.5 c 128,-1,19
 446 1475 446 1475 486 1434 c 128,-1,20
 526 1393 526 1393 552.5 1345 c 128,-1,21
 579 1297 579 1297 595 1257 c 2,22,-1
 948 343 l 2,23,24
 958 311 958 311 972.5 281.5 c 128,-1,25
 987 252 987 252 1005 229.5 c 128,-1,26
 1023 207 1023 207 1044 193.5 c 128,-1,27
 1065 180 1065 180 1089 180 c 0,28,29
 1097 180 1097 180 1102 180 c 128,-1,30
 1107 180 1107 180 1111 180.5 c 128,-1,31
 1115 181 1115 181 1120 182 c 128,-1,32
 1125 183 1125 183 1134 184 c 1,33,-1
 1130 -5 l 1,34,35
 1115 -11 1115 -11 1094 -14.5 c 128,-1,36
 1073 -18 1073 -18 1058 -18 c 0,37,38
 990 -18 990 -18 937.5 2.5 c 128,-1,39
 885 23 885 23 844.5 60 c 128,-1,40
 804 97 804 97 774 149 c 128,-1,41
 744 201 744 201 721 263 c 2,42,-1
 541 751 l 1,43,-1
 510 616 l 1,44,-1
 306 0 l 1,0,-1
EndSplineSet
EndChar
StartChar: xi
Encoding: 958 958 194
Width: 1229
Flags: W
LayerCount: 2
Back
Fore
SplineSet
1031 1245 m 1,0,1
 999 1253 999 1253 971 1260 c 128,-1,2
 943 1267 943 1267 916 1271.5 c 128,-1,3
 889 1276 889 1276 862.5 1278.5 c 128,-1,4
 836 1281 836 1281 806 1281 c 0,5,6
 716 1281 716 1281 655 1268 c 128,-1,7
 594 1255 594 1255 556 1233 c 128,-1,8
 518 1211 518 1211 501.5 1181 c 128,-1,9
 485 1151 485 1151 485 1118 c 0,10,11
 485 1077 485 1077 502 1043 c 128,-1,12
 519 1009 519 1009 558.5 984 c 128,-1,13
 598 959 598 959 663 945.5 c 128,-1,14
 728 932 728 932 824 932 c 2,15,-1
 970 932 l 1,16,-1
 970 737 l 1,17,-1
 827 737 l 2,18,19
 614 737 614 737 513.5 665.5 c 128,-1,20
 413 594 413 594 413 450 c 0,21,22
 413 391 413 391 437.5 346 c 128,-1,23
 462 301 462 301 504.5 268.5 c 128,-1,24
 547 236 547 236 604 215.5 c 128,-1,25
 661 195 661 195 727 184 c 2,26,-1
 834 160 l 2,27,28
 892 146 892 146 943 131.5 c 128,-1,29
 994 117 994 117 1031 92 c 128,-1,30
 1068 67 1068 67 1089 27 c 128,-1,31
 1110 -13 1110 -13 1110 -78 c 0,32,33
 1110 -119 1110 -119 1090.5 -164 c 128,-1,34
 1071 -209 1071 -209 1041.5 -252 c 128,-1,35
 1012 -295 1012 -295 976.5 -332 c 128,-1,36
 941 -369 941 -369 908 -394 c 1,37,-1
 788 -295 l 1,38,39
 812 -268 812 -268 828.5 -246 c 128,-1,40
 845 -224 845 -224 856 -203.5 c 128,-1,41
 867 -183 867 -183 872 -162.5 c 128,-1,42
 877 -142 877 -142 877 -118 c 0,43,44
 877 -79 877 -79 844.5 -57 c 128,-1,45
 812 -35 812 -35 742 -18 c 2,46,-1
 683 -3 l 2,47,48
 562 24 562 24 467.5 55.5 c 128,-1,49
 373 87 373 87 307.5 137 c 128,-1,50
 242 187 242 187 208 261.5 c 128,-1,51
 174 336 174 336 174 448 c 0,52,53
 174 594 174 594 260 691 c 128,-1,54
 346 788 346 788 505 834 c 1,55,56
 380 874 380 874 313 945.5 c 128,-1,57
 246 1017 246 1017 246 1114 c 0,58,59
 246 1199 246 1199 282.5 1266.5 c 128,-1,60
 319 1334 319 1334 389 1380.5 c 128,-1,61
 459 1427 459 1427 560.5 1451.5 c 128,-1,62
 662 1476 662 1476 792 1476 c 0,63,64
 874 1476 874 1476 942.5 1464 c 128,-1,65
 1011 1452 1011 1452 1067 1432 c 1,66,-1
 1031 1245 l 1,0,1
EndSplineSet
EndChar
StartChar: pi
Encoding: 960 960 195
Width: 1229
Flags: W
LayerCount: 2
Back
Fore
SplineSet
1147 894 m 1,0,-1
 1003 894 l 1,1,-1
 1003 295 l 2,2,3
 1003 254 1003 254 1010 230 c 128,-1,4
 1017 206 1017 206 1029 194 c 128,-1,5
 1041 182 1041 182 1058.5 179 c 128,-1,6
 1076 176 1076 176 1097 176 c 0,7,8
 1126 176 1126 176 1148.5 183.5 c 128,-1,9
 1171 191 1171 191 1188 201 c 1,10,-1
 1233 37 l 1,11,12
 1178 0 1178 0 1129.5 -10 c 128,-1,13
 1081 -20 1081 -20 1031 -20 c 0,14,15
 966 -20 966 -20 916 -4.5 c 128,-1,16
 866 11 866 11 832 47.5 c 128,-1,17
 798 84 798 84 781 143.5 c 128,-1,18
 764 203 764 203 764 292 c 2,19,-1
 764 894 l 1,20,-1
 463 894 l 1,21,-1
 463 0 l 1,22,-1
 224 0 l 1,23,-1
 224 894 l 1,24,-1
 94 894 l 1,25,-1
 94 1082 l 1,26,-1
 1147 1082 l 1,27,-1
 1147 894 l 1,0,-1
EndSplineSet
EndChar
StartChar: rho
Encoding: 961 961 196
Width: 1229
Flags: W
LayerCount: 2
Back
Fore
SplineSet
1109 505 m 2,0,1
 1109 390 1109 390 1082 293.5 c 128,-1,2
 1055 197 1055 197 1002 127 c 128,-1,3
 949 57 949 57 871 18 c 128,-1,4
 793 -21 793 -21 692 -21 c 256,5,6
 591 -21 591 -21 515 12 c 128,-1,7
 439 45 439 45 385 106 c 1,8,-1
 385 -416 l 1,9,-1
 146 -416 l 1,10,-1
 146 575 l 2,11,12
 146 698 146 698 183 796 c 128,-1,13
 220 894 220 894 285 962 c 128,-1,14
 350 1030 350 1030 440 1066 c 128,-1,15
 530 1102 530 1102 635 1102 c 0,16,17
 753 1102 753 1102 841.5 1059.5 c 128,-1,18
 930 1017 930 1017 989.5 940.5 c 128,-1,19
 1049 864 1049 864 1079 758 c 128,-1,20
 1109 652 1109 652 1109 526 c 2,21,-1
 1109 505 l 2,0,1
870 526 m 2,22,23
 870 604 870 604 857 673.5 c 128,-1,24
 844 743 844 743 815.5 795.5 c 128,-1,25
 787 848 787 848 741 878.5 c 128,-1,26
 695 909 695 909 629 909 c 0,27,28
 564 909 564 909 518 878 c 128,-1,29
 472 847 472 847 442.5 798 c 128,-1,30
 413 749 413 749 399 687 c 128,-1,31
 385 625 385 625 385 564 c 1,32,-1
 384 563 l 1,33,-1
 385 563 l 1,34,-1
 385 297 l 1,35,36
 419 240 419 240 476 205 c 128,-1,37
 533 170 533 170 623 170 c 0,38,39
 689 170 689 170 736 196 c 128,-1,40
 783 222 783 222 813 267.5 c 128,-1,41
 843 313 843 313 856.5 374 c 128,-1,42
 870 435 870 435 870 505 c 2,43,-1
 870 526 l 2,22,23
EndSplineSet
EndChar
StartChar: sigma1
Encoding: 962 962 197
Width: 1229
Flags: W
LayerCount: 2
Back
Fore
SplineSet
608 1102 m 0,0,1
 712 1102 712 1102 798.5 1074.5 c 128,-1,2
 885 1047 885 1047 947.5 995 c 128,-1,3
 1010 943 1010 943 1045 867 c 128,-1,4
 1080 791 1080 791 1080 695 c 1,5,-1
 854 695 l 1,6,7
 854 739 854 739 839.5 778 c 128,-1,8
 825 817 825 817 794.5 846 c 128,-1,9
 764 875 764 875 717.5 892 c 128,-1,10
 671 909 671 909 608 909 c 0,11,12
 535 909 535 909 484.5 878.5 c 128,-1,13
 434 848 434 848 402 798.5 c 128,-1,14
 370 749 370 749 355.5 686 c 128,-1,15
 341 623 341 623 341 558 c 2,16,-1
 341 522 l 2,17,18
 341 456 341 456 358.5 399.5 c 128,-1,19
 376 343 376 343 413.5 299.5 c 128,-1,20
 451 256 451 256 509 227 c 128,-1,21
 567 198 567 198 649 188 c 0,22,23
 746 174 746 174 820 155.5 c 128,-1,24
 894 137 894 137 944 107 c 128,-1,25
 994 77 994 77 1020.5 31.5 c 128,-1,26
 1047 -14 1047 -14 1048 -81 c 0,27,28
 1048 -145 1048 -145 1022.5 -198 c 128,-1,29
 997 -251 997 -251 956.5 -294.5 c 128,-1,30
 916 -338 916 -338 864.5 -371 c 128,-1,31
 813 -404 813 -404 760 -427 c 1,32,-1
 658 -285 l 1,33,34
 680 -276 680 -276 707.5 -260 c 128,-1,35
 735 -244 735 -244 759 -221.5 c 128,-1,36
 783 -199 783 -199 799.5 -170 c 128,-1,37
 816 -141 816 -141 816 -105 c 0,38,39
 816 -59 816 -59 765 -34 c 128,-1,40
 714 -9 714 -9 614 2 c 1,41,42
 354 42 354 42 228 175.5 c 128,-1,43
 102 309 102 309 102 522 c 2,44,-1
 102 558 l 2,45,46
 102 669 102 669 135 768 c 128,-1,47
 168 867 168 867 232.5 941 c 128,-1,48
 297 1015 297 1015 391 1058.5 c 128,-1,49
 485 1102 485 1102 608 1102 c 0,0,1
EndSplineSet
EndChar
StartChar: sigma
Encoding: 963 963 198
Width: 1229
Flags: W
LayerCount: 2
Back
Fore
SplineSet
1158 888 m 1,0,-1
 893 888 l 1,1,2
 978 821 978 821 1028 724.5 c 128,-1,3
 1078 628 1078 628 1078 510 c 2,4,-1
 1078 489 l 2,5,6
 1078 387 1078 387 1045.5 294.5 c 128,-1,7
 1013 202 1013 202 950.5 132 c 128,-1,8
 888 62 888 62 797.5 20.5 c 128,-1,9
 707 -21 707 -21 590 -21 c 0,10,11
 471 -21 471 -21 379 21 c 128,-1,12
 287 63 287 63 223 136.5 c 128,-1,13
 159 210 159 210 126 311 c 128,-1,14
 93 412 93 412 93 530 c 2,15,-1
 93 551 l 2,16,17
 93 664 93 664 126 761 c 128,-1,18
 159 858 159 858 222 929 c 128,-1,19
 285 1000 285 1000 377 1041 c 128,-1,20
 469 1082 469 1082 587 1082 c 2,21,-1
 1158 1082 l 1,22,-1
 1158 888 l 1,0,-1
333 530 m 2,23,24
 333 456 333 456 347.5 391 c 128,-1,25
 362 326 362 326 392.5 276.5 c 128,-1,26
 423 227 423 227 472 198.5 c 128,-1,27
 521 170 521 170 590 170 c 0,28,29
 656 170 656 170 703 198.5 c 128,-1,30
 750 227 750 227 780.5 276.5 c 128,-1,31
 811 326 811 326 825 391 c 128,-1,32
 839 456 839 456 839 530 c 2,33,-1
 839 551 l 2,34,35
 839 619 839 619 825 680 c 128,-1,36
 811 741 811 741 780.5 787.5 c 128,-1,37
 750 834 750 834 702.5 861 c 128,-1,38
 655 888 655 888 588 888 c 0,39,40
 520 888 520 888 471.5 861 c 128,-1,41
 423 834 423 834 392.5 787.5 c 128,-1,42
 362 741 362 741 347.5 680 c 128,-1,43
 333 619 333 619 333 551 c 2,44,-1
 333 530 l 2,23,24
EndSplineSet
EndChar
StartChar: tau
Encoding: 964 964 199
Width: 1229
Flags: W
LayerCount: 2
Back
Fore
SplineSet
1055 883 m 1,0,-1
 711 883 l 1,1,-1
 711 354 l 2,2,3
 711 291 711 291 723 255.5 c 128,-1,4
 735 220 735 220 756 202 c 128,-1,5
 777 184 777 184 805 179.5 c 128,-1,6
 833 175 833 175 865 175 c 0,7,8
 913 175 913 175 950.5 188 c 128,-1,9
 988 201 988 201 1019 217 c 1,10,-1
 1057 44 l 1,11,12
 1025 24 1025 24 994.5 11 c 128,-1,13
 964 -2 964 -2 934 -9 c 128,-1,14
 904 -16 904 -16 873 -18.5 c 128,-1,15
 842 -21 842 -21 809 -21 c 0,16,17
 729 -21 729 -21 666.5 -1.5 c 128,-1,18
 604 18 604 18 560.5 63 c 128,-1,19
 517 108 517 108 494.5 181 c 128,-1,20
 472 254 472 254 472 361 c 2,21,-1
 472 883 l 1,22,-1
 117 883 l 1,23,-1
 117 1082 l 1,24,-1
 1055 1082 l 1,25,-1
 1055 883 l 1,0,-1
EndSplineSet
EndChar
StartChar: upsilon
Encoding: 965 965 200
Width: 1229
Flags: W
LayerCount: 2
Back
Fore
SplineSet
377 1082 m 1,0,-1
 377 463 l 2,1,2
 377 382 377 382 394.5 326 c 128,-1,3
 412 270 412 270 443 235.5 c 128,-1,4
 474 201 474 201 517 185.5 c 128,-1,5
 560 170 560 170 611 170 c 0,6,7
 678 170 678 170 725.5 205 c 128,-1,8
 773 240 773 240 803.5 296.5 c 128,-1,9
 834 353 834 353 848 424 c 128,-1,10
 862 495 862 495 862 566 c 0,11,12
 859 700 859 700 827 828.5 c 128,-1,13
 795 957 795 957 747 1082 c 1,14,-1
 986 1082 l 1,15,16
 1009 1036 1009 1036 1030 980.5 c 128,-1,17
 1051 925 1051 925 1066.5 860.5 c 128,-1,18
 1082 796 1082 796 1091.5 722 c 128,-1,19
 1101 648 1101 648 1101 566 c 0,20,21
 1101 447 1101 447 1075 340.5 c 128,-1,22
 1049 234 1049 234 992 153.5 c 128,-1,23
 935 73 935 73 843.5 26 c 128,-1,24
 752 -21 752 -21 621 -21 c 0,25,26
 508 -21 508 -21 418.5 7.5 c 128,-1,27
 329 36 329 36 266.5 95.5 c 128,-1,28
 204 155 204 155 171 246.5 c 128,-1,29
 138 338 138 338 138 465 c 2,30,-1
 138 1082 l 1,31,-1
 377 1082 l 1,0,-1
EndSplineSet
EndChar
StartChar: phi
Encoding: 966 966 201
Width: 1229
Flags: W
LayerCount: 2
Back
Fore
SplineSet
513 -11 m 1,0,1
 397 8 397 8 316 61 c 128,-1,2
 235 114 235 114 184.5 191 c 128,-1,3
 134 268 134 268 111.5 362.5 c 128,-1,4
 89 457 89 457 89 558 c 0,5,6
 89 729 89 729 152 864.5 c 128,-1,7
 215 1000 215 1000 331 1088 c 1,8,-1
 479 942 l 1,9,10
 440 902 440 902 412 855.5 c 128,-1,11
 384 809 384 809 366 759 c 128,-1,12
 348 709 348 709 339 658 c 128,-1,13
 330 607 330 607 328 558 c 0,14,15
 328 498 328 498 337.5 441.5 c 128,-1,16
 347 385 347 385 369 336 c 128,-1,17
 391 287 391 287 426.5 250 c 128,-1,18
 462 213 462 213 513 192 c 1,19,-1
 513 816 l 2,20,21
 513 873 513 873 532.5 923 c 128,-1,22
 552 973 552 973 588 1009.5 c 128,-1,23
 624 1046 624 1046 676 1067 c 128,-1,24
 728 1088 728 1088 793 1088 c 0,25,26
 885 1088 885 1088 958.5 1044 c 128,-1,27
 1032 1000 1032 1000 1083 926 c 128,-1,28
 1134 852 1134 852 1161.5 754.5 c 128,-1,29
 1189 657 1189 657 1189 550 c 0,30,31
 1189 450 1189 450 1165.5 356.5 c 128,-1,32
 1142 263 1142 263 1090 187 c 128,-1,33
 1038 111 1038 111 955 58.5 c 128,-1,34
 872 6 872 6 753 -12 c 1,35,-1
 753 -478 l 1,36,-1
 513 -478 l 1,37,-1
 513 -11 l 1,0,1
753 189 m 1,38,39
 808 209 808 209 845.5 246 c 128,-1,40
 883 283 883 283 906 331.5 c 128,-1,41
 929 380 929 380 939.5 436 c 128,-1,42
 950 492 950 492 950 550 c 0,43,44
 948 619 948 619 939 681.5 c 128,-1,45
 930 744 930 744 912 791.5 c 128,-1,46
 894 839 894 839 868 867 c 128,-1,47
 842 895 842 895 808 895 c 0,48,49
 779 895 779 895 766 875 c 128,-1,50
 753 855 753 855 753 822 c 2,51,-1
 753 189 l 1,38,39
EndSplineSet
EndChar
StartChar: psi
Encoding: 968 968 202
Width: 1229
Flags: W
LayerCount: 2
Back
Fore
SplineSet
745 1082 m 1,0,-1
 745 188 l 1,1,2
 805 208 805 208 846 247.5 c 128,-1,3
 887 287 887 287 913 339 c 128,-1,4
 939 391 939 391 950.5 452 c 128,-1,5
 962 513 962 513 962 578 c 0,6,7
 961 709 961 709 939 835 c 128,-1,8
 917 961 917 961 885 1082 c 1,9,-1
 1120 1082 l 1,10,11
 1152 991 1152 991 1176.5 865.5 c 128,-1,12
 1201 740 1201 740 1201 578 c 0,13,14
 1201 471 1201 471 1177 372 c 128,-1,15
 1153 273 1153 273 1099 193 c 128,-1,16
 1045 113 1045 113 958 58.5 c 128,-1,17
 871 4 871 4 745 -13 c 1,18,-1
 745 -478 l 1,19,-1
 506 -478 l 1,20,-1
 506 -11 l 1,21,22
 407 5 407 5 328 49 c 128,-1,23
 249 93 249 93 193.5 167 c 128,-1,24
 138 241 138 241 108.5 347 c 128,-1,25
 79 453 79 453 79 593 c 2,26,-1
 79 1082 l 1,27,-1
 319 1082 l 1,28,-1
 319 591 l 2,29,30
 319 502 319 502 332.5 434.5 c 128,-1,31
 346 367 346 367 371 318.5 c 128,-1,32
 396 270 396 270 430 238.5 c 128,-1,33
 464 207 464 207 506 191 c 1,34,-1
 506 1082 l 1,35,-1
 745 1082 l 1,0,-1
EndSplineSet
EndChar
